<?xml version="1.0" standalone="no"?>
<!DOCTYPE svg PUBLIC "-//W3C//DTD SVG 20010904//EN"
 "http://www.w3.org/TR/2001/REC-SVG-20010904/DTD/svg10.dtd">
<svg version="1.0" xmlns="http://www.w3.org/2000/svg"
 width="1800.000000pt" height="1800.000000pt" viewBox="0 0 1800.000000 1800.000000"
 preserveAspectRatio="xMidYMid meet">
<g transform="translate(0.000000,1800.000000) scale(0.100000,-0.100000)"
fill="#000000" stroke="none">
<path d="M0 17491 l0 -510 285 -283 c157 -156 285 -290 285 -298 0 -9 -128
-143 -285 -300 l-285 -285 0 -540 0 -540 285 -285 c157 -157 285 -292 285
-300 0 -8 -128 -143 -285 -300 l-285 -285 0 -75 0 -75 285 -285 c157 -157 285
-292 285 -300 0 -8 -128 -143 -285 -300 l-285 -285 0 -540 0 -540 285 -285
c157 -157 285 -292 285 -300 0 -8 -128 -143 -285 -300 l-285 -285 0 -1005 0
-1005 285 -285 c157 -157 285 -292 285 -300 0 -8 -128 -143 -285 -300 l-285
-285 0 -540 0 -540 285 -285 c157 -157 285 -292 285 -300 0 -8 -128 -143 -285
-300 l-285 -285 0 -75 0 -75 285 -285 c157 -157 285 -292 285 -300 0 -8 -128
-143 -285 -300 l-285 -285 0 -540 1 -540 284 -288 c157 -159 285 -294 285
-300 0 -7 -128 -140 -285 -297 l-285 -285 0 -497 0 -498 498 0 497 0 285 285
c157 157 292 285 300 285 8 0 143 -128 300 -285 l285 -285 540 0 540 0 285
285 c157 157 292 285 300 285 8 0 143 -128 300 -285 l285 -285 75 0 75 0 285
285 c157 157 292 285 300 285 8 0 143 -128 300 -285 l285 -285 540 0 540 0
285 285 c157 157 292 285 300 285 8 0 143 -128 300 -285 l285 -285 1005 0
1005 0 285 285 c157 157 292 285 300 285 8 0 143 -128 300 -285 l285 -285 540
0 540 0 285 285 c157 157 292 285 300 285 8 0 143 -128 300 -285 l285 -285 75
0 75 0 285 285 c157 157 292 285 300 285 8 0 143 -128 300 -285 l285 -285 540
0 540 0 285 285 c157 157 290 285 296 285 6 0 141 -128 300 -285 l289 -285
508 0 507 0 0 500 c0 376 -3 500 -12 500 -16 0 -578 566 -578 582 0 17 561
578 578 578 9 0 12 117 12 545 0 431 -3 545 -13 545 -17 0 -577 562 -577 580
0 18 560 580 577 580 9 0 13 22 13 80 0 58 -4 80 -13 80 -17 0 -577 562 -577
580 0 18 560 580 577 580 10 0 13 114 13 545 0 431 -3 545 -13 545 -17 0 -577
562 -577 580 0 18 560 580 577 580 10 0 13 206 13 1009 0 959 -1 1010 -18
1015 -25 8 -572 559 -572 577 0 17 560 579 577 579 10 0 13 114 13 545 0 431
-3 545 -13 545 -17 0 -577 562 -577 580 0 18 560 580 577 580 9 0 13 22 13 80
0 58 -4 80 -13 80 -17 0 -577 562 -577 580 0 18 560 580 577 580 10 0 13 115
13 551 0 380 -3 548 -10 544 -14 -9 -580 554 -580 576 0 21 555 579 575 579
13 0 15 71 15 510 l0 510 -510 0 c-400 0 -510 -3 -510 -12 0 -18 -562 -578
-580 -578 -18 0 -580 560 -580 578 0 9 -117 12 -545 12 -431 0 -545 -3 -545
-13 0 -17 -562 -577 -580 -577 -18 0 -580 560 -580 577 0 9 -22 13 -80 13 -58
0 -80 -4 -80 -13 0 -17 -562 -577 -580 -577 -18 0 -580 560 -580 577 0 10
-114 13 -545 13 -431 0 -545 -3 -545 -13 0 -17 -562 -577 -580 -577 -14 0
-580 567 -580 582 0 4 -454 8 -1010 8 -799 0 -1010 -3 -1010 -12 0 -18 -562
-578 -580 -578 -18 0 -580 560 -580 578 0 9 -116 12 -545 12 -431 0 -545 -3
-545 -13 0 -18 -562 -577 -580 -577 -18 0 -580 560 -580 578 0 8 -23 12 -80
12 -57 0 -80 -4 -80 -12 0 -18 -562 -578 -580 -578 -18 0 -580 559 -580 577 0
10 -114 13 -545 13 -428 0 -545 -3 -545 -12 0 -16 -561 -578 -576 -578 -6 0
-69 59 -140 131 -210 213 -414 414 -424 417 -6 2 -10 12 -10 23 0 18 -14 19
-505 19 l-505 0 0 -509z m1175 189 c151 -151 275 -281 275 -287 0 -10 -88 -12
-392 -11 l-393 1 -272 273 c-252 252 -281 283 -269 295 2 2 178 4 390 4 l386
0 275 -275z m1857 248 c-2 -7 -123 -133 -270 -280 l-268 -268 -387 0 c-304 0
-387 3 -387 13 0 14 528 543 547 548 7 2 183 3 390 2 310 -1 377 -4 375 -15z
m3958 -253 c149 -149 270 -276 270 -282 0 -10 -83 -13 -388 -13 l-388 0 -267
268 c-312 312 -280 279 -274 289 3 4 179 8 391 8 l387 -1 269 -269z m1866 262
c4 -4 -116 -131 -267 -282 l-274 -275 -387 0 c-308 0 -388 3 -388 13 0 7 123
134 273 282 l272 270 382 0 c210 0 385 -4 389 -8z m1314 -263 c148 -148 270
-275 270 -282 0 -19 -731 -16 -775 3 -36 15 -550 529 -542 541 3 5 179 9 391
8 l385 -1 271 -269z m1868 262 c3 -4 -117 -130 -268 -281 l-275 -275 -387 0
c-305 0 -388 3 -388 13 0 14 528 543 548 548 22 7 763 1 770 -5z m3953 -262
c148 -148 269 -275 269 -281 0 -10 -83 -13 -388 -13 l-388 0 -272 272 c-150
150 -271 277 -268 283 2 7 134 10 391 9 l387 -1 269 -269z m1861 256 c-2 -8
-123 -135 -270 -282 l-268 -268 -387 0 c-307 0 -387 3 -387 13 0 7 123 134
273 282 l272 270 385 0 c337 0 385 -2 382 -15z m-14385 -302 c156 -156 283
-290 283 -298 0 -20 -561 -580 -581 -580 -19 0 -579 564 -579 582 0 18 562
578 580 578 8 0 142 -127 297 -282z m1320 0 c156 -156 283 -290 283 -298 0
-20 -560 -580 -580 -580 -20 0 -580 560 -580 580 0 20 560 580 580 580 8 0
142 -127 297 -282z m1320 0 c156 -156 283 -290 283 -298 0 -19 -561 -580 -581
-580 -19 0 -579 561 -579 580 0 19 560 580 580 580 8 0 142 -127 297 -282z
m6360 0 c156 -156 283 -290 283 -298 0 -19 -560 -580 -578 -580 -17 0 -582
566 -582 583 0 17 562 577 580 577 8 0 142 -127 297 -282z m1320 0 c156 -156
283 -290 283 -298 0 -20 -560 -580 -580 -580 -20 0 -580 560 -580 580 0 20
560 580 580 580 8 0 142 -127 297 -282z m1321 -1 c155 -156 282 -289 282 -297
0 -19 -561 -580 -580 -580 -20 0 -580 560 -580 580 0 20 560 580 580 580 8 0
142 -128 298 -283z m-14781 -39 l273 -273 0 -387 c0 -304 -3 -388 -12 -388 -7
0 -134 122 -282 270 l-269 269 -2 383 c-1 211 0 386 2 391 2 4 7 7 11 7 3 0
129 -123 279 -272z m8615 -122 l0 -389 -268 -268 c-148 -148 -275 -269 -281
-269 -10 0 -13 83 -13 388 l0 387 272 273 c150 149 277 271 282 269 4 -1 8
-178 8 -391z m384 122 l273 -271 1 -389 c0 -310 -2 -388 -12 -388 -7 0 -134
121 -282 269 l-268 269 0 388 c1 214 1 390 2 392 2 12 49 -33 286 -270z m8617
230 c2 -24 4 -199 3 -390 l-1 -348 -270 -270 c-149 -148 -276 -270 -282 -270
-10 0 -13 84 -13 388 l0 387 272 273 c150 149 275 272 279 272 4 0 9 -19 12
-42z m-16796 -544 c208 -3 381 -8 386 -11 4 -2 7 -183 7 -402 0 -295 -3 -400
-12 -409 -9 -9 -115 -12 -414 -12 -340 0 -403 2 -414 15 -9 11 -11 110 -8 408
3 424 5 435 54 423 12 -3 193 -9 401 -12z m1617 -260 c149 -152 273 -283 275
-291 3 -15 -36 -16 -390 -10 l-393 6 -273 273 c-150 151 -273 279 -273 286 0
9 91 12 391 12 l392 0 271 -276z m4496 259 c0 -10 -120 -137 -267 -283 l-268
-265 -379 -3 c-257 -2 -383 1 -390 8 -7 7 68 90 254 276 146 146 274 269 285
274 11 5 188 9 393 9 347 1 372 0 372 -16z m1012 0 c17 -15 18 -41 18 -408 0
-368 -1 -393 -18 -409 -17 -15 -57 -16 -413 -14 l-394 3 -3 400 c-1 220 0 410
3 423 l5 22 392 0 c350 0 393 -2 410 -17z m1906 6 c241 -2 335 -6 342 -14 7
-8 9 -163 8 -416 l-3 -404 -405 -3 c-372 -2 -406 -1 -417 15 -19 25 -19 796 0
811 11 9 120 21 137 15 3 -1 155 -3 338 -4z m1305 3 c26 -11 557 -543 551
-553 -3 -5 -179 -9 -392 -9 l-387 0 -268 268 c-147 147 -267 275 -267 285 0
16 25 17 373 16 204 0 380 -4 390 -7z m4777 -9 c0 -9 -122 -137 -271 -285
l-271 -268 -379 0 c-298 0 -381 3 -385 13 -5 13 513 537 544 549 9 4 185 7
390 7 341 1 372 0 372 -16z m1014 1 c14 -13 16 -64 16 -406 0 -350 -2 -393
-17 -410 -15 -17 -41 -18 -414 -18 l-398 0 -12 22 c-8 15 -10 60 -5 147 3 69
7 241 7 381 1 141 6 266 10 278 l8 22 395 0 c345 0 397 -2 410 -16z m-13147
-306 c156 -156 283 -290 283 -298 0 -18 -560 -580 -578 -580 -19 0 -582 561
-582 579 0 20 560 581 580 581 8 0 142 -127 297 -282z m1320 0 c156 -156 283
-290 283 -298 0 -19 -561 -580 -580 -580 -19 0 -580 561 -580 580 0 19 560
580 580 580 8 0 142 -127 297 -282z m7680 0 c156 -156 283 -290 283 -298 0
-18 -560 -580 -578 -580 -17 0 -582 565 -582 582 0 18 562 578 580 578 8 0
142 -127 297 -282z m1320 0 c156 -156 283 -290 283 -298 0 -19 -560 -580 -580
-580 -19 0 -580 561 -580 580 0 19 560 580 580 580 8 0 142 -127 297 -282z
m-7097 -165 l0 -386 -266 -264 c-146 -144 -269 -263 -274 -263 -17 0 -20 58
-20 410 l0 365 271 267 c149 147 275 265 280 262 5 -3 9 -177 9 -391z m9005
349 c-3 -8 -5 -176 -5 -375 l0 -360 -266 -264 c-147 -145 -270 -263 -274 -263
-4 0 -10 6 -13 13 -2 6 -5 180 -6 386 l-2 373 273 270 c247 244 273 268 285
251 8 -9 11 -24 8 -31z m-14683 29 c2 -5 117 -125 256 -266 l252 -256 0 -389
c0 -215 -3 -390 -8 -390 -4 0 -128 121 -275 268 l-267 268 0 387 c0 375 1 387
19 387 11 0 21 -4 23 -9z m9245 -256 l263 -266 0 -389 c0 -215 -3 -390 -8
-390 -4 0 -127 120 -274 268 l-266 267 -6 378 c-4 208 -4 382 -1 387 4 6 11
10 18 10 6 0 130 -119 274 -265z m-1632 -228 c157 -156 285 -290 285 -298 0
-19 -561 -579 -580 -579 -20 0 -580 560 -580 580 0 18 559 579 578 580 7 0
141 -127 297 -283z m-6177 -82 c9 -4 12 -96 12 -419 0 -368 -2 -415 -16 -420
-9 -3 -193 -6 -409 -6 -344 0 -396 2 -409 16 -14 13 -16 65 -16 414 0 335 2
401 15 413 12 12 73 14 412 10 219 -2 404 -6 411 -8z m3579 3 c11 -18 5 -809
-6 -822 -10 -12 -800 -14 -820 -2 -16 10 -16 807 1 824 18 18 814 17 825 0z
m5427 -10 c14 -19 16 -75 16 -410 0 -338 -2 -389 -16 -402 -13 -14 -65 -16
-414 -16 -385 0 -400 1 -410 19 -6 13 -10 159 -10 406 0 247 4 393 10 406 10
18 25 19 410 19 l399 0 15 -22z m3572 11 c12 -20 10 -800 -2 -817 -16 -21
-777 -27 -811 -6 l-23 14 0 395 c0 344 2 396 16 409 13 14 65 16 414 16 288 0
401 -3 406 -11z m-12184 -343 c144 -142 268 -268 275 -280 18 -31 18 -786 1
-786 -7 0 -138 125 -290 278 l-278 277 0 388 c0 329 2 388 14 385 8 -2 133
-119 278 -262z m941 -132 l-3 -389 -267 -267 c-147 -148 -274 -268 -280 -268
-10 0 -13 83 -13 387 l0 387 263 265 c288 292 278 282 292 278 6 -3 9 -142 8
-393z m385 124 l272 -272 0 -388 c0 -305 -3 -388 -13 -388 -6 0 -133 121 -281
269 l-268 269 -2 387 c-1 212 1 388 3 391 2 2 7 4 11 4 3 0 129 -122 278 -272z
m7676 4 c147 -148 272 -275 277 -283 5 -8 9 -184 9 -391 0 -353 -1 -378 -17
-378 -10 0 -138 120 -285 267 l-268 268 0 386 c0 328 3 399 15 399 1 0 122
-121 269 -268z m940 -126 l0 -387 -269 -269 c-149 -149 -276 -270 -282 -270
-10 0 -13 83 -13 388 l0 387 272 273 c150 150 277 271 282 269 7 -2 10 -144
10 -391z m384 122 l272 -273 0 -387 c0 -305 -3 -388 -13 -388 -6 0 -132 120
-280 268 l-267 267 -1 385 c0 445 -1 400 9 400 5 0 131 -123 280 -272z m932
240 c1 -18 0 -195 0 -393 l0 -360 -268 -267 c-147 -148 -275 -268 -285 -268
-16 0 -17 27 -16 373 0 204 3 380 7 389 8 20 542 558 554 558 4 0 8 -15 8 -32z
m-9002 -368 l2 -384 -257 -259 c-142 -142 -270 -265 -285 -273 l-28 -14 3 390
2 390 265 268 c146 148 272 269 280 268 13 -1 15 -52 18 -386z m-3926 -57
c147 -147 268 -271 268 -275 0 -5 -175 -8 -389 -8 l-388 0 -268 263 c-164 162
-265 268 -261 275 5 9 112 12 389 12 l381 0 268 -267z m6362 259 c3 -5 -115
-131 -262 -280 l-267 -273 -374 1 c-362 2 -401 4 -401 20 0 4 118 127 263 274
l263 266 386 0 c213 0 389 -4 392 -8z m2638 -259 c147 -147 268 -271 268 -275
0 -5 -175 -8 -389 -8 l-388 0 -268 263 c-166 164 -265 268 -261 275 5 9 110
12 389 12 l381 0 268 -267z m6358 255 c0 -7 -119 -134 -263 -281 l-264 -268
-373 1 c-205 1 -379 4 -386 7 -8 3 -14 9 -14 13 0 4 118 127 263 274 l263 266
387 0 c303 0 387 -3 387 -12z m-16203 -340 l273 -273 0 -387 c0 -213 -4 -389
-9 -392 -10 -6 -542 524 -552 551 -4 10 -8 188 -8 396 -1 288 2 377 11 377 7
0 135 -123 285 -272z m16295 -497 c-11 -32 -544 -563 -554 -553 -5 5 -7 182
-6 393 l3 384 265 266 c146 147 272 269 280 271 13 4 15 -42 18 -367 1 -205
-1 -382 -6 -394z m-16682 372 l0 -387 -262 -265 c-145 -146 -267 -269 -273
-273 -27 -20 -30 20 -29 392 l1 382 269 269 c148 148 275 269 281 269 10 0 13
-83 13 -387z m7690 18 c0 -203 -4 -380 -9 -393 -14 -38 -543 -560 -553 -546
-4 7 -8 180 -8 384 0 369 0 370 23 400 48 64 513 524 530 524 16 0 17 -26 17
-369z m383 101 l269 -269 0 -389 c1 -293 -2 -389 -11 -389 -6 0 -133 122 -281
270 l-270 270 0 388 c0 304 3 387 13 387 6 0 133 -121 280 -268z m927 -119 l0
-388 -270 -270 c-148 -148 -274 -271 -280 -273 -12 -4 -11 -34 -12 412 l0 369
268 268 c148 148 275 269 281 269 10 0 13 -83 13 -387z m392 120 l268 -268 0
-387 c0 -213 -4 -389 -8 -392 -12 -7 -542 523 -553 553 -5 13 -9 190 -9 392 1
338 3 369 18 369 9 0 137 -120 284 -267z m7682 -2 l269 -269 1 -387 c1 -279
-1 -388 -9 -392 -7 -2 -134 119 -283 269 l-272 273 0 387 c0 305 3 388 13 388
6 0 133 -121 281 -269z m-15484 -291 c13 -8 15 -64 12 -417 -3 -368 -5 -409
-20 -421 -14 -11 -93 -12 -407 -7 -214 4 -396 8 -403 11 -10 3 -12 91 -10 416
l3 413 355 5 c195 3 378 6 405 8 28 1 57 -3 65 -8z m5430 -15 c6 -4 10 -148
10 -410 0 -389 -1 -405 -19 -415 -28 -14 -807 -14 -816 1 -12 19 -10 806 2
821 9 10 91 13 412 11 220 -1 405 -4 411 -8z m3570 -4 c15 -30 14 -803 -2
-819 -9 -9 -113 -12 -407 -12 -353 0 -396 2 -413 17 -17 15 -18 41 -18 405 0
249 4 396 10 409 10 18 26 19 415 19 389 0 405 -1 415 -19z m5430 4 c7 -4 10
-140 10 -410 0 -389 -1 -405 -19 -415 -13 -6 -160 -10 -409 -10 -358 0 -390 1
-404 18 -14 15 -16 67 -13 409 2 296 5 396 15 408 10 13 65 14 411 11 219 -3
403 -7 409 -11z m-10030 -5 c12 -8 -42 -66 -255 -280 l-271 -270 -387 0 c-393
0 -405 1 -379 35 4 6 125 126 268 268 l260 257 375 0 c215 -1 381 -5 389 -10z
m9003 -2 c8 -5 -75 -94 -258 -278 l-271 -270 -387 0 c-320 0 -387 2 -387 14 0
11 498 515 532 538 16 11 754 7 771 -4z m-12169 -260 c146 -144 266 -267 266
-275 0 -11 -72 -13 -387 -13 l-388 0 -266 267 c-147 147 -265 271 -263 275 3
5 178 8 388 8 l383 0 267 -262z m9000 0 c146 -145 266 -269 266 -275 0 -10
-84 -13 -387 -13 l-387 0 -268 267 c-147 146 -265 270 -262 275 3 4 178 8 388
8 l383 0 267 -262z m-7637 -40 c156 -156 283 -290 283 -298 0 -19 -560 -580
-580 -580 -19 0 -580 561 -580 580 0 19 560 580 580 580 8 0 142 -127 297
-282z m9000 0 c156 -156 283 -290 283 -298 0 -20 -560 -580 -580 -580 -19 0
-580 560 -580 580 0 19 560 580 580 580 8 0 142 -127 297 -282z m-10937 -700
c0 -320 -2 -388 -14 -388 -7 0 -131 119 -275 265 l-261 265 0 389 c0 213 3
390 6 393 3 4 127 -116 275 -265 l269 -272 0 -387z m3833 865 c3 -32 5 -208 4
-390 l-2 -333 -273 -270 c-150 -148 -278 -270 -284 -270 -6 0 -8 10 -4 23 3
12 6 188 6 391 l0 370 263 266 c144 147 267 268 273 269 7 0 13 -23 17 -56z
m4905 -213 l262 -266 0 -387 c0 -318 -2 -387 -13 -387 -8 0 -132 119 -275 265
l-262 266 0 389 c0 306 3 390 13 389 6 -1 130 -122 275 -269z m4095 208 c4
-35 7 -209 7 -388 l0 -324 -270 -269 c-277 -275 -311 -301 -296 -224 4 17 7
189 6 381 l0 350 222 224 c123 123 241 243 263 266 22 24 45 44 51 45 7 0 14
-25 17 -61z m-14738 -433 c157 -156 285 -290 285 -297 0 -8 -131 -144 -290
-303 l-290 -290 -290 290 c-160 160 -290 297 -290 305 0 18 560 580 578 580 7
0 141 -128 297 -285z m7682 3 c156 -156 283 -290 283 -298 0 -20 -560 -580
-580 -580 -19 0 -580 560 -580 580 0 19 560 580 580 580 8 0 141 -127 297
-282z m1318 -2 c157 -157 285 -291 285 -298 0 -18 -562 -578 -580 -578 -20 0
-580 560 -580 580 0 18 560 580 578 580 7 0 141 -128 297 -284z m7682 2 c156
-156 283 -290 283 -298 0 -8 -130 -145 -290 -305 l-290 -290 -290 290 c-159
159 -290 296 -290 304 0 20 560 581 579 581 8 0 142 -127 298 -282z m-13853
-84 c14 -13 16 -65 16 -409 0 -373 -1 -395 -19 -407 -15 -10 -99 -12 -417 -8
l-399 5 -7 55 c-3 30 -6 213 -7 406 -1 260 2 353 11 362 9 9 114 12 409 12
348 0 400 -2 413 -16z m2251 6 c11 -17 6 -811 -5 -825 -15 -19 -782 -21 -798
-3 -12 15 -19 808 -7 828 8 13 801 14 810 0z m6749 -6 c14 -13 16 -64 16 -408
0 -313 -3 -396 -13 -404 -9 -8 -137 -12 -403 -12 -214 0 -395 -1 -401 0 -10 0
-13 90 -13 413 0 228 3 417 7 420 3 4 183 7 399 7 344 0 395 -2 408 -16z
m2250 0 c3 -9 6 -195 6 -414 0 -369 -1 -398 -17 -406 -10 -4 -192 -9 -404 -12
-342 -3 -387 -2 -392 12 -8 21 -10 813 -2 826 4 7 139 10 405 10 354 0 399 -2
404 -16z m-10851 -352 l267 -268 2 -389 c1 -334 0 -390 -13 -387 -8 2 -134
123 -281 270 l-268 267 0 315 c-1 483 -1 460 13 460 6 0 133 -120 280 -268z
m927 -119 l0 -388 -274 -274 c-151 -150 -278 -271 -282 -268 -5 3 -9 179 -8
392 l1 387 269 269 c148 148 275 269 281 269 10 0 13 -83 13 -387z m8074 118
l269 -270 2 -386 c0 -218 -3 -389 -8 -392 -5 -3 -133 118 -283 268 l-274 274
0 387 c0 305 3 388 13 388 6 0 133 -121 281 -269z m926 197 c0 -40 0 -215 0
-388 l0 -315 -268 -267 c-147 -148 -273 -268 -279 -268 -15 0 -14 -26 -15 419
l-1 353 269 269 c148 148 275 269 281 269 9 0 13 -21 13 -72z m2438 -113 c9
-7 -38 -56 -280 -295 l-268 -265 -390 -3 c-306 -2 -390 0 -390 10 0 7 122 135
272 285 l272 273 356 2 c312 3 418 1 428 -7z m-14046 -262 c148 -148 268 -276
268 -285 0 -17 -24 -18 -369 -18 -203 0 -380 4 -393 9 -29 11 -559 541 -552
553 3 4 179 8 392 8 l387 0 267 -267z m5036 250 c0 -10 -122 -137 -270 -283
l-268 -265 -391 -2 c-266 -1 -389 1 -387 8 2 6 125 134 273 285 l270 274 387
0 c363 0 388 -1 386 -17z m3964 -250 c148 -148 268 -276 268 -285 0 -16 -26
-17 -377 -18 -218 0 -384 4 -393 10 -32 20 -549 544 -544 552 3 4 179 8 392 8
l387 0 267 -267z m-9887 -48 c157 -157 285 -291 285 -298 0 -18 -562 -577
-580 -577 -20 0 -580 560 -580 580 0 18 560 580 577 580 7 0 141 -128 298
-285z m6362 3 c156 -156 283 -290 283 -298 0 -20 -560 -580 -580 -580 -19 0
-580 561 -580 580 0 19 561 580 580 580 8 0 142 -127 297 -282z m1320 0 c156
-156 283 -290 283 -298 0 -20 -560 -580 -580 -580 -20 0 -580 560 -580 580 0
20 560 580 580 580 8 0 142 -127 297 -282z m1317 -2 c158 -156 286 -290 286
-297 0 -19 -561 -579 -580 -579 -20 0 -580 560 -580 580 0 18 559 580 577 580
7 0 140 -128 297 -284z m6363 2 c156 -156 283 -290 283 -298 0 -20 -560 -580
-580 -580 -20 0 -580 561 -580 580 0 20 561 580 580 580 8 0 142 -127 297
-282z m-5566 -348 c282 0 359 -3 359 -13 0 -6 -121 -133 -270 -282 l-269 -269
-386 -2 c-235 0 -388 3 -392 9 -6 11 522 544 552 557 11 5 26 7 33 4 8 -2 175
-4 373 -4z m-8641 -13 c0 -6 -122 -134 -270 -282 l-270 -270 -385 -1 c-248 -1
-388 2 -392 9 -3 5 118 133 268 283 l275 274 387 0 c304 0 387 -3 387 -13z
m1329 -261 c150 -150 271 -278 268 -283 -3 -5 -168 -9 -391 -9 l-386 1 -270
270 c-148 148 -270 276 -270 282 0 10 83 13 388 13 l387 0 274 -274z m1851
262 c0 -6 -120 -131 -266 -277 l-265 -266 -157 -5 c-294 -11 -627 -6 -627 8 0
7 122 134 270 282 l270 270 388 -1 c269 0 387 -4 387 -11z m1325 -258 c149
-148 270 -275 270 -282 0 -10 -78 -13 -387 -13 l-388 0 -270 270 c-148 148
-270 276 -270 282 0 10 83 13 388 13 l388 0 269 -270z m5825 -5 c151 -151 271
-278 267 -282 -5 -4 -181 -7 -392 -8 l-385 0 -266 265 c-146 146 -270 273
-275 283 -9 16 12 17 383 17 l393 0 275 -275z m1837 258 c4 -9 -89 -109 -259
-279 l-265 -265 -392 -2 c-316 -2 -391 0 -389 11 2 7 124 134 273 282 l270
270 378 -1 c317 -2 380 -4 384 -16z m1341 -255 c150 -149 271 -277 269 -283
-3 -7 -123 -10 -391 -10 l-386 0 -270 270 c-148 148 -270 276 -270 282 0 10
83 13 388 13 l387 0 273 -272z m-15320 -41 c155 -155 282 -289 282 -297 0 -20
-561 -580 -580 -580 -20 0 -580 560 -580 580 0 20 560 580 580 580 8 0 142
-127 298 -283z m2248 1 c156 -156 284 -290 284 -298 0 -20 -560 -580 -580
-580 -20 0 -580 560 -580 580 0 19 560 580 579 580 7 0 141 -127 297 -282z
m3181 0 c156 -156 283 -290 283 -298 0 -19 -560 -580 -580 -580 -19 0 -580
561 -580 580 0 19 562 580 581 580 8 0 141 -127 296 -282z m2250 0 c156 -156
283 -290 283 -298 0 -20 -560 -580 -580 -580 -20 0 -580 560 -580 580 0 20
560 580 580 580 8 0 142 -127 297 -282z m1320 0 c156 -156 283 -290 283 -298
0 -20 -560 -580 -580 -580 -20 0 -580 560 -580 580 0 20 560 580 580 580 8 0
142 -127 297 -282z m2250 0 c155 -156 283 -290 283 -298 0 -20 -560 -580 -580
-580 -20 0 -580 560 -580 580 0 19 560 580 579 580 8 0 142 -127 298 -282z
m3180 0 c156 -156 283 -290 283 -298 0 -19 -560 -580 -580 -580 -19 0 -580
561 -580 580 0 19 560 580 580 580 8 0 142 -127 297 -282z m2250 0 c156 -156
283 -290 283 -298 0 -20 -560 -580 -580 -580 -20 0 -580 560 -580 580 0 20
560 580 580 580 8 0 142 -127 297 -282z m-15137 -613 c148 -148 270 -276 270
-282 0 -10 -83 -13 -388 -13 l-389 0 -272 272 c-149 149 -270 276 -268 282 3
8 120 11 391 11 l386 0 270 -270z m1867 261 c4 -3 -117 -130 -267 -281 l-275
-275 -387 0 c-305 0 -388 3 -388 13 0 14 528 543 548 549 24 7 762 1 769 -6z
m1315 -263 c147 -147 268 -274 268 -280 0 -10 -83 -13 -387 -13 l-388 0 -274
274 c-150 151 -271 278 -268 283 3 4 180 7 393 6 l388 -2 268 -268z m1866 263
c3 -4 -117 -130 -268 -281 l-275 -275 -387 0 c-305 0 -388 3 -388 13 0 6 120
132 268 279 252 252 269 267 307 270 77 6 736 0 743 -6z m3952 -261 c149 -149
270 -276 270 -282 0 -10 -83 -13 -388 -13 l-387 0 -273 272 c-150 149 -271
277 -269 282 3 8 128 11 391 11 l386 -1 270 -269z m1862 255 c-2 -8 -123 -135
-270 -282 l-268 -268 -387 0 c-304 0 -387 3 -387 13 0 14 528 543 548 548 6 2
182 4 390 4 328 0 377 -2 374 -15z m1319 -256 c148 -148 269 -276 269 -284 0
-13 -48 -15 -388 -12 l-388 2 -273 275 c-150 151 -270 278 -268 282 3 5 179 8
392 7 l386 0 270 -270z m1866 263 c4 -4 -116 -131 -267 -282 l-275 -275 -387
0 c-305 0 -388 3 -388 13 0 15 528 543 550 549 25 8 759 2 767 -5z m-14929
-310 c155 -155 282 -289 282 -297 0 -20 -561 -580 -580 -580 -20 0 -580 561
-580 580 0 20 560 580 580 580 8 0 142 -127 298 -283z m6359 1 c156 -156 283
-290 283 -298 0 -18 -560 -580 -578 -580 -17 0 -582 565 -582 582 0 18 562
578 580 578 8 0 142 -127 297 -282z m1320 0 c156 -156 283 -290 283 -298 0
-20 -560 -580 -580 -580 -20 0 -580 560 -580 580 0 20 560 580 580 580 8 0
142 -127 297 -282z m1321 -1 c155 -156 282 -290 282 -298 0 -19 -561 -579
-580 -579 -20 0 -580 560 -580 580 0 20 560 580 580 580 8 0 142 -127 298
-283z m6359 1 c156 -156 283 -290 283 -298 0 -19 -560 -580 -578 -580 -17 0
-582 566 -582 583 0 17 562 577 580 577 8 0 142 -127 297 -282z m-12524 -162
l0 -388 -269 -269 c-148 -148 -275 -269 -281 -269 -10 0 -13 83 -13 388 l0
387 272 273 c150 150 277 271 282 269 7 -2 10 -147 9 -391z m9000 -1 l-2 -389
-268 -268 c-147 -147 -274 -268 -280 -268 -10 0 -13 83 -13 388 l0 387 272
273 c150 150 277 271 282 269 7 -2 10 -141 9 -392z m-8610 117 l267 -268 0
-387 c0 -304 -3 -387 -13 -387 -6 0 -133 121 -281 269 l-269 269 -1 382 c-1
210 1 383 3 386 13 13 50 -19 294 -264z m8990 11 c142 -142 264 -270 270 -284
17 -38 11 -769 -6 -769 -7 0 -134 121 -282 270 l-270 270 0 372 c0 205 1 379
3 386 2 6 9 12 15 12 6 0 127 -116 270 -257z m-11063 -320 c0 -22 -525 -541
-554 -548 -11 -3 -185 -4 -386 -3 -316 3 -365 5 -366 18 -1 8 121 135 270 283
l272 267 382 0 c356 0 382 -1 382 -17z m1011 1 c18 -16 19 -40 19 -407 0 -349
-2 -392 -17 -409 -15 -17 -41 -18 -413 -18 -295 0 -399 3 -408 12 -9 9 -12
114 -12 409 0 340 2 400 15 413 13 12 73 15 406 16 354 0 394 -1 410 -16z
m3212 8 c26 -11 557 -544 551 -553 -3 -5 -179 -9 -392 -9 l-387 0 -268 268
c-147 147 -267 275 -267 284 0 16 28 17 373 17 204 0 380 -3 390 -7z m4777 -9
c0 -9 -122 -138 -271 -285 l-271 -268 -379 0 c-298 0 -381 3 -385 13 -6 16
518 539 549 549 12 3 187 6 390 7 339 1 367 0 367 -16z m1014 1 c14 -13 16
-64 16 -408 0 -367 -1 -394 -18 -409 -16 -15 -59 -16 -413 -14 l-394 2 -3 410
c-1 225 0 416 3 422 3 10 92 13 399 13 345 0 397 -2 410 -16z m3215 7 c34 -21
550 -545 545 -552 -3 -5 -179 -9 -392 -9 l-387 0 -268 268 c-147 147 -267 275
-267 285 0 16 25 17 378 17 207 0 383 -4 391 -9z m-9961 -415 c2 -288 -1 -402
-9 -412 -10 -12 -82 -14 -405 -14 -249 1 -396 5 -400 11 -7 12 -5 799 2 811 3
4 186 7 407 6 l402 -3 3 -399z m9000 0 c1 -286 -1 -403 -9 -412 -9 -11 -84
-14 -405 -14 -262 0 -395 3 -399 10 -8 13 -7 799 1 812 3 4 186 7 407 6 l402
-3 3 -399z m-14081 102 c156 -156 283 -290 283 -298 0 -19 -561 -580 -580
-580 -19 0 -580 561 -580 580 0 19 560 580 580 580 8 0 142 -127 297 -282z
m7680 0 c156 -156 283 -290 283 -298 0 -18 -560 -580 -577 -580 -17 0 -583
566 -583 582 0 18 562 578 580 578 8 0 142 -127 297 -282z m1320 0 c156 -156
283 -290 283 -298 0 -20 -560 -580 -580 -580 -19 0 -580 561 -580 580 0 20
561 580 580 580 8 0 142 -127 297 -282z m7680 0 c156 -156 283 -290 283 -298
0 -19 -560 -580 -578 -580 -17 0 -582 565 -582 582 0 18 562 578 580 578 8 0
142 -127 297 -282z m-5777 -175 l-5 -381 -264 -261 c-145 -144 -267 -261 -271
-261 -17 0 -19 44 -20 402 l0 373 272 268 c215 211 275 265 283 254 7 -9 8
-143 5 -394z m-9000 10 l0 -386 -266 -264 c-147 -144 -270 -263 -274 -263 -17
0 -19 42 -20 400 l-1 372 263 263 c145 145 271 264 281 264 16 1 17 -24 17
-386z m3567 121 l263 -267 0 -388 c0 -214 -3 -389 -8 -389 -4 0 -128 121 -275
268 l-267 268 -1 214 c-1 118 -3 278 -5 355 -5 151 0 205 19 205 6 0 130 -120
274 -266z m9000 0 l263 -267 0 -388 c0 -214 -3 -389 -8 -389 -4 0 -127 120
-274 268 l-266 267 -6 378 c-4 208 -4 382 -1 388 4 5 11 9 18 9 6 0 129 -120
274 -266z m-10629 -227 c155 -155 282 -289 282 -297 0 -20 -561 -580 -580
-580 -20 0 -580 560 -580 580 0 20 560 580 580 580 8 0 142 -127 298 -283z
m9000 0 c155 -156 282 -289 282 -298 0 -19 -561 -579 -580 -579 -20 0 -580
560 -580 580 0 20 560 580 580 580 8 0 142 -127 298 -283z m-11602 -78 c11
-18 6 -809 -5 -823 -11 -13 -798 -15 -819 -2 -17 10 -17 807 0 824 17 17 814
17 824 1z m5426 -6 c17 -15 18 -41 18 -405 0 -249 -4 -396 -10 -409 -10 -18
-25 -19 -413 -19 -300 0 -406 3 -415 12 -17 17 -17 809 0 826 9 9 113 12 407
12 353 0 396 -2 413 -17z m3574 6 c3 -6 7 -190 7 -410 1 -294 -2 -402 -11
-411 -14 -14 -771 -20 -809 -6 l-23 8 0 403 c0 300 3 406 12 415 16 16 813 17
824 1z m5426 -6 c17 -15 18 -41 18 -405 0 -249 -4 -396 -10 -409 -10 -18 -26
-19 -415 -19 -389 0 -405 1 -415 19 -6 13 -10 159 -10 406 0 247 4 393 10 406
10 18 25 19 407 19 355 0 398 -2 415 -17z m-16283 -345 l271 -273 0 -387 c0
-305 -3 -388 -13 -388 -6 0 -133 121 -281 269 l-269 269 -2 391 c-1 302 1 391
11 391 6 0 134 -123 283 -272z m7677 2 c148 -148 272 -278 276 -287 12 -31 9
-761 -3 -769 -6 -3 -128 111 -285 267 l-274 274 0 386 c0 333 3 399 16 399 1
0 123 -121 270 -270z m935 263 c0 -5 1 -181 1 -391 l1 -384 -269 -269 c-148
-148 -275 -269 -281 -269 -10 0 -13 83 -13 387 l0 388 272 272 c150 150 276
273 280 273 5 0 8 -3 9 -7z m388 -265 l271 -273 0 -387 c0 -305 -3 -388 -13
-388 -6 0 -133 121 -280 268 l-268 268 0 380 c-1 438 -1 404 10 404 4 0 130
-123 280 -272z m7675 5 c148 -148 272 -279 277 -292 6 -13 9 -188 9 -392 -1
-341 -3 -369 -18 -369 -10 0 -138 121 -285 268 l-267 268 0 385 c0 329 3 399
15 399 1 0 122 -120 269 -267z m940 -128 l-2 -388 -268 -268 c-148 -148 -275
-269 -281 -269 -10 0 -13 83 -13 387 l0 388 272 272 c150 150 277 272 283 270
6 -2 9 -139 9 -392z m-16686 -5 l2 -385 -267 -267 c-146 -146 -275 -269 -285
-271 -18 -5 -19 8 -16 384 l3 389 265 268 c146 148 272 269 280 268 13 -1 15
-52 18 -386z m9000 0 l2 -385 -267 -267 c-146 -146 -275 -269 -285 -271 -18
-5 -19 8 -16 384 l3 389 265 268 c146 148 272 269 280 268 13 -1 15 -52 18
-386z m-6568 197 c0 -7 -118 -133 -262 -280 l-263 -267 -372 0 c-355 0 -403 2
-403 20 0 4 119 128 264 274 l264 266 386 0 c308 0 386 -3 386 -13z m2642
-254 c147 -147 268 -271 268 -275 0 -5 -176 -8 -390 -8 l-390 0 -265 262
c-146 143 -265 267 -265 275 0 11 69 13 387 13 l387 0 268 -267z m6358 255 c0
-7 -118 -133 -263 -281 l-262 -267 -372 0 c-354 0 -403 2 -403 20 0 4 118 127
263 274 l262 266 388 0 c303 0 387 -3 387 -12z m2642 -255 c147 -147 268 -271
268 -275 0 -5 -176 -8 -390 -8 l-391 0 -264 262 c-146 143 -265 267 -265 275
0 11 70 13 387 13 l387 0 268 -267z m-11543 -190 c0 -208 -4 -386 -8 -397 -12
-30 -535 -547 -548 -541 -10 3 -13 88 -13 378 0 371 0 373 23 403 38 50 523
534 535 534 9 0 12 -94 11 -377z m1714 90 l257 -259 0 -386 c0 -213 -4 -389
-8 -392 -10 -6 -543 523 -553 550 -4 10 -8 189 -8 397 l-1 378 28 -15 c15 -8
143 -131 285 -273z m7279 -483 c-14 -36 -540 -558 -552 -546 -6 6 -10 146 -10
382 0 355 1 372 20 396 36 46 505 515 525 526 20 10 20 7 23 -363 1 -205 -1
-383 -6 -395z m-8608 491 l269 -269 1 -389 c0 -295 -3 -388 -12 -388 -7 0
-134 121 -282 269 l-270 269 0 389 c0 305 3 388 13 388 6 0 133 -121 281 -269z
m926 -118 l0 -387 -272 -273 c-150 -150 -277 -272 -283 -270 -6 2 -9 144 -9
390 l0 388 269 269 c149 149 276 270 282 270 10 0 13 -83 13 -387z m8075 117
l270 -270 -1 -388 c-1 -283 -5 -387 -13 -387 -6 0 -133 121 -281 269 l-270
269 0 388 c0 306 3 389 13 389 6 0 134 -122 282 -270z m925 -118 l0 -387 -274
-274 c-150 -150 -278 -271 -282 -268 -5 3 -8 179 -8 392 l1 387 269 269 c148
148 275 269 281 269 10 0 13 -83 13 -388z m392 121 l268 -268 0 -387 c0 -213
-4 -389 -9 -392 -11 -7 -541 522 -552 552 -5 13 -9 190 -9 393 0 344 1 369 17
369 10 0 138 -120 285 -267z m-11379 -307 c16 -4 17 -32 17 -410 0 -390 -1
-406 -19 -416 -29 -15 -807 -14 -817 1 -4 7 -8 190 -9 408 -2 315 0 399 10
411 12 13 68 15 407 13 216 -2 401 -5 411 -7z m3575 2 c17 -17 17 -809 0 -826
-9 -9 -113 -12 -407 -12 -353 0 -396 2 -413 17 -17 15 -18 41 -18 409 0 344 2
395 16 408 13 14 65 16 413 16 295 0 400 -3 409 -12z m5425 -2 c16 -4 17 -32
17 -410 0 -390 -1 -406 -19 -416 -26 -14 -807 -14 -816 0 -3 6 -7 191 -7 412
-1 345 1 403 14 412 14 11 767 12 811 2z m3577 -5 c6 -13 10 -159 10 -406 0
-247 -4 -393 -10 -406 -10 -18 -25 -19 -409 -19 -369 0 -399 1 -414 18 -14 16
-16 64 -17 409 0 345 1 393 16 407 14 14 63 16 414 16 385 0 400 -1 410 -19z
m-13594 -4 c5 -4 -113 -129 -262 -277 l-270 -270 -387 0 c-307 0 -387 3 -387
13 0 7 121 133 268 280 l269 268 381 -3 c209 -2 384 -7 388 -11z m9000 0 c5
-4 -112 -128 -259 -275 l-267 -267 -390 -3 c-319 -3 -390 -1 -390 10 0 8 121
134 269 282 l268 268 381 -4 c209 -2 384 -7 388 -11z m-3172 -259 c146 -145
266 -268 266 -274 0 -7 -10 -14 -22 -18 -13 -3 -187 -3 -388 0 l-365 7 -267
266 c-148 146 -268 269 -268 273 0 5 175 8 389 8 l389 0 266 -262z m9000 0
c146 -145 266 -270 266 -278 0 -17 -31 -17 -530 -12 l-244 2 -268 267 c-147
147 -268 271 -268 275 0 5 175 8 389 8 l389 0 266 -262z m-7637 -40 c156 -156
283 -290 283 -298 0 -20 -560 -580 -580 -580 -19 0 -580 561 -580 580 0 20
561 580 580 580 8 0 142 -127 297 -282z m-7105 205 c2 -10 4 -185 4 -390 l-1
-372 -265 -266 c-161 -162 -272 -265 -284 -265 -18 0 -18 6 -12 123 3 67 7
241 7 385 l1 264 257 260 c141 143 258 264 259 269 6 16 29 10 34 -8z m4906
-253 l262 -266 0 -387 c0 -318 -2 -387 -13 -387 -8 0 -132 119 -275 265 l-262
265 0 390 c0 306 3 390 13 389 6 -1 130 -122 275 -269z m4095 228 c3 -24 6
-198 7 -387 l1 -344 -268 -268 c-164 -165 -275 -269 -287 -269 -18 0 -18 6
-12 103 3 56 7 230 8 386 l2 284 258 261 c142 144 258 264 258 269 0 4 6 7 14
7 9 0 16 -16 19 -42z m4905 -228 l262 -266 0 -387 c0 -319 -2 -387 -14 -387
-7 0 -131 119 -275 265 l-261 266 0 389 c0 306 3 390 13 389 6 -1 130 -122
275 -269z m-11961 -222 c156 -156 283 -290 283 -298 0 -20 -560 -580 -580
-580 -19 0 -580 560 -580 580 0 18 561 580 580 580 8 0 141 -127 297 -282z
m1320 -4 c155 -157 283 -290 283 -297 0 -18 -562 -577 -580 -577 -20 0 -580
560 -580 580 0 19 560 580 579 580 8 0 142 -128 298 -286z m7680 4 c156 -156
283 -290 283 -298 0 -20 -560 -580 -580 -580 -20 0 -580 560 -580 580 0 20
560 580 580 580 8 0 142 -127 297 -282z m1319 -3 c156 -157 284 -291 284 -298
0 -18 -562 -577 -580 -577 -20 0 -580 560 -580 580 0 18 560 580 578 580 7 0
141 -128 298 -285z m-12924 -93 c5 -5 8 -185 9 -400 1 -305 -2 -396 -12 -408
-11 -14 -61 -15 -405 -12 -305 4 -396 7 -409 18 -14 11 -15 59 -15 407 1 377
2 394 20 401 26 10 802 4 812 -6z m6749 8 c18 -10 19 -25 19 -404 0 -312 -3
-396 -13 -404 -16 -14 -795 -18 -808 -5 -5 5 -8 183 -7 409 l3 399 385 5 c212
3 389 6 393 8 5 1 17 -3 28 -8z m2252 -9 c14 -14 9 -792 -5 -809 -10 -11 -70
-13 -347 -11 -185 1 -364 4 -399 7 -59 4 -62 6 -70 34 -4 16 -9 198 -10 404
-4 368 -3 374 17 382 27 10 803 4 814 -7z m6765 -393 c2 -319 0 -398 -11 -406
-14 -12 -803 -19 -814 -8 -7 7 -23 799 -16 806 7 7 795 16 818 9 20 -6 20 -16
23 -401z m-16688 -64 l0 -386 -271 -269 c-149 -148 -275 -269 -280 -269 -11 0
-11 6 -12 438 l-1 333 269 269 c149 149 276 270 282 270 10 0 13 -83 13 -386z
m8074 117 l268 -268 1 -389 c0 -221 -4 -389 -9 -391 -5 -1 -130 119 -279 267
l-270 270 -5 380 c-3 209 -3 385 -2 390 2 6 9 10 15 10 7 0 133 -121 281 -269z
m926 -107 c0 -262 -3 -382 -11 -397 -21 -40 -521 -528 -535 -523 -16 6 -17 35
-16 476 l1 284 268 268 c147 147 274 268 280 268 10 0 13 -81 13 -376z m8075
106 l270 -270 -2 -267 c-1 -148 -2 -319 -2 -380 -1 -97 -3 -113 -17 -113 -9 0
-135 118 -280 262 l-264 262 0 388 c0 305 3 388 13 388 6 0 134 -121 282 -270z
m-14641 82 c7 -11 17 -1 -280 -295 l-270 -267 -387 0 c-292 1 -387 4 -387 13
0 6 123 134 273 284 l272 273 387 0 c213 0 389 -4 392 -8z m3958 -259 c148
-148 268 -276 268 -285 0 -17 -24 -18 -377 -18 -217 0 -384 4 -393 10 -33 20
-549 544 -544 552 3 4 179 8 392 8 l387 0 267 -267z m5043 252 c-1 -5 -123
-131 -273 -280 l-272 -270 -390 -3 c-306 -2 -390 0 -390 10 0 7 123 135 272
285 l273 273 390 -2 c252 -2 390 -7 390 -13z m3958 -253 c147 -147 267 -276
267 -285 0 -16 -28 -17 -377 -17 -346 0 -380 2 -403 18 -47 33 -540 534 -534
543 3 5 174 9 392 9 l387 0 268 -268z m-12526 -44 c156 -156 283 -290 283
-298 0 -19 -560 -580 -580 -580 -19 0 -580 560 -580 580 0 19 560 580 580 580
8 0 142 -127 297 -282z m1320 0 c156 -156 283 -290 283 -298 0 -20 -560 -580
-580 -580 -20 0 -580 560 -580 580 0 20 560 580 580 580 8 0 142 -127 297
-282z m1319 -4 c156 -157 284 -291 284 -298 0 -17 -563 -576 -580 -576 -20 0
-580 560 -580 580 0 18 560 580 578 580 8 0 141 -129 298 -286z m6361 4 c156
-156 283 -290 283 -298 0 -19 -560 -580 -580 -580 -18 0 -580 560 -580 579 0
19 560 581 580 581 8 0 142 -127 297 -282z m1320 0 c156 -156 283 -290 283
-298 0 -20 -560 -580 -580 -580 -20 0 -580 560 -580 580 0 20 560 580 580 580
8 0 142 -127 297 -282z m1318 -3 c157 -157 285 -291 285 -298 0 -18 -562 -577
-580 -577 -20 0 -580 560 -580 580 0 18 560 580 578 580 7 0 140 -128 297
-285z m-13665 -357 c0 -7 -121 -134 -270 -283 l-269 -269 -387 0 c-285 0 -389
3 -391 11 -3 7 8 22 23 35 14 13 137 134 273 270 l246 247 388 1 c307 0 387
-2 387 -12z m1328 -260 c150 -149 272 -274 272 -278 0 -15 -69 -17 -423 -15
l-358 1 -270 270 c-148 148 -269 275 -269 281 0 10 83 13 388 13 l388 0 272
-272z m4492 259 c0 -6 -121 -133 -269 -281 l-269 -269 -380 -2 c-209 -1 -386
1 -394 6 -9 6 62 83 262 284 l275 275 387 0 c305 0 388 -3 388 -13z m1325
-257 c218 -218 267 -272 257 -282 -10 -10 -98 -13 -385 -13 l-372 -1 -272 270
c-150 149 -273 276 -273 283 0 10 80 13 388 13 l387 0 270 -270z m1855 257 c0
-6 -121 -133 -269 -281 l-270 -270 -358 0 c-197 -1 -373 1 -390 3 -35 3 -44
24 -18 38 8 5 132 125 275 266 l259 257 386 0 c302 0 385 -3 385 -13z m1329
-259 c149 -150 271 -275 271 -279 0 -14 -34 -15 -404 -13 l-379 2 -268 268
c-148 148 -269 275 -269 281 0 10 83 13 389 13 l389 0 271 -272z m4491 259 c0
-6 -121 -133 -270 -282 l-270 -270 -367 -1 c-371 -1 -416 1 -411 18 2 5 125
130 273 278 l270 270 388 0 c304 0 387 -3 387 -13z m1325 -257 c199 -201 265
-274 257 -282 -8 -8 -122 -12 -387 -12 l-376 0 -269 269 c-149 149 -270 276
-270 282 0 10 83 13 388 13 l388 0 269 -270z m-15708 -42 c156 -156 283 -290
283 -298 0 -19 -560 -580 -579 -580 -20 0 -581 560 -581 580 0 19 560 580 580
580 8 0 142 -127 297 -282z m2250 0 c156 -156 283 -290 283 -298 0 -20 -560
-580 -580 -580 -20 0 -580 560 -580 580 0 20 560 580 580 580 8 0 142 -127
297 -282z m1320 0 c156 -156 283 -290 283 -298 0 -20 -560 -580 -580 -580 -20
0 -580 560 -580 580 0 20 560 580 580 580 8 0 142 -127 297 -282z m2250 0
c156 -156 283 -290 283 -298 0 -20 -560 -580 -580 -580 -20 0 -580 560 -580
580 0 19 560 580 579 580 8 0 142 -127 298 -282z m3179 0 c156 -156 284 -289
284 -298 0 -20 -560 -580 -580 -580 -19 0 -580 561 -580 580 0 19 560 580 579
580 8 0 141 -127 297 -282z m2251 0 c156 -156 283 -290 283 -298 0 -20 -560
-580 -580 -580 -20 0 -580 560 -580 580 0 20 560 580 580 580 8 0 142 -127
297 -282z m1320 0 c156 -156 283 -290 283 -298 0 -20 -560 -580 -580 -580 -20
0 -580 560 -580 580 0 20 560 580 580 580 8 0 142 -127 297 -282z m2250 0
c156 -156 283 -290 283 -298 0 -20 -560 -580 -580 -580 -20 0 -580 560 -580
580 0 20 560 580 580 580 8 0 142 -127 297 -282z m-15527 -613 c149 -149 270
-276 270 -282 0 -10 -83 -13 -388 -13 l-387 0 -274 274 c-150 151 -271 278
-268 283 3 4 179 8 391 8 l387 -1 269 -269z m1848 267 c13 -1 22 -7 20 -12 -2
-6 -125 -132 -273 -280 l-270 -270 -387 0 c-305 0 -388 3 -388 13 0 18 532
545 554 549 19 3 695 3 744 0z m3972 -267 c149 -149 270 -276 270 -282 0 -10
-83 -13 -389 -13 l-389 0 -271 272 c-149 150 -271 275 -271 279 0 4 4 9 10 11
5 2 181 3 390 3 l381 -1 269 -269z m1843 266 c9 0 17 -7 17 -14 0 -7 -121
-133 -268 -280 l-268 -267 -387 0 c-304 0 -387 3 -387 13 0 14 528 543 548
548 11 4 703 4 745 0z m1337 -266 c149 -149 270 -276 270 -282 0 -10 -83 -13
-388 -13 l-387 0 -274 274 c-150 150 -271 278 -268 282 3 5 179 9 391 9 l387
-1 269 -269z m1866 262 c5 -4 -115 -132 -267 -282 l-275 -275 -387 0 c-304 0
-387 3 -387 13 0 18 532 545 555 549 42 7 754 3 761 -5z m3954 -262 c149 -148
270 -276 270 -282 0 -10 -83 -13 -387 -13 l-388 0 -272 272 c-150 149 -273
275 -273 279 0 4 5 9 11 11 5 2 181 3 390 3 l379 0 270 -270z m1862 253 c-2
-7 -123 -133 -270 -280 l-268 -268 -387 0 c-304 0 -387 3 -387 13 0 14 528
543 548 549 7 2 183 3 390 2 309 -2 376 -5 374 -16z m-14385 -300 c156 -156
283 -290 283 -298 0 -19 -560 -580 -578 -580 -17 0 -582 566 -582 583 0 17
562 577 580 577 8 0 142 -127 297 -282z m1320 0 c156 -156 283 -290 283 -298
0 -20 -560 -580 -580 -580 -20 0 -580 560 -580 580 0 20 560 580 580 580 8 0
142 -127 297 -282z m1321 -1 c155 -156 282 -289 282 -297 0 -18 -561 -580
-580 -580 -20 0 -580 560 -580 580 0 20 560 580 580 580 8 0 142 -127 298
-283z m6359 1 c156 -156 283 -290 283 -298 0 -20 -561 -580 -581 -580 -18 0
-579 564 -579 582 0 18 562 578 580 578 8 0 142 -127 297 -282z m1320 0 c156
-156 283 -290 283 -298 0 -20 -560 -580 -580 -580 -20 0 -580 560 -580 580 0
20 560 580 580 580 8 0 142 -127 297 -282z m1320 0 c156 -156 283 -290 283
-298 0 -20 -561 -580 -580 -580 -20 0 -580 561 -580 580 0 19 560 580 580 580
8 0 142 -127 297 -282z m-6166 -163 l-1 -390 -267 -267 c-147 -148 -274 -268
-280 -268 -10 0 -13 83 -13 388 l0 388 272 272 c150 150 277 271 282 269 5 -2
8 -175 7 -392z m387 122 l272 -273 0 -387 c0 -304 -3 -387 -13 -387 -6 0 -133
120 -280 268 l-267 268 -1 384 c0 442 -1 400 9 400 4 0 130 -123 280 -273z
m8616 -121 l-1 -388 -269 -269 c-148 -148 -275 -269 -281 -269 -10 0 -13 83
-13 388 l0 387 272 273 c150 150 277 271 283 269 6 -2 9 -138 9 -391z m-17611
116 l267 -268 0 -387 c0 -304 -3 -387 -13 -387 -6 0 -133 121 -282 270 l-269
269 -1 363 c-1 200 0 373 3 386 2 12 9 22 16 22 6 0 132 -121 279 -268z m1186
-306 c8 -9 10 -126 9 -412 l-3 -399 -400 -5 c-220 -3 -408 -1 -417 3 -17 7
-18 36 -18 399 0 350 2 393 17 410 15 17 41 18 408 18 320 0 395 -3 404 -14z
m981 -4 c48 -34 540 -534 534 -543 -3 -5 -169 -9 -392 -9 l-387 0 -273 273
c-149 150 -272 278 -272 285 0 8 97 11 383 12 351 0 384 -1 407 -18z m4770 6
c0 -6 -124 -134 -276 -285 l-277 -273 -379 0 c-297 0 -380 3 -384 13 -5 13
513 537 544 549 31 12 772 8 772 -4z m1004 -4 c14 -14 16 -62 14 -412 l-3
-397 -410 0 -410 0 -3 399 c-1 286 1 403 9 412 9 11 84 14 400 14 340 0 390
-2 403 -16z m2245 2 c15 -18 24 -785 9 -803 -8 -10 -102 -13 -408 -13 -219 0
-405 3 -414 6 -14 5 -16 50 -16 397 0 349 2 392 17 409 15 17 41 18 408 18
319 0 395 -3 404 -14z m1244 -262 c150 -152 274 -283 276 -292 3 -14 -35 -15
-390 -9 l-394 7 -272 273 c-150 150 -273 278 -273 285 0 9 91 12 391 12 l390
0 272 -276z m4497 259 c0 -9 -122 -137 -271 -285 l-272 -268 -381 2 c-330 3
-381 5 -382 18 -1 8 121 135 270 283 l272 267 382 0 c349 0 382 -1 382 -17z
m1012 0 c17 -15 18 -41 18 -409 0 -253 -4 -395 -10 -399 -13 -8 -805 -6 -826
2 -14 5 -16 23 -10 147 4 78 7 254 8 391 1 138 5 258 10 268 8 16 37 17 400
17 350 0 393 -2 410 -17z m-13145 -305 c156 -156 283 -290 283 -298 0 -18
-560 -580 -578 -580 -17 0 -582 566 -582 582 0 18 562 578 580 578 8 0 142
-127 297 -282z m1320 0 c156 -156 283 -290 283 -298 0 -20 -560 -580 -580
-580 -20 0 -580 560 -580 580 0 20 560 580 580 580 8 0 142 -127 297 -282z
m7680 0 c156 -156 283 -290 283 -298 0 -18 -560 -580 -578 -580 -19 0 -582
561 -582 579 0 20 560 581 580 581 8 0 142 -127 297 -282z m1320 0 c156 -156
283 -290 283 -298 0 -19 -561 -580 -580 -580 -19 0 -580 561 -580 580 0 19
560 580 580 580 8 0 142 -127 297 -282z m-7097 -165 l0 -385 -266 -264 c-147
-145 -270 -264 -274 -264 -17 0 -19 44 -20 401 l0 373 271 268 c149 147 275
265 280 262 5 -3 9 -173 9 -391z m-5433 121 l263 -266 0 -389 c0 -214 -3 -389
-8 -389 -4 0 -127 120 -273 268 l-266 267 -7 378 c-3 208 -4 383 -1 388 4 5
11 9 18 9 6 0 130 -120 274 -266z m9001 0 l262 -266 0 -389 c0 -214 -4 -389
-8 -389 -9 0 -522 513 -533 532 -8 16 -20 743 -13 763 4 8 12 15 18 15 7 0
130 -120 274 -266z m5432 -121 l0 -386 -266 -264 c-146 -145 -270 -263 -274
-263 -18 0 -20 48 -20 403 l0 371 263 262 c144 144 270 262 280 263 16 1 17
-24 17 -386z m-7063 -105 c156 -156 283 -290 283 -298 0 -20 -560 -580 -580
-580 -20 0 -580 560 -580 580 0 19 560 580 580 580 8 0 142 -127 297 -282z
m-6174 -85 c14 -16 16 -68 17 -409 0 -347 -1 -394 -15 -408 -15 -14 -63 -16
-414 -16 -295 0 -400 3 -409 12 -16 16 -17 789 -2 819 10 18 25 19 409 19 366
0 399 -1 414 -17z m3572 6 c13 -20 12 -799 0 -816 -10 -13 -62 -16 -401 -17
-214 -1 -399 1 -411 6 l-23 8 0 403 c0 300 3 406 12 415 16 16 813 17 823 1z
m5427 -8 c3 -3 8 -190 10 -414 3 -354 1 -409 -12 -417 -9 -6 -179 -10 -412
-10 -347 0 -399 2 -412 16 -14 13 -16 65 -16 414 0 336 2 401 15 413 12 13 72
14 417 10 222 -3 406 -8 410 -12z m3576 2 c12 -27 7 -800 -6 -816 -9 -10 -94
-12 -410 -11 -220 1 -405 5 -411 8 -16 10 -15 808 1 824 9 9 115 12 415 12
373 0 403 -1 411 -17z m-12184 -340 c148 -147 272 -278 277 -291 14 -35 12
-759 -2 -768 -6 -3 -128 111 -285 267 l-274 274 0 386 c0 325 3 399 15 399 0
0 122 -120 269 -267z m940 -127 l-1 -387 -269 -270 c-148 -148 -275 -269 -281
-269 -10 0 -13 83 -13 387 l0 388 272 272 c150 150 277 272 283 270 5 -2 9
-151 9 -391z m384 123 l272 -272 0 -388 c0 -306 -3 -389 -13 -389 -6 0 -134
122 -282 270 l-270 270 0 386 c0 212 2 388 4 390 2 2 7 4 11 4 3 0 129 -122
278 -271z m7673 7 c145 -142 269 -268 276 -280 17 -30 18 -786 1 -786 -6 0
-135 123 -286 273 l-274 274 -5 392 c-5 349 -4 393 9 390 9 -2 134 -120 279
-263z m942 -129 l2 -387 -270 -270 c-148 -148 -276 -270 -282 -270 -10 0 -13
83 -13 387 l0 387 272 273 c150 150 276 272 281 270 5 -1 9 -177 10 -390z
m387 119 l270 -269 0 -383 c0 -271 -3 -385 -11 -390 -7 -4 -122 104 -282 264
l-271 271 2 388 c0 213 1 390 2 391 1 13 51 -33 290 -272z m-8072 -126 l2
-384 -268 -268 c-148 -148 -275 -268 -285 -268 -17 0 -18 23 -15 385 l3 385
265 268 c146 148 272 269 280 268 13 -1 15 -52 18 -386z m9000 1 l2 -384 -251
-252 c-138 -138 -264 -259 -279 -268 l-28 -17 -7 72 c-3 40 -5 214 -3 385 l3
313 265 268 c146 148 272 269 280 268 13 -1 15 -52 18 -385z m-12926 -58 c147
-147 268 -271 268 -275 0 -5 -176 -8 -390 -8 l-391 0 -264 262 c-146 143 -265
267 -265 275 0 11 70 13 387 13 l387 0 268 -267z m6358 254 c0 -7 -118 -133
-263 -280 l-263 -268 -374 2 c-205 0 -380 3 -387 6 -7 3 -13 9 -13 13 0 4 119
127 263 274 l264 266 386 0 c312 0 387 -3 387 -13z m2642 -254 c147 -147 268
-271 268 -275 0 -5 -176 -8 -390 -8 l-390 0 -265 262 c-146 143 -265 267 -265
275 0 11 70 13 387 13 l387 0 268 -267z m6358 253 c0 -8 -118 -135 -263 -281
l-263 -266 -374 2 c-206 1 -381 4 -387 6 -7 3 -13 9 -13 13 0 4 119 127 264
274 l264 266 386 0 c330 0 386 -2 386 -14z m-16590 -463 l0 -388 -272 -272
c-150 -150 -278 -273 -283 -273 -7 0 -10 124 -10 391 l2 391 269 269 c148 148
275 269 281 269 10 0 13 -83 13 -387z m392 120 l268 -268 0 -387 c0 -213 -4
-389 -8 -392 -12 -7 -542 522 -553 552 -5 13 -9 190 -9 393 0 344 1 369 17
369 10 0 138 -120 285 -267z m7296 -118 l-3 -385 -265 -268 c-146 -148 -272
-269 -280 -268 -13 1 -15 51 -15 386 l0 385 265 267 c147 148 273 268 283 268
17 0 18 -20 15 -385z m386 116 l269 -269 -1 -384 c-1 -444 0 -398 -11 -398 -6
0 -132 123 -280 272 l-271 273 0 387 c0 305 3 388 13 388 6 0 133 -121 281
-269z m926 -118 l0 -388 -270 -270 c-148 -148 -274 -271 -280 -273 -13 -5 -12
-42 -11 402 l0 380 268 268 c147 147 274 268 280 268 10 0 13 -83 13 -387z
m392 120 l268 -268 0 -387 c0 -213 -4 -389 -8 -392 -12 -7 -542 523 -553 552
-5 13 -9 190 -9 393 0 344 1 369 17 369 10 0 138 -120 285 -267z m7296 -118
l-3 -385 -265 -268 c-146 -148 -272 -269 -280 -268 -13 1 -15 52 -18 383 l-2
381 267 271 c149 150 276 271 286 271 17 0 18 -21 15 -385z m386 116 l268
-268 1 -389 c2 -321 0 -389 -12 -389 -7 0 -134 122 -282 270 l-269 270 0 388
c0 304 3 387 13 387 6 0 133 -121 281 -269z m-6485 -290 c12 -7 14 -77 12
-412 -2 -266 -6 -408 -13 -416 -8 -10 -99 -13 -413 -13 -358 0 -404 2 -409 16
-9 23 -7 797 2 811 6 10 90 13 343 15 183 2 363 4 399 5 36 2 71 -1 79 -6z
m-8999 -20 c14 -27 14 -785 0 -812 -10 -18 -25 -19 -407 -19 -355 0 -398 2
-415 17 -17 15 -18 41 -18 405 0 249 4 396 10 409 10 18 26 19 415 19 389 0
405 -1 415 -19z m5428 6 c9 -6 12 -100 12 -412 0 -389 -1 -405 -19 -415 -30
-15 -808 -14 -817 2 -13 21 -11 798 2 817 10 14 54 16 410 16 220 -1 405 -4
412 -8z m9000 -1 c9 -5 12 -104 12 -411 0 -389 -1 -405 -19 -415 -30 -15 -807
-14 -817 2 -4 7 -7 192 -6 412 1 329 4 402 15 411 16 12 796 13 815 1z
m-10027 -7 c11 -7 -50 -72 -256 -279 l-271 -270 -382 1 c-244 0 -384 4 -388
11 -3 5 115 130 262 277 l269 267 376 1 c208 1 382 -3 390 -8z m9005 -2 c5 -4
-113 -129 -262 -278 l-270 -269 -378 1 c-323 0 -378 2 -383 15 -7 19 508 531
540 536 46 7 746 3 753 -5z m-12171 -261 c191 -188 266 -268 262 -279 -5 -14
-26 -16 -154 -13 -81 2 -254 4 -383 5 l-234 1 -268 267 c-147 147 -268 271
-268 275 0 5 175 8 389 8 l389 0 267 -264z m8999 2 c146 -145 266 -269 266
-275 0 -19 -35 -23 -170 -19 -69 2 -233 4 -365 5 l-239 1 -268 267 c-147 147
-268 271 -268 275 0 5 175 8 389 8 l389 0 266 -262z m-7637 -40 c156 -156 283
-290 283 -298 0 -8 -125 -140 -277 -292 -201 -201 -284 -278 -301 -278 -16 0
-101 77 -302 277 -154 152 -280 284 -280 292 0 20 560 581 580 581 8 0 142
-127 297 -282z m9000 0 c156 -156 283 -289 283 -297 0 -24 -561 -572 -581
-569 -21 3 -563 537 -573 564 -5 14 52 77 276 301 156 156 290 283 298 283 8
0 142 -127 297 -282z m-11199 -48 l262 -266 0 -387 c0 -317 -2 -387 -13 -387
-8 0 -132 119 -275 265 l-262 264 0 391 c0 306 3 390 13 389 6 -1 130 -122
275 -269z m4096 209 c3 -34 6 -208 6 -387 l0 -325 -267 -269 c-166 -166 -275
-268 -287 -268 -18 0 -19 6 -13 113 4 61 7 235 7 386 l0 275 263 266 c144 147
267 268 273 269 7 0 14 -25 18 -60z m4904 -209 l262 -266 0 -387 c0 -318 -2
-387 -13 -387 -8 0 -132 119 -275 265 l-262 266 0 389 c0 306 3 390 13 389 6
-1 130 -122 275 -269z m4095 251 c2 -11 5 -185 6 -387 l2 -367 -268 -269
c-153 -153 -274 -267 -283 -266 -12 3 -15 19 -14 73 0 39 1 211 2 384 l2 315
263 266 c144 147 267 268 273 269 7 0 14 -8 17 -18z m-14737 -476 c156 -157
284 -290 284 -297 0 -18 -562 -578 -580 -578 -20 0 -580 560 -580 580 0 18
560 580 578 580 7 0 141 -128 298 -285z m7682 2 c155 -156 282 -290 282 -298
0 -19 -561 -579 -580 -579 -20 0 -580 560 -580 580 0 20 560 580 580 580 8 0
142 -128 298 -283z m1316 -1 c157 -156 286 -290 286 -297 0 -19 -561 -579
-580 -579 -20 0 -580 560 -580 580 0 18 559 580 577 580 6 0 140 -128 297
-284z m7684 1 c155 -156 282 -290 282 -298 0 -19 -561 -579 -580 -579 -20 0
-580 560 -580 580 0 19 561 580 580 580 8 0 142 -127 298 -283z m-13840 -487
c1 -282 -1 -397 -9 -406 -9 -11 -86 -14 -415 -14 -390 0 -404 1 -414 20 -7 12
-9 151 -8 407 l3 388 400 5 c220 3 409 2 420 -1 19 -6 20 -16 23 -399z m2237
390 c12 -19 6 -792 -6 -806 -16 -19 -778 -21 -797 -2 -9 9 -12 115 -12 415 l0
403 404 0 c251 0 407 -4 411 -10z m6749 4 c13 -5 15 -55 16 -404 0 -327 -2
-399 -14 -409 -10 -8 -123 -11 -412 -9 l-399 3 -3 400 c-1 220 0 406 3 412 3
10 92 13 399 13 217 0 401 -3 410 -6z m2254 -398 c1 -286 -1 -403 -9 -412 -17
-20 -781 -21 -798 -1 -8 11 -16 540 -11 805 0 10 85 12 408 10 l407 -3 3 -399z
m-1851 60 c249 -252 271 -277 274 -312 5 -50 -10 -682 -16 -711 -3 -13 -11
-22 -18 -22 -6 1 -130 122 -274 269 l-263 266 0 392 c0 324 2 392 14 392 7 0
135 -123 283 -274z m-9010 2 c143 -145 264 -273 267 -284 5 -17 11 -670 7
-746 -1 -10 -7 -18 -14 -18 -7 0 -133 121 -280 268 l-267 268 0 387 c0 304 3
387 13 387 6 0 130 -118 274 -262z m933 -138 l0 -374 -267 -268 c-147 -147
-273 -268 -280 -268 -16 0 -14 -41 -15 387 -1 333 0 364 17 390 10 15 133 142
273 281 180 179 258 249 263 240 5 -7 9 -182 9 -388z m8995 390 c10 -16 6
-749 -4 -768 -18 -31 -540 -546 -548 -539 -8 9 -5 634 4 727 l6 64 261 263
c144 145 264 263 268 263 4 0 10 -4 13 -10z m-2603 -438 c153 -152 278 -283
278 -290 0 -16 -747 -18 -782 -1 -28 12 -541 535 -546 555 -3 12 62 14 385 14
l388 0 277 -278z m-8994 -5 c149 -150 272 -278 272 -285 0 -15 -756 -17 -779
-3 -34 21 -550 545 -545 552 3 5 179 9 392 9 l387 0 273 -273z m5030 256 c0
-10 -122 -137 -270 -283 l-268 -265 -385 -2 c-268 -2 -386 1 -391 8 -4 6 112
129 267 285 l274 274 388 0 c362 0 387 -1 385 -17z m9006 9 c7 -11 16 -1 -280
-294 l-270 -268 -382 0 c-357 0 -382 1 -382 17 0 10 120 138 267 285 l268 268
387 0 c213 0 389 -4 392 -8z m-14928 -307 c156 -157 284 -291 284 -298 0 -18
-562 -577 -580 -577 -20 0 -580 560 -580 580 0 18 560 580 578 580 7 0 141
-128 298 -285z m6361 3 c156 -156 283 -290 283 -298 0 -20 -560 -580 -580
-580 -20 0 -580 560 -580 580 0 20 560 580 580 580 8 0 142 -127 297 -282z
m1320 0 c156 -156 283 -290 283 -298 0 -20 -560 -580 -580 -580 -20 0 -580
560 -580 580 0 20 560 580 580 580 8 0 142 -127 297 -282z m1321 -2 c155 -157
282 -291 282 -298 0 -18 -562 -578 -580 -578 -20 0 -580 560 -580 580 0 20
561 580 580 580 9 0 143 -128 298 -284z m6359 2 c156 -156 283 -290 283 -298
0 -19 -560 -580 -579 -580 -19 0 -581 561 -581 580 0 19 561 580 580 580 8 0
142 -127 297 -282z m-695 -623 c148 -148 267 -274 265 -279 -3 -8 -130 -11
-391 -11 l-386 0 -270 270 c-148 148 -270 275 -270 282 0 10 83 13 373 15 204
2 381 0 391 -3 10 -3 140 -126 288 -274z m-13512 262 c0 -6 -122 -134 -270
-282 l-270 -270 -386 0 c-212 0 -388 4 -391 9 -3 4 118 132 268 282 l274 274
387 0 c305 0 388 -3 388 -13z m1329 -261 c150 -150 271 -278 268 -282 -3 -5
-179 -9 -391 -9 l-386 0 -270 270 c-148 148 -270 276 -270 282 0 10 83 13 388
13 l387 0 274 -274z m1851 261 c0 -6 -121 -133 -269 -281 l-269 -269 -391 -2
c-314 -3 -391 -1 -391 10 0 7 123 135 273 284 l272 271 388 0 c304 0 387 -3
387 -13z m1328 -259 c150 -149 272 -276 272 -282 0 -8 -119 -11 -390 -11
l-390 1 -270 269 c-149 149 -270 276 -270 282 0 10 83 13 388 13 l388 0 272
-272z m4496 263 c4 -5 -117 -133 -266 -284 l-273 -276 -389 -3 c-277 -2 -390
0 -393 8 -4 12 522 547 547 557 25 9 768 8 774 -2z m1329 -271 c153 -154 276
-284 272 -290 -4 -6 -140 -10 -393 -10 l-386 0 -280 279 c-166 166 -276 283
-272 290 5 8 118 11 393 11 l387 0 279 -280z m1847 267 c0 -6 -121 -133 -270
-282 l-269 -269 -388 -1 c-309 0 -388 3 -388 13 0 7 121 134 270 282 l270 270
387 0 c305 0 388 -3 388 -13z m-13993 -299 c156 -156 283 -290 283 -298 0 -20
-560 -580 -580 -580 -20 0 -580 560 -580 580 0 20 560 580 580 580 8 0 142
-127 297 -282z m2251 -1 c155 -156 282 -290 282 -298 0 -19 -561 -579 -580
-579 -20 0 -580 560 -580 580 0 20 560 580 580 580 8 0 142 -128 298 -283z
m3179 1 c156 -156 283 -290 283 -298 0 -19 -560 -580 -579 -580 -19 0 -581
561 -581 580 0 19 560 580 580 580 8 0 142 -127 297 -282z m2250 0 c156 -156
283 -290 283 -298 0 -20 -560 -580 -580 -580 -20 0 -580 560 -580 580 0 20
560 580 580 580 8 0 142 -127 297 -282z m1320 0 c156 -156 283 -290 283 -298
0 -20 -560 -580 -580 -580 -20 0 -580 560 -580 580 0 20 560 580 580 580 8 0
142 -127 297 -282z m2239 2 c153 -154 283 -288 287 -296 7 -13 -52 -78 -274
-300 -156 -156 -291 -284 -299 -284 -18 0 -580 559 -580 577 0 15 561 583 576
583 7 0 137 -126 290 -280z m3191 -2 c156 -156 283 -290 283 -298 0 -19 -560
-580 -579 -580 -18 0 -581 561 -581 580 0 19 560 580 580 580 8 0 142 -127
297 -282z m2250 0 c156 -156 283 -290 283 -298 0 -20 -560 -580 -580 -580 -20
0 -580 560 -580 580 0 20 560 580 580 580 8 0 142 -127 297 -282z m-15131
-620 c152 -152 274 -280 271 -285 -3 -4 -181 -6 -396 -3 l-391 5 -270 269
c-149 148 -269 274 -267 280 3 8 122 11 391 11 l386 0 276 -277z m1856 261
c-2 -8 -122 -133 -268 -279 l-264 -265 -363 -5 c-385 -5 -417 -4 -417 14 0 13
528 541 550 550 8 3 184 4 390 2 315 -3 375 -5 372 -17z m1326 -264 l277 -280
-395 -3 -395 -2 -274 274 c-150 150 -271 278 -268 282 3 5 179 9 391 9 l386 0
278 -280z m1858 272 c5 -4 -115 -131 -266 -282 l-275 -275 -387 0 c-305 0
-388 3 -388 13 0 6 120 132 268 279 252 252 269 267 307 270 89 7 734 2 741
-5z m7134 -262 c148 -148 270 -276 270 -282 0 -10 -83 -13 -388 -13 l-387 0
-274 274 c-150 150 -271 278 -268 283 4 6 164 9 391 9 l386 -1 270 -270z
m1867 260 c2 -6 -120 -133 -270 -283 l-273 -272 -387 0 c-304 0 -387 3 -387
13 0 15 528 543 550 549 32 10 763 3 767 -7z m-5045 -263 c148 -146 268 -272
268 -279 0 -10 -80 -13 -388 -13 l-387 0 -272 271 c-149 149 -266 272 -259
275 19 6 156 10 471 12 l300 1 267 -267z m1858 250 c0 -4 -121 -128 -268 -275
l-268 -267 -387 0 c-302 0 -387 3 -387 12 0 7 118 131 262 275 l263 263 392 0
c216 0 393 -3 393 -8z m-11742 -295 c155 -156 282 -290 282 -298 0 -19 -561
-579 -580 -579 -20 0 -580 561 -580 580 0 20 560 580 580 580 8 0 142 -127
298 -283z m6359 1 c156 -156 283 -290 283 -298 0 -18 -559 -580 -577 -580 -17
0 -583 564 -583 581 0 19 561 579 580 579 8 0 142 -127 297 -282z m1320 0
c156 -156 283 -290 283 -298 0 -20 -560 -580 -580 -580 -20 0 -580 560 -580
580 0 20 560 580 580 580 8 0 142 -127 297 -282z m1322 -2 c219 -220 282 -288
277 -303 -8 -25 -559 -573 -577 -573 -19 0 -579 561 -579 580 0 20 560 580
580 580 8 0 143 -128 299 -284z m6358 2 c156 -156 283 -290 283 -298 0 -18
-560 -580 -578 -580 -16 0 -582 567 -582 583 0 17 562 577 580 577 8 0 142
-127 297 -282z m-12525 -164 l-2 -389 -267 -267 c-148 -148 -273 -268 -280
-268 -17 0 -19 82 -13 462 l5 318 270 270 c148 149 274 269 280 267 7 -3 9
-131 7 -393z m385 124 l273 -273 0 -387 c0 -305 -3 -388 -13 -388 -6 0 -133
121 -280 268 l-268 268 -4 385 c-1 211 -1 387 2 392 2 4 7 7 11 7 4 0 130
-123 279 -272z m8617 -119 l-2 -392 -268 -268 c-148 -148 -275 -269 -281 -269
-10 0 -13 83 -13 388 l0 387 272 273 c150 149 277 272 283 272 8 0 10 -115 9
-391z m388 114 l268 -268 0 -315 c1 -483 1 -460 -13 -460 -6 0 -133 120 -280
268 l-267 267 -1 370 c-1 435 -2 405 14 405 6 0 132 -120 279 -267z m-11072
-309 c0 -9 -120 -135 -267 -281 l-266 -265 -383 -5 c-324 -5 -384 -3 -389 8
-6 15 510 538 543 551 9 4 185 7 390 7 334 1 372 -1 372 -15z m1014 0 c14 -13
16 -65 16 -409 0 -344 -2 -396 -16 -409 -13 -14 -65 -16 -413 -16 -295 0 -400
3 -409 12 -9 9 -12 113 -12 407 0 353 2 396 17 413 15 17 41 18 409 18 344 0
395 -2 408 -16z m3216 6 c33 -21 549 -544 544 -552 -3 -4 -179 -8 -392 -8
l-387 0 -273 273 c-149 150 -272 278 -272 284 0 15 757 18 780 3z m4780 -2 c0
-7 -121 -134 -270 -282 l-269 -271 -386 -2 c-306 -3 -387 0 -390 10 -6 13 512
537 543 549 9 4 187 7 395 7 289 1 377 -2 377 -11z m1004 -4 c14 -13 16 -64
16 -408 0 -369 -1 -394 -18 -410 -17 -15 -57 -16 -413 -14 l-394 3 -3 410 c-1
225 0 416 3 422 3 10 92 13 399 13 345 0 397 -2 410 -16z m3216 6 c33 -21 549
-544 544 -551 -3 -5 -179 -9 -392 -9 l-387 0 -272 273 c-150 150 -273 278
-273 285 0 15 756 17 780 2z m-9962 -405 c1 -214 0 -400 -3 -412 l-5 -23 -400
0 c-266 0 -401 3 -405 10 -8 13 -7 799 1 812 3 4 186 7 407 6 l402 -3 3 -390z
m9000 0 c1 -214 0 -400 -3 -412 l-5 -23 -400 0 c-257 0 -401 4 -405 10 -8 12
-7 799 1 812 3 4 186 7 407 6 l402 -3 3 -390z m-14086 98 c158 -158 288 -294
288 -302 0 -20 -560 -581 -579 -581 -20 0 -581 560 -581 580 0 13 567 590 580
590 2 0 134 -129 292 -287z m16968 -303 c0 -18 -560 -580 -578 -580 -17 0
-582 566 -582 583 0 7 131 143 290 302 l290 290 290 -290 c160 -160 290 -297
290 -305z m-9283 298 c156 -156 283 -290 283 -298 0 -18 -560 -580 -578 -580
-17 0 -582 565 -582 582 0 18 562 578 580 578 8 0 142 -127 297 -282z m1320 0
c156 -156 283 -290 283 -298 0 -19 -561 -580 -580 -580 -19 0 -580 561 -580
580 0 19 560 580 580 580 8 0 142 -127 297 -282z m1910 -158 l-2 -390 -277
-276 c-152 -152 -280 -274 -285 -271 -6 4 -8 167 -6 394 l3 388 273 273 c150
149 278 272 285 272 9 0 11 -90 9 -390z m-9007 -7 l0 -386 -266 -264 c-147
-145 -270 -263 -274 -263 -4 0 -10 6 -13 13 -3 7 -6 181 -6 386 l-2 374 263
263 c145 145 271 263 281 264 16 0 17 -25 17 -387z m3568 121 l262 -267 0
-388 c0 -214 -3 -389 -8 -389 -4 0 -127 120 -274 268 l-266 267 -6 378 c-4
208 -4 382 -1 387 4 6 12 10 18 10 7 0 130 -120 275 -266z m9000 0 l262 -266
0 -389 c0 -214 -3 -389 -8 -389 -4 0 -128 121 -275 268 l-267 268 0 169 c0 94
-3 268 -7 388 -6 209 -5 217 13 217 12 0 120 -102 282 -266z m-10631 -226
c156 -155 283 -289 283 -298 0 -20 -560 -580 -580 -580 -20 0 -580 560 -580
580 0 19 560 580 579 580 8 0 142 -127 298 -282z m9001 -1 c155 -156 282 -290
282 -298 0 -19 -561 -579 -580 -579 -20 0 -580 560 -580 580 0 20 560 580 580
580 8 0 142 -128 298 -283z m-2617 -67 c18 -10 19 -26 19 -414 0 -329 -3 -406
-14 -415 -9 -8 -127 -10 -417 -9 l-404 3 0 415 0 415 395 5 c217 3 396 6 398
8 2 1 12 -3 23 -8z m-8985 -12 c13 -21 11 -799 -2 -816 -9 -13 -67 -15 -405
-16 -217 -1 -402 2 -411 6 -15 7 -17 44 -17 410 0 279 3 405 10 415 16 18 814
19 825 1z m5426 -5 c17 -15 18 -41 18 -405 0 -249 -4 -396 -10 -409 -10 -18
-26 -19 -415 -19 -389 0 -405 1 -415 19 -15 30 -14 803 2 819 9 9 113 12 407
12 353 0 396 -2 413 -17z m9001 -1 c14 -15 16 -65 16 -409 1 -342 -1 -394 -15
-407 -13 -14 -67 -16 -414 -16 -385 0 -400 1 -410 19 -15 30 -14 803 2 819 9
9 113 12 408 12 367 0 398 -1 413 -18z m-16285 -344 l272 -272 -1 -388 c0
-291 -3 -388 -12 -388 -7 0 -133 122 -281 269 l-269 269 -2 383 c-1 211 0 387
2 392 2 4 8 7 12 7 4 0 130 -122 279 -272z m926 -127 l0 -392 -265 -264 c-145
-146 -271 -265 -280 -265 -15 0 -16 37 -17 371 0 205 3 381 7 393 10 26 532
553 546 551 6 -1 10 -140 9 -394z m6750 132 c148 -147 272 -278 277 -291 5
-13 9 -190 9 -393 -1 -341 -2 -369 -18 -369 -9 0 -137 120 -284 267 l-268 268
0 386 c0 325 3 399 15 399 0 0 122 -120 269 -267z m937 245 c0 -13 0 -189 1
-392 l0 -369 -268 -268 c-148 -148 -275 -269 -281 -269 -10 0 -13 83 -13 388
l0 387 272 273 c150 149 276 272 280 272 4 0 8 -10 9 -22z m389 -253 l270
-270 0 -387 c0 -272 -3 -388 -11 -388 -6 0 -132 121 -281 269 l-270 268 0 384
c0 442 -1 402 12 397 6 -2 132 -125 280 -273z m7675 6 c148 -149 273 -278 276
-288 4 -10 8 -188 8 -395 1 -289 -2 -378 -11 -378 -7 0 -135 123 -285 272
l-273 273 0 386 c0 327 3 399 15 399 1 0 122 -121 270 -269z m937 257 c2 -7 3
-183 3 -391 l-2 -379 -269 -269 c-148 -148 -275 -269 -281 -269 -10 0 -13 83
-13 387 l0 387 272 273 c150 150 276 273 279 273 4 0 9 -6 11 -12z m-7688 -15
c2 -10 4 -184 4 -388 l0 -370 -272 -272 c-149 -150 -277 -273 -283 -273 -9 0
-11 97 -10 390 l2 390 265 268 c146 148 270 270 277 270 6 1 14 -6 17 -15z
m-6554 -171 c0 -4 -121 -130 -268 -280 l-268 -273 -374 2 c-205 0 -379 3 -387
6 -7 3 -13 9 -13 13 0 4 118 127 263 274 l264 266 391 0 c216 0 392 -4 392 -8z
m2632 -259 c147 -147 268 -271 268 -275 0 -5 -175 -8 -390 -8 l-390 0 -265
261 c-146 144 -265 268 -265 275 0 12 68 14 387 14 l387 0 268 -267z m6362
259 c2 -4 -116 -130 -262 -280 l-267 -273 -374 1 c-361 2 -401 4 -401 20 0 4
118 127 263 273 l263 267 386 0 c213 0 389 -4 392 -8z m2638 -259 c147 -147
268 -271 268 -275 0 -5 -176 -8 -390 -8 l-391 0 -264 262 c-146 144 -265 267
-265 275 0 11 72 13 387 13 l387 0 268 -267z m-11543 -190 c0 -208 -4 -387 -8
-397 -4 -10 -128 -140 -276 -287 -204 -204 -271 -265 -277 -254 -5 8 -7 184
-6 392 l3 378 271 273 c148 149 275 272 282 272 8 0 11 -99 11 -377z m8997
-389 c-8 -32 -548 -566 -558 -551 -4 6 -8 179 -8 383 0 370 0 371 22 400 38
47 502 511 523 522 20 10 20 7 23 -361 1 -205 0 -381 -2 -393z m-8613 488
l267 -267 2 -389 c1 -254 -2 -391 -8 -393 -6 -2 -133 119 -282 269 l-272 273
0 388 c0 304 3 387 13 387 6 0 132 -120 280 -268z m927 -120 l0 -387 -274
-274 c-150 -150 -278 -271 -283 -268 -6 4 -9 157 -7 393 l2 387 269 269 c147
147 274 268 280 268 10 0 13 -83 13 -388z m393 120 l267 -268 0 -386 c0 -213
-4 -389 -9 -392 -8 -5 -517 496 -547 539 -11 16 -14 91 -14 397 0 354 1 378
18 378 9 0 137 -121 285 -268z m7681 -1 l268 -269 2 -387 c1 -269 -2 -389 -9
-392 -6 -2 -134 119 -283 269 l-272 272 0 388 c0 305 3 388 13 388 6 0 133
-121 281 -269z m926 -119 l0 -387 -274 -274 c-150 -150 -278 -271 -283 -268
-6 4 -8 155 -6 394 l3 388 268 268 c147 147 273 267 279 267 10 0 13 -83 13
-388z m392 121 l268 -268 0 -387 c0 -213 -4 -389 -8 -392 -12 -7 -542 523
-553 552 -5 13 -9 190 -9 393 0 344 1 369 17 369 10 0 138 -120 285 -267z
m-11374 -307 c9 -5 12 -114 12 -411 0 -389 -1 -405 -19 -415 -13 -6 -162 -10
-415 -10 -367 0 -396 1 -404 18 -4 9 -7 195 -6 412 2 328 5 396 17 405 16 12
796 13 815 1z m3572 -5 c15 -30 14 -803 -2 -819 -9 -9 -114 -12 -409 -12
l-398 0 -15 22 c-14 19 -16 75 -16 403 0 328 2 384 16 403 l15 22 399 0 c385
0 400 -1 410 -19z m4408 -3 c1 -7 -119 -134 -268 -283 l-270 -270 -382 -3
c-258 -2 -385 1 -392 8 -7 7 70 91 259 281 149 149 279 274 290 279 11 4 187
6 390 5 297 -3 371 -6 373 -17z m1020 9 c9 -6 12 -99 12 -407 0 -349 -2 -401
-16 -414 -13 -14 -65 -16 -414 -16 -234 0 -401 4 -405 9 -10 17 -7 812 4 824
11 14 798 17 819 4z m3572 -6 c6 -13 10 -161 10 -414 0 -323 -2 -397 -14 -406
-10 -8 -125 -11 -407 -11 -346 1 -396 3 -411 17 -17 15 -18 46 -18 409 0 344
2 395 16 408 13 14 65 16 414 16 385 0 400 -1 410 -19z m-13594 -4 c5 -4 -113
-129 -262 -277 l-270 -270 -387 0 c-303 0 -387 3 -387 13 0 15 6 20 303 315
l235 233 380 -3 c209 -2 384 -7 388 -11z m5828 -259 c146 -144 266 -267 266
-274 0 -6 -6 -13 -12 -15 -7 -2 -183 -2 -390 1 l-378 5 -264 264 c-146 146
-263 268 -260 273 3 4 178 8 388 8 l384 0 266 -262z m9000 0 c146 -145 266
-268 266 -274 0 -7 -6 -13 -12 -15 -7 -2 -183 -2 -390 1 l-378 5 -264 265
c-146 145 -262 268 -260 272 3 4 178 8 388 8 l383 0 267 -262z m-7636 -41
c155 -156 282 -290 282 -298 0 -19 -561 -579 -580 -579 -20 0 -580 561 -580
581 0 19 561 579 580 579 8 0 142 -128 298 -283z m7053 -309 c5 -7 9 -185 9
-395 0 -313 -2 -383 -13 -383 -8 0 -131 119 -275 265 l-262 265 0 388 c0 214
2 391 6 394 5 5 518 -506 535 -534z m-14157 480 c3 -29 6 -203 6 -387 l0 -334
-267 -269 c-155 -155 -274 -267 -283 -266 -12 3 -15 18 -15 71 0 37 2 210 3
384 l2 317 263 266 c144 147 267 268 273 269 6 0 14 -22 18 -51z m4899 -216
l267 -268 0 -387 c0 -310 -3 -387 -13 -387 -7 0 -131 119 -275 264 l-262 263
0 392 c0 215 3 391 8 391 4 0 128 -121 275 -268z m4099 221 c3 -27 7 -200 8
-387 l1 -338 -267 -269 c-167 -168 -276 -269 -288 -269 -18 0 -19 5 -13 98 4
53 7 227 7 386 l0 290 267 268 c147 147 270 268 274 268 3 0 9 -21 11 -47z
m-7055 -445 c156 -156 283 -290 283 -298 0 -20 -560 -580 -580 -580 -20 0
-580 560 -580 580 0 19 560 580 580 580 8 0 142 -127 297 -282z m1318 -2 c157
-156 285 -290 285 -298 0 -18 -562 -578 -580 -578 -20 0 -580 560 -580 580 0
18 560 580 578 580 7 0 141 -128 297 -284z m7682 2 c156 -156 283 -290 283
-298 0 -20 -560 -580 -580 -580 -20 0 -580 560 -580 580 0 19 560 580 580 580
8 0 141 -127 297 -282z m1318 -3 c157 -157 285 -291 285 -298 0 -18 -562 -577
-580 -577 -20 0 -580 560 -580 580 0 18 560 580 577 580 7 0 141 -128 298
-285z m-12917 -479 c1 -293 -1 -413 -9 -422 -9 -11 -84 -14 -402 -14 -349 0
-392 2 -409 17 -17 15 -18 41 -18 406 0 350 2 392 17 409 15 17 39 18 417 16
l401 -3 3 -409z m6746 398 c14 -13 16 -64 16 -408 0 -321 -3 -396 -14 -405 -9
-8 -126 -10 -412 -9 l-399 3 -3 405 c-1 223 0 411 3 417 3 10 92 13 399 13
345 0 397 -2 410 -16z m2243 2 c18 -7 19 -806 1 -824 -9 -9 -113 -12 -404 -12
-344 0 -395 2 -408 16 -14 13 -16 65 -16 409 0 373 1 395 19 407 14 10 100 13
407 11 214 -2 394 -5 401 -7z m6756 -4 c14 -16 16 -63 16 -409 -1 -294 -4
-395 -13 -402 -8 -6 -161 -11 -411 -11 -379 -2 -399 -1 -405 17 -4 10 -7 135
-8 278 -1 143 -5 314 -8 381 -5 83 -3 127 5 142 l12 22 398 0 c369 0 399 -1
414 -18z m-16673 -469 l0 -387 -267 -268 c-148 -147 -273 -268 -279 -268 -7 0
-14 10 -17 23 -2 12 -3 185 -2 385 l2 363 269 270 c148 148 275 269 281 269
10 0 13 -83 13 -387z m8074 118 l268 -269 0 -386 c0 -213 -3 -390 -6 -394 -4
-3 -130 117 -281 268 l-275 275 0 387 c0 305 3 388 13 388 6 0 133 -121 281
-269z m926 -118 l0 -387 -267 -268 c-148 -147 -274 -268 -281 -270 -11 -2 -13
72 -14 386 l-1 388 269 269 c148 148 275 269 281 269 10 0 13 -83 13 -387z
m8074 118 l269 -269 2 -369 c1 -202 -3 -379 -7 -393 -9 -23 -24 -9 -283 251
l-275 275 0 387 c1 299 3 387 13 387 7 0 133 -121 281 -269z m-14646 72 c0
-10 -122 -137 -270 -283 l-268 -265 -390 -3 c-306 -2 -390 0 -390 10 0 7 123
135 272 285 l273 273 387 0 c363 0 388 -1 386 -17z m3963 -250 c147 -148 269
-276 272 -285 6 -17 -16 -18 -371 -17 -207 0 -385 4 -395 7 -26 11 -557 543
-551 553 3 5 179 9 392 9 l387 0 266 -267z m5039 254 c0 -6 -122 -134 -270
-282 l-270 -270 -382 -3 c-257 -2 -385 1 -392 8 -7 7 73 93 265 285 l274 275
388 0 c304 0 387 -3 387 -13z m3962 -254 c148 -148 268 -276 268 -285 0 -17
-24 -18 -377 -18 -216 0 -384 4 -393 10 -32 20 -549 544 -544 552 3 4 179 8
392 8 l387 0 267 -267z m-12525 -45 c156 -156 283 -290 283 -298 0 -20 -560
-580 -580 -580 -9 0 -143 128 -299 284 -216 218 -281 289 -277 303 8 25 559
573 577 573 7 0 141 -127 296 -282z m1320 0 c156 -156 283 -290 283 -298 0
-20 -560 -580 -580 -580 -20 0 -580 560 -580 580 0 20 560 580 580 580 8 0
142 -127 297 -282z m1319 -3 c156 -157 284 -291 284 -298 0 -18 -562 -577
-580 -577 -20 0 -580 560 -580 580 0 18 560 580 578 580 7 0 141 -128 298
-285z m6361 3 c156 -156 283 -290 283 -298 0 -19 -560 -580 -580 -580 -19 0
-580 561 -580 580 0 19 560 580 580 580 8 0 142 -127 297 -282z m1320 0 c156
-156 283 -290 283 -298 0 -20 -560 -580 -580 -580 -20 0 -580 560 -580 580 0
20 560 580 580 580 8 0 142 -127 297 -282z m1319 -4 c156 -157 284 -291 284
-297 0 -18 -562 -577 -580 -577 -20 0 -580 560 -580 580 0 18 560 580 578 580
8 0 142 -129 298 -286z m-12972 -344 l362 0 272 -272 c150 -149 272 -274 272
-278 0 -5 -6 -10 -12 -12 -7 -2 -183 -4 -391 -3 l-378 1 -270 270 c-148 148
-269 274 -269 281 0 14 20 23 38 17 8 -2 177 -4 376 -4z m13767 0 c282 0 359
-3 359 -13 0 -6 -121 -133 -269 -281 l-268 -268 -387 0 c-213 0 -390 2 -393 6
-8 8 525 545 552 556 11 5 26 7 33 4 8 -2 175 -4 373 -4z m-14461 -13 c0 -6
-121 -133 -269 -281 l-268 -268 -388 -1 c-251 -1 -390 3 -392 9 -2 6 119 133
269 282 l273 272 388 0 c304 0 387 -3 387 -13z m5820 0 c0 -6 -121 -133 -270
-282 l-270 -269 -386 -1 c-212 0 -388 4 -391 9 -3 4 118 132 268 282 l274 274
387 0 c305 0 388 -3 388 -13z m1330 -262 c151 -151 271 -277 268 -281 -4 -3
-180 -7 -392 -8 l-386 -1 -270 270 c-148 148 -270 276 -270 282 0 10 83 13
388 13 l387 0 275 -275z m1850 262 c0 -6 -120 -133 -268 -280 l-267 -267 -390
-3 c-310 -1 -390 1 -390 11 0 7 121 134 270 282 l270 270 387 0 c305 0 388 -3
388 -13z m1328 -258 c150 -149 271 -276 269 -282 -2 -7 -124 -11 -390 -11
l-387 -1 -270 270 c-148 148 -270 276 -270 282 0 10 83 13 388 13 l388 0 272
-271z m5817 1 c149 -148 270 -275 270 -282 0 -10 -79 -13 -389 -11 l-389 1
-269 269 c-147 147 -268 274 -268 280 0 10 83 13 388 13 l387 0 270 -270z"/>
</g>
</svg>
