<?xml version="1.0" standalone="no"?>
<!DOCTYPE svg PUBLIC "-//W3C//DTD SVG 20010904//EN"
 "http://www.w3.org/TR/2001/REC-SVG-20010904/DTD/svg10.dtd">
<svg version="1.0" xmlns="http://www.w3.org/2000/svg"
 width="600.000000pt" height="598.000000pt" viewBox="0 0 600.000000 598.000000"
 preserveAspectRatio="xMidYMid meet">
<g transform="translate(0.000000,598.000000) scale(0.100000,-0.100000)"
fill="#000000" stroke="none">
<path d="M678 5843 l-136 -138 4 -114 c2 -63 2 -123 -2 -133 -5 -16 -19 -18
-136 -18 l-131 0 -139 -137 -138 -137 0 -101 0 -100 138 -138 137 -137 133 0
c98 0 132 -3 133 -12 0 -7 0 -166 0 -353 l0 -340 -271 -271 -270 -271 0 -94
-1 -94 153 -147 153 -148 -60 -57 c-33 -32 -102 -98 -153 -146 l-92 -88 0 -94
0 -94 270 -273 270 -273 2 -307 c1 -170 2 -327 3 -350 l0 -43 -135 -3 -135 -2
-137 -138 -138 -137 0 -98 0 -97 134 -138 134 -137 138 -5 138 -5 3 -135 3
-135 102 -102 103 -103 175 0 175 0 93 91 92 91 0 149 0 149 364 0 c346 0 366
-1 378 -19 7 -10 47 -55 88 -98 41 -44 133 -144 205 -222 l129 -141 171 0 171
0 106 85 c59 47 113 85 120 85 12 0 80 -50 190 -140 l37 -30 173 1 173 0 155
172 c85 94 184 202 220 240 l65 68 355 -1 c194 0 356 -3 359 -6 3 -3 5 -70 6
-149 l0 -145 90 -90 90 -90 175 0 175 0 108 108 107 107 0 131 0 131 34 6 c19
3 78 3 131 0 l97 -6 119 119 119 119 0 145 0 145 -113 112 -113 113 -137 0
-137 0 0 353 0 352 250 250 250 250 0 141 0 142 -37 32 c-21 18 -80 74 -132
123 l-95 90 65 59 c35 33 94 87 132 120 l67 61 0 141 0 142 -250 249 -250 250
2 350 3 350 139 5 139 5 108 115 108 115 1 140 0 140 -111 112 c-60 62 -120
115 -132 118 -12 3 -74 6 -137 8 l-115 2 -5 137 -5 136 -135 131 -135 130
-115 1 -115 0 -120 -120 -120 -120 -3 -150 -3 -150 -359 0 -358 0 -78 87 c-44
47 -155 169 -248 270 l-170 183 -105 0 -106 0 -90 -70 c-49 -39 -116 -91 -149
-116 -32 -25 -64 -43 -71 -40 -8 3 -77 55 -153 115 l-140 111 -109 -1 -108 0
-105 -115 c-58 -64 -123 -135 -145 -158 -22 -24 -85 -93 -140 -154 l-100 -111
-362 -1 -363 0 0 152 0 152 -119 118 -119 118 -119 0 -119 0 -136 -137z m362
-48 c57 -57 108 -111 112 -119 5 -9 7 -64 6 -123 l-3 -108 -237 -3 -238 -2 0
104 0 105 123 125 c67 69 125 125 128 126 3 0 52 -47 109 -105z m4203 -24
l128 -128 -3 -99 -3 -99 -237 -3 -238 -2 0 122 0 123 107 107 c59 60 110 108
113 108 3 0 63 -58 133 -129z m-2423 -40 c126 -102 182 -141 202 -141 27 0 50
16 282 202 66 54 124 98 127 98 3 0 43 -42 89 -92 45 -51 131 -144 189 -207
58 -63 112 -122 119 -132 13 -18 4 -19 -273 -19 -159 0 -294 -4 -304 -9 -10
-6 -25 -27 -34 -48 -71 -165 -136 -322 -142 -342 -4 -14 -18 -45 -30 -69 -27
-53 -19 -64 -100 133 -32 77 -70 170 -86 207 -16 36 -29 70 -29 74 0 4 -10 18
-22 31 l-21 23 -289 0 c-199 0 -288 3 -288 11 0 6 17 27 38 48 20 21 62 64 92
97 266 288 272 294 288 284 10 -5 96 -72 192 -149z m-2284 -432 c11 -9 14 -55
14 -233 0 -148 -4 -226 -11 -233 -7 -7 -45 -9 -113 -6 l-101 5 -112 112 c-62
61 -113 115 -113 120 0 10 194 204 227 226 28 20 188 27 209 9z m608 5 c14 -5
16 -35 16 -234 0 -126 -3 -231 -7 -233 -5 -3 -111 -7 -238 -8 l-230 -4 -3 230
c-1 126 0 235 2 242 4 10 57 13 225 13 121 0 226 -3 235 -6z m730 -3 c3 -4
-45 -60 -106 -126 -281 -306 -271 -293 -265 -339 4 -34 171 -448 223 -553 24
-47 15 -54 -36 -33 -83 35 -484 192 -539 211 -102 36 -96 39 -293 -158 l-178
-178 0 283 0 282 289 0 c288 0 290 0 305 22 14 19 16 65 16 304 0 154 2 283 5
285 7 8 575 7 579 0z m838 -9 c4 -4 59 -129 122 -278 l116 -271 -22 -54 c-11
-30 -27 -70 -34 -89 -31 -82 -195 -533 -224 -617 -18 -52 -38 -93 -45 -93 -14
0 -211 75 -305 115 -30 13 -98 40 -150 60 -52 20 -129 50 -171 66 l-75 30 -49
117 c-72 176 -122 297 -164 397 -21 50 -44 107 -51 127 l-14 37 105 113 c57
62 127 138 154 168 28 30 78 84 112 120 l61 65 314 -3 c172 -2 316 -6 320 -10z
m1297 -30 c19 -20 78 -84 130 -142 53 -58 123 -134 156 -170 33 -36 71 -77 84
-92 l23 -26 -76 -179 c-41 -98 -104 -248 -140 -333 -74 -178 -47 -155 -276
-243 -223 -86 -262 -101 -385 -151 -76 -30 -112 -41 -116 -33 -4 7 -46 120
-93 252 -47 132 -115 319 -150 415 -36 96 -66 179 -66 184 0 9 38 101 172 413
l61 143 161 2 c89 2 233 2 321 0 l160 -3 34 -37z m737 35 c4 -4 8 -133 8 -286
1 -259 2 -280 20 -300 18 -20 29 -21 305 -23 l286 -3 3 -269 c1 -148 -1 -273
-6 -278 -4 -4 -86 71 -181 167 -157 158 -177 175 -208 175 -35 0 -98 -23 -453
-165 -113 -45 -208 -81 -212 -79 -3 2 8 39 27 82 148 346 207 490 212 514 8
39 -5 56 -204 270 -96 104 -172 192 -169 196 6 11 562 9 572 -1z m622 -228 c3
-253 3 -249 -48 -244 -14 1 -116 3 -227 4 l-203 1 0 233 c0 129 3 237 7 241 4
3 110 5 237 4 l231 -3 3 -236z m455 122 c64 -63 117 -120 117 -126 0 -6 -51
-60 -112 -122 l-113 -111 -95 -4 c-52 -3 -101 -3 -107 -1 -10 4 -13 60 -13
237 0 128 3 236 7 240 4 4 51 6 103 5 l95 -3 118 -115z m-2753 -762 c0 -5 39
-113 86 -241 120 -325 128 -349 118 -357 -9 -8 -131 -57 -210 -85 -40 -14 -44
-13 -168 34 -69 26 -128 49 -131 52 -2 2 9 40 26 84 16 43 38 104 49 134 10
30 35 100 55 155 20 55 50 138 67 184 16 47 36 101 45 120 l15 36 24 -54 c13
-29 24 -57 24 -62z m2300 -795 c0 -221 -3 -294 -12 -302 -7 -5 -98 -44 -203
-85 -104 -42 -257 -104 -339 -137 l-150 -61 -140 57 c-157 63 -270 108 -456
179 -69 26 -129 51 -134 55 -4 5 31 100 78 212 48 111 100 235 116 273 16 39
44 105 62 148 l33 78 60 24 c33 13 114 44 180 70 159 61 196 75 355 139 l135
54 208 -206 207 -207 0 -291z m-4160 655 c58 -22 132 -51 165 -64 169 -66 226
-88 295 -114 142 -54 149 -58 169 -104 23 -50 115 -271 143 -342 11 -27 27
-68 37 -90 66 -146 93 -215 88 -227 -2 -7 -45 -29 -93 -47 -148 -57 -437 -171
-474 -187 -19 -9 -63 -27 -98 -40 l-63 -23 -77 30 c-42 17 -108 43 -147 59
-165 65 -466 188 -470 192 -2 2 -5 136 -6 298 l-2 294 204 203 c112 112 208
203 214 203 6 0 57 -18 115 -41z m959 -374 c49 -19 92 -35 96 -35 3 0 37 -13
73 -29 37 -15 106 -43 155 -62 49 -19 87 -39 87 -47 0 -20 -81 -235 -94 -248
-6 -7 -61 -32 -123 -56 -107 -43 -133 -46 -133 -15 0 4 -18 52 -41 105 -67
162 -90 216 -99 237 -46 103 -86 205 -82 209 2 3 20 -1 39 -9 18 -8 73 -30
122 -50z m1871 56 c0 -5 -14 -40 -31 -78 -17 -37 -46 -106 -64 -153 -33 -83
-58 -143 -94 -225 -10 -22 -24 -57 -32 -77 -8 -23 -20 -38 -29 -38 -21 0 -212
78 -227 93 -18 18 -104 250 -95 258 6 7 154 67 417 169 61 23 114 46 120 51
12 12 35 12 35 0z m-3498 -471 c-6 -278 -12 -261 123 -315 103 -41 246 -97
420 -166 65 -25 121 -51 122 -56 2 -5 -29 -23 -69 -38 -422 -167 -565 -227
-582 -247 -17 -22 -18 -39 -13 -281 3 -189 2 -257 -7 -255 -6 2 -108 101 -226
221 -211 215 -215 219 -194 236 86 69 374 347 374 360 -1 23 -6 29 -208 215
-100 92 -182 170 -182 172 0 2 98 101 218 221 200 201 217 216 223 193 3 -14
4 -131 1 -260z m5198 55 c107 -107 196 -201 198 -208 1 -6 -83 -90 -188 -186
-204 -186 -213 -200 -167 -244 12 -12 97 -91 190 -176 92 -85 167 -159 167
-165 0 -12 -420 -436 -432 -436 -5 0 -8 117 -8 261 0 144 -4 268 -9 278 -6 11
-132 66 -335 147 -179 71 -326 132 -326 135 0 3 33 19 73 34 39 16 135 54 212
85 77 31 184 74 238 95 54 20 109 46 122 57 l25 19 0 271 0 271 23 -21 c12
-11 110 -109 217 -217z m-2880 90 c74 -30 147 -55 161 -55 15 0 89 25 165 55
75 31 141 52 145 48 5 -5 22 -49 39 -98 17 -50 42 -118 57 -152 28 -69 18 -62
216 -137 53 -21 97 -42 97 -47 0 -5 -27 -72 -60 -150 -33 -77 -60 -145 -60
-149 0 -8 46 -120 90 -216 41 -91 47 -83 -107 -143 -76 -29 -142 -57 -147 -62
-12 -10 -49 -105 -87 -216 -17 -51 -34 -95 -39 -98 -4 -3 -66 19 -136 48 -71
30 -140 56 -154 60 -18 4 -68 -12 -170 -53 -108 -43 -148 -55 -156 -47 -6 7
-18 32 -27 57 -60 172 -81 227 -94 242 -14 16 -41 28 -200 88 -93 35 -96 41
-63 112 52 114 90 211 90 230 0 11 -16 57 -36 102 -85 194 -84 190 -71 202 7
7 56 28 109 48 173 64 169 60 204 151 17 44 44 115 59 158 15 42 30 77 34 77
3 0 67 -25 141 -55z m-660 -492 c12 -32 36 -88 52 -125 l28 -67 -43 -103 c-25
-57 -47 -113 -51 -125 -4 -13 -11 -23 -16 -23 -5 0 -116 43 -247 95 -131 52
-268 107 -306 122 -37 14 -66 31 -64 36 1 5 43 25 92 44 50 19 101 39 115 45
172 70 397 158 406 158 6 0 21 -26 34 -57z m1921 -36 c129 -51 267 -106 307
-121 39 -15 72 -31 72 -34 0 -4 -62 -31 -138 -61 -75 -30 -215 -86 -310 -124
-96 -38 -177 -66 -181 -61 -4 5 -29 62 -56 126 l-48 117 48 118 c54 134 53
133 64 133 5 0 114 -42 242 -93z m-2630 -288 c57 -23 178 -70 269 -106 91 -36
190 -75 220 -88 30 -12 72 -28 93 -35 23 -7 37 -18 37 -28 0 -15 -51 -142 -95
-237 -7 -16 -41 -95 -74 -175 -33 -80 -73 -176 -89 -215 -32 -78 -30 -76 -172
-131 -143 -54 -311 -120 -448 -175 -68 -27 -129 -49 -135 -49 -7 0 -103 91
-215 203 l-202 203 0 293 c0 161 2 296 4 300 5 8 52 28 411 171 149 60 275
109 281 109 7 1 58 -17 115 -40z m3269 7 c136 -54 353 -143 380 -154 14 -6 68
-28 120 -48 52 -20 98 -41 102 -48 4 -6 8 -141 8 -300 l0 -290 -206 -207 -207
-207 -31 13 c-17 8 -85 35 -151 60 -66 26 -176 68 -245 95 -69 27 -165 64
-215 83 l-89 35 -29 69 c-90 213 -166 393 -213 503 -30 69 -54 130 -54 135 0
6 39 25 88 44 146 56 390 152 517 203 66 26 125 48 130 48 6 0 48 -15 95 -34z
m-2396 -351 c61 -24 115 -50 122 -57 13 -14 94 -230 94 -251 0 -7 -17 -19 -37
-26 -48 -17 -150 -59 -183 -76 -14 -7 -43 -18 -65 -25 -48 -15 -209 -77 -249
-96 -35 -17 -50 -10 -36 17 15 27 199 465 217 517 8 23 18 42 21 42 4 0 56
-20 116 -45z m1518 -150 c44 -105 95 -228 114 -275 20 -47 38 -91 41 -97 10
-25 -31 -12 -297 95 -41 16 -118 46 -170 67 -52 20 -98 40 -102 44 -7 6 28
115 72 221 18 44 20 46 132 92 62 26 117 46 122 45 4 -2 44 -88 88 -192z
m-735 -191 c65 -25 122 -49 127 -54 5 -5 2 -27 -7 -52 -13 -36 -141 -389 -219
-601 -11 -32 -24 -55 -29 -50 -4 4 -26 60 -49 123 -126 351 -151 422 -179 494
-17 44 -28 82 -25 85 6 6 244 100 256 101 3 0 59 -21 125 -46z m-494 -156 c8
-24 48 -133 88 -243 90 -251 116 -323 167 -460 l41 -110 -118 -275 -117 -275
-185 -5 c-101 -3 -246 -4 -321 -2 l-137 3 -143 157 c-79 86 -168 183 -198 215
-86 92 -88 97 -62 154 11 26 35 82 52 123 17 41 45 107 61 145 16 39 55 132
87 208 l57 139 55 22 c30 12 98 39 150 59 52 20 185 72 295 116 110 43 203 77
206 75 3 -2 13 -23 22 -46z m882 4 c103 -42 443 -175 527 -207 26 -10 52 -23
56 -29 9 -11 269 -626 278 -656 3 -9 -58 -83 -157 -190 -89 -96 -185 -201
-213 -233 l-51 -57 -321 0 -322 0 -42 103 c-23 56 -52 125 -65 152 -12 28 -39
91 -60 140 -21 50 -44 105 -53 123 -14 32 -13 38 21 135 20 56 52 145 72 197
28 73 124 341 200 559 3 7 11 11 18 8 6 -3 57 -23 112 -45z m-2453 -550 c40 5
164 51 517 193 74 30 137 52 139 50 3 -2 -48 -129 -113 -282 -65 -153 -120
-297 -123 -319 l-4 -42 153 -167 c85 -92 171 -187 192 -211 l39 -44 -296 0
-296 0 0 287 c0 252 -2 289 -17 305 -15 17 -38 18 -305 18 l-288 0 0 282 0
282 179 -178 180 -179 43 5z m4286 62 l-3 -269 -292 -5 c-160 -3 -293 -7 -296
-10 -26 -30 -29 -64 -26 -324 l4 -271 -292 -3 c-161 -1 -293 0 -293 4 0 3 69
80 154 172 197 213 226 249 226 275 0 12 -56 155 -125 317 -68 162 -123 296
-121 298 3 3 169 -60 256 -98 145 -62 386 -150 413 -150 28 0 53 21 207 175
96 96 178 171 182 167 5 -5 7 -130 6 -278z m-4820 -638 c1 -138 -1 -233 -7
-239 -6 -6 -54 -9 -107 -9 l-97 1 -101 98 c-55 54 -109 109 -120 122 l-19 23
120 120 120 119 104 -3 104 -3 3 -229z m610 -8 l2 -238 -240 0 -240 0 0 240 0
240 238 -2 237 -3 3 -237z m4210 0 l2 -238 -240 0 -240 0 0 233 c0 129 3 237
7 241 4 3 110 5 237 4 l231 -3 3 -237z m454 126 c62 -63 115 -120 117 -126 2
-6 -48 -62 -110 -124 l-114 -114 -107 0 -108 0 0 233 c0 129 3 237 7 240 3 4
50 7 104 7 l98 0 113 -116z m-2717 -176 c105 -258 116 -283 138 -306 21 -23
21 -23 305 -21 156 0 286 -1 288 -4 3 -3 -61 -76 -142 -164 -81 -87 -171 -184
-200 -216 -30 -31 -59 -57 -65 -57 -6 0 -49 30 -96 67 -317 252 -298 238 -327
225 -13 -6 -103 -74 -199 -151 -97 -78 -183 -141 -190 -141 -8 0 -36 24 -62
52 -78 87 -236 257 -297 322 -32 33 -55 62 -52 65 3 3 132 4 288 3 260 -3 284
-2 304 15 20 16 54 91 169 373 53 129 53 129 70 97 7 -15 38 -87 68 -159z
m-2169 -328 l224 0 0 -117 0 -116 -112 -114 -112 -113 -127 126 c-141 141
-141 140 -131 273 4 57 8 71 19 67 8 -4 116 -6 239 -6z m4434 -103 l0 -102
-130 -130 -130 -130 -110 114 -110 113 0 119 0 119 240 0 240 0 0 -103z"/>
</g>
</svg>
