<?xml version="1.0" standalone="no"?>
<!DOCTYPE svg PUBLIC "-//W3C//DTD SVG 20010904//EN"
 "http://www.w3.org/TR/2001/REC-SVG-20010904/DTD/svg10.dtd">
<svg version="1.0" xmlns="http://www.w3.org/2000/svg"
 width="514.000000pt" height="515.000000pt" viewBox="0 0 514.000000 515.000000"
 preserveAspectRatio="xMidYMid meet">
<g transform="translate(0.000000,515.000000) scale(0.100000,-0.100000)"
fill="#000000" stroke="none">
<path d="M289 5131 c37 -19 35 -22 -21 -40 -21 -7 -38 -16 -38 -20 0 -4 14
-20 30 -36 17 -16 30 -33 30 -38 0 -5 -25 -7 -55 -5 -30 1 -55 2 -55 0 0 -1 9
-20 20 -42 29 -56 25 -62 -26 -40 -25 11 -48 20 -50 20 -2 0 -4 -22 -4 -50 0
-27 -2 -50 -5 -50 -3 0 -20 17 -39 38 l-35 37 -20 -48 c-16 -37 -21 -70 -21
-135 0 -81 4 -95 60 -244 l60 -157 0 -220 0 -219 -60 -24 c-56 -21 -60 -25
-60 -55 0 -29 4 -33 60 -55 l60 -23 0 -80 0 -79 -61 -62 c-52 -52 -60 -66 -57
-92 l3 -31 62 60 63 60 0 -59 0 -59 70 -27 c38 -15 70 -29 70 -30 0 -2 -31
-15 -70 -30 l-70 -28 0 -66 0 -66 -65 64 -65 64 0 -35 c0 -29 9 -44 60 -94
l60 -59 0 -83 0 -82 -60 -22 -60 -22 0 -53 c0 -45 4 -56 27 -74 17 -13 38 -20
57 -18 29 3 32 0 41 -39 6 -23 21 -53 34 -67 l25 -26 -27 -28 c-17 -18 -27
-41 -29 -67 -3 -39 -4 -40 -43 -43 -60 -5 -85 -34 -85 -98 l0 -52 60 -22 60
-22 0 -82 0 -82 -60 -59 c-51 -50 -60 -65 -60 -94 l0 -35 65 64 65 64 0 -71 0
-71 65 -28 c36 -15 62 -30 58 -34 -4 -4 -34 -17 -65 -30 l-58 -22 0 -59 c0
-33 -3 -59 -7 -59 -4 0 -33 26 -65 57 l-58 57 0 -35 c0 -29 9 -44 60 -94 l60
-59 0 -82 0 -82 -60 -22 -60 -22 0 -42 0 -41 67 -26 68 -26 3 -219 3 -219 -63
-165 c-34 -91 -65 -166 -70 -168 -11 -5 -10 -146 1 -157 5 -6 14 -27 21 -47 6
-21 16 -38 20 -38 5 0 25 14 45 31 l35 31 0 -51 c0 -57 9 -62 61 -35 17 8 33
13 36 11 2 -3 -5 -25 -16 -49 l-20 -43 57 -5 57 -5 -25 -20 c-54 -44 -55 -52
-11 -74 32 -17 59 -21 129 -21 85 0 97 3 247 60 l157 60 220 -2 220 -3 22 -55
c19 -48 26 -55 52 -58 29 -3 32 0 58 67 l28 71 82 0 83 0 67 -70 c53 -55 74
-70 97 -70 16 0 29 3 29 7 0 4 -35 43 -77 85 l-78 78 60 0 60 0 24 62 c14 35
27 67 31 71 4 4 19 -24 34 -62 l27 -70 80 -3 80 -3 -70 -77 c-39 -42 -71 -79
-71 -82 0 -3 15 -6 33 -5 27 1 42 12 92 69 l60 68 85 1 85 1 22 -59 c13 -32
23 -63 23 -70 0 -6 17 -11 40 -11 56 0 99 47 100 108 l0 42 42 0 c32 0 49 6
70 27 l28 27 28 -27 c20 -19 39 -27 65 -27 36 0 37 -1 37 -38 0 -28 7 -45 25
-62 14 -13 23 -30 21 -37 -4 -10 8 -13 47 -13 l52 0 26 68 26 67 84 3 84 3 57
-63 c32 -35 58 -66 58 -70 0 -10 67 -10 73 0 3 4 -28 41 -69 82 l-74 75 69 3
69 3 25 62 c14 34 28 62 32 62 4 0 18 -28 32 -62 l25 -62 78 -3 79 -3 -70 -74
c-38 -41 -69 -78 -69 -83 0 -11 68 -10 72 1 2 5 29 37 60 70 l58 61 83 0 83 0
24 -70 c24 -70 24 -70 61 -70 37 0 38 1 64 70 l27 70 221 0 220 0 161 -61 c89
-34 163 -66 164 -70 7 -18 147 -10 190 11 22 11 46 20 52 20 18 0 11 13 -27
52 l-37 38 52 0 c58 0 61 5 37 65 -16 37 -16 37 7 30 13 -4 35 -14 50 -21 15
-8 29 -14 32 -14 2 0 2 26 -1 57 l-6 58 40 -38 c21 -20 42 -37 45 -37 4 0 14
20 23 45 10 24 21 42 26 39 5 -3 9 31 9 75 0 43 -4 81 -8 83 -5 2 -36 77 -70
168 l-63 165 3 219 3 219 67 26 68 26 0 43 c0 34 -3 43 -14 39 -8 -3 -44 6
-80 20 l-66 26 0 81 0 82 64 63 c56 55 67 62 80 51 14 -11 16 -8 16 23 0 19
-7 40 -15 47 -13 11 -27 2 -93 -61 -42 -41 -80 -78 -84 -84 -4 -5 -8 23 -8 63
l0 73 -72 33 -72 33 72 28 72 28 0 91 0 91 84 -84 c73 -72 87 -83 100 -71 9 7
16 28 16 47 0 31 -2 34 -16 23 -13 -11 -24 -4 -80 51 l-64 63 0 82 0 82 65 26
c35 14 71 23 80 20 12 -5 15 4 15 56 0 51 -2 60 -13 51 -10 -8 -20 -4 -40 17
-21 22 -34 27 -67 25 l-40 -2 0 42 c0 31 -7 48 -27 69 l-27 28 27 28 c19 20
27 39 27 65 0 35 2 37 33 37 24 0 41 8 62 30 27 28 30 29 47 13 17 -15 18 -13
18 47 0 52 -3 61 -15 56 -9 -3 -45 6 -80 20 l-65 26 0 82 0 82 64 63 c56 55
67 62 80 51 14 -11 16 -8 16 23 0 19 -7 40 -16 47 -13 12 -26 2 -92 -63 -43
-42 -81 -77 -85 -77 -4 0 -7 31 -7 69 l0 69 -65 27 c-35 15 -63 31 -60 35 2 4
31 17 64 30 l60 24 3 73 3 72 83 -75 c68 -63 85 -74 97 -64 8 7 15 28 15 47 0
31 -2 34 -16 23 -13 -11 -24 -4 -80 51 l-64 63 0 79 0 78 55 25 c31 13 67 24
80 24 22 0 25 4 25 36 0 28 -3 35 -15 30 -9 -3 -45 6 -81 20 l-65 26 3 232 3
231 60 153 c33 83 62 152 65 152 4 0 11 -12 17 -27 9 -23 11 -2 11 102 1 100
-2 124 -10 105 l-10 -25 -19 40 c-10 22 -20 45 -22 50 -3 6 -23 -8 -46 -30
l-41 -39 0 52 c0 29 -4 52 -9 52 -5 0 -25 -7 -44 -15 -49 -20 -49 -20 -31 23
9 20 18 43 21 50 4 9 -9 12 -46 12 -28 0 -51 3 -51 7 0 4 14 22 32 40 17 18
30 34 27 37 -2 2 -22 13 -44 24 l-40 20 25 11 c19 7 -4 10 -95 9 -66 0 -112
-2 -102 -5 9 -2 17 -8 17 -11 0 -4 -74 -35 -165 -69 l-165 -63 -219 0 -219 0
-26 66 c-14 37 -23 71 -20 75 3 5 -15 9 -39 9 -41 0 -45 -2 -50 -27 -3 -16
-15 -49 -26 -75 l-20 -48 -80 0 -79 0 -59 61 c-32 34 -57 67 -57 75 2 17 -61
20 -71 4 -4 -6 23 -43 60 -83 l66 -72 -69 -3 -69 -3 -27 -69 c-15 -39 -29 -70
-31 -70 -2 0 -16 32 -31 70 l-27 70 -70 0 -69 0 66 72 c37 39 65 76 63 82 -2
6 -20 12 -40 14 -27 2 -36 0 -32 -10 2 -7 -22 -41 -54 -75 l-58 -63 -81 0 -82
0 -16 38 c-8 20 -21 54 -27 75 -11 36 -14 37 -57 37 -41 0 -48 -4 -72 -39 -18
-25 -28 -52 -28 -75 0 -35 -1 -36 -37 -36 -26 0 -45 -8 -64 -26 l-27 -26 -35
26 c-22 17 -46 26 -70 26 -36 0 -37 1 -37 38 0 28 -7 45 -25 62 -14 13 -23 30
-21 37 4 10 -8 13 -44 13 -42 0 -50 -3 -50 -19 0 -10 -11 -44 -25 -75 l-25
-56 -78 0 -78 0 -63 64 c-38 39 -61 69 -56 76 5 8 -4 10 -31 8 -22 -2 -39 -8
-39 -14 0 -7 29 -43 65 -80 l65 -69 -74 -5 -73 -5 -26 -62 c-14 -34 -28 -60
-32 -58 -4 3 -18 32 -30 65 l-22 60 -61 0 -61 0 73 74 c41 42 70 79 67 85 -4
6 -23 11 -42 11 -23 0 -33 -4 -28 -11 3 -6 -22 -39 -57 -75 l-63 -64 -82 0
-82 0 -26 66 c-14 37 -23 71 -20 75 3 5 -13 9 -36 9 -37 0 -40 -2 -35 -22 3
-13 -5 -49 -19 -83 l-24 -60 -219 -3 -218 -3 -167 63 c-152 57 -192 77 -155
78 6 1 26 7 42 14 27 12 14 14 -120 14 -149 0 -150 0 -116 -17z m2515 -106
l29 -75 85 0 86 0 -52 -53 -52 -53 25 -63 c15 -35 24 -65 22 -68 -3 -2 -33 7
-68 22 l-63 25 -43 -42 -42 -41 -3 84 -3 84 -67 25 c-37 15 -71 29 -74 33 -4
4 1 16 11 27 14 15 31 20 72 20 l53 0 0 52 c0 39 5 57 22 75 12 13 24 23 27
23 4 0 19 -34 35 -75z m1970 57 l39 -17 -37 -33 -37 -32 -132 1 c-73 0 -127 3
-122 5 42 19 232 93 240 93 6 0 28 -7 49 -17z m-2441 -10 c9 -10 17 -40 19
-72 l3 -55 50 3 c43 3 54 -1 74 -22 14 -14 23 -28 20 -30 -2 -2 -31 -15 -64
-28 l-60 -24 -3 -94 -3 -94 -54 54 -54 54 -66 -27 c-36 -15 -67 -27 -70 -27
-2 0 9 30 25 68 l29 67 -51 52 -51 52 88 3 88 3 26 68 c14 37 29 67 32 67 3 0
13 -8 22 -18z m-1826 -34 c62 -24 113 -45 113 -48 0 -3 -57 -4 -127 -2 l-128
3 -27 32 -27 32 32 12 c46 17 41 17 164 -29z m3519 -86 l179 -3 -65 -28 c-36
-15 -111 -47 -167 -70 l-103 -43 0 -81 0 -81 -58 57 -58 57 -63 -25 c-35 -15
-65 -24 -68 -22 -2 3 7 33 22 68 l25 63 -52 53 -52 53 86 0 86 0 17 43 c9 23
21 53 27 67 9 24 11 21 37 -40 l28 -65 179 -3z m-2584 -2 l73 0 -55 -49 -54
-49 27 -68 c15 -37 25 -69 23 -71 -2 -2 -29 8 -61 22 -32 14 -63 25 -69 25 -6
0 -26 -16 -43 -35 -18 -19 -35 -35 -39 -35 -4 0 -4 18 0 39 3 22 3 46 0 54 -3
8 -75 43 -159 78 l-154 64 173 3 174 2 23 62 22 61 23 -52 23 -51 73 0z m3408
-7 c2 -2 -4 -21 -15 -40 -17 -32 -35 -43 -130 -84 -60 -26 -114 -48 -120 -48
-5 0 35 42 90 94 94 88 102 93 135 88 19 -3 37 -7 40 -10z m-280 -110 c-67
-65 -136 -125 -153 -134 -82 -41 -388 -161 -400 -156 -8 3 -30 25 -50 49 -33
40 -37 51 -39 113 l-3 69 210 87 210 87 173 2 173 1 -121 -118z m-4122 12 l97
-95 -125 54 c-110 46 -127 57 -142 87 -24 48 -23 49 28 49 44 0 49 -3 142 -95z
m540 0 l197 -82 3 -74 3 -74 -49 -48 -48 -47 -201 83 c-221 92 -235 101 -383
252 l-85 87 183 -7 183 -8 197 -82z m743 10 c32 -77 34 -64 -20 -187 l-20 -47
-81 33 -82 33 -29 73 -30 73 48 49 48 49 68 -3 68 -3 30 -70z m336 33 c24 -23
43 -50 43 -59 0 -9 -13 -46 -29 -81 l-28 -64 -81 -31 -80 -30 -31 73 c-17 40
-31 79 -31 86 0 7 12 43 27 80 l26 68 71 0 c69 0 71 -1 113 -42z m1156 -36
l30 -73 -33 -77 c-18 -42 -33 -78 -35 -80 -1 -1 -38 11 -83 28 l-80 31 -31 77
-32 77 53 47 c53 48 53 48 117 46 l65 -3 29 -73z m334 28 l51 -50 -29 -74 -30
-73 -81 -32 c-44 -17 -82 -30 -84 -28 -2 1 -17 36 -35 77 -34 81 -34 78 12
188 l18 42 63 0 c62 0 64 -1 115 -50z m-929 -52 l52 -21 0 -81 0 -82 -65 -64
-65 -64 -65 64 -65 64 0 82 0 81 63 25 c34 15 69 24 77 21 8 -3 39 -14 68 -25z
m2312 -9 c0 -37 -7 -48 -87 -134 -48 -52 -89 -92 -91 -90 -2 2 18 56 45 119
43 104 51 117 83 130 49 21 50 21 50 -25z m-4718 15 c29 -13 40 -31 85 -135
28 -65 50 -119 48 -119 -1 0 -43 42 -93 93 -87 87 -92 94 -92 135 0 47 5 49
52 26z m-104 -224 l-3 -133 -48 124 -48 124 17 43 17 43 34 -33 34 -34 -3
-134z m4950 175 c7 -14 12 -34 12 -43 0 -19 -82 -242 -90 -242 -3 0 -4 57 -2
127 3 122 5 129 30 156 32 33 36 33 50 2z m-281 8 c-2 -5 -35 -79 -72 -165
l-69 -157 -157 -157 -158 -157 -67 34 c-63 32 -69 37 -91 93 l-25 59 156 156
156 156 157 72 c161 72 177 79 170 66z m-3982 -303 l159 -159 -28 -64 c-27
-63 -29 -65 -92 -92 l-66 -28 -156 157 c-156 156 -157 158 -201 259 -25 56
-55 125 -68 154 -13 28 -23 56 -23 61 0 6 71 -21 158 -60 l159 -70 158 -158z
m1035 120 c0 -13 -51 -30 -76 -24 -30 8 -30 8 2 80 l26 59 24 -54 c13 -29 24
-57 24 -61z m1489 4 c1 -19 -46 -34 -73 -24 l-25 9 27 62 27 62 22 -49 c12
-27 22 -54 22 -60z m-1914 57 l70 -30 32 -81 32 -82 -32 -13 c-18 -7 -54 -23
-80 -34 l-49 -21 -74 31 -74 31 0 66 c0 66 1 67 47 114 26 26 50 48 53 48 3 0
37 -13 75 -29z m883 -14 l43 -44 -3 -72 -3 -73 -68 -29 -69 -29 -74 31 c-41
17 -76 35 -79 39 -6 10 43 140 59 157 12 12 124 62 141 63 6 0 30 -20 53 -43z
m613 9 l66 -27 32 -81 c17 -44 30 -82 29 -83 -2 -1 -36 -17 -77 -35 -80 -34
-86 -34 -174 5 l-57 25 0 65 c0 65 1 67 47 116 25 27 51 48 57 46 6 -3 41 -17
77 -31z m883 -21 c46 -54 47 -56 44 -116 l-3 -61 -73 -30 -72 -31 -69 27
c-103 42 -98 33 -62 124 l33 80 71 30 c40 17 75 31 78 31 3 1 27 -24 53 -54z
m-3292 -413 l87 -207 -52 -51 -52 -50 -69 0 -68 1 -84 200 -83 201 -6 184 -7
185 124 -128 123 -129 87 -206z m4432 281 l-7 -177 -67 -165 c-38 -91 -75
-183 -84 -203 l-16 -38 -68 0 c-66 1 -68 1 -120 50 l-52 49 86 208 87 208 116
122 c64 66 120 122 124 122 5 1 6 -79 1 -176z m-3307 81 c18 -8 33 -21 33 -30
0 -16 -43 -64 -59 -64 -5 0 -16 19 -24 43 -8 23 -18 50 -22 61 -9 20 2 19 72
-10z m388 -31 c-14 -31 -27 -58 -29 -60 -10 -10 -58 20 -68 42 -13 29 -16 26
47 52 75 32 78 30 50 -34z m1133 12 c10 -10 -14 -54 -35 -64 -14 -7 -26 -10
-27 -9 -2 2 -12 29 -24 60 l-21 57 52 -20 c29 -11 53 -22 55 -24z m360 -16
c-12 -30 -24 -56 -25 -58 -7 -11 -62 24 -72 45 -9 21 -8 26 7 31 9 3 37 14 62
24 25 9 46 16 47 15 2 -1 -7 -27 -19 -57z m702 -84 l-124 -124 17 -36 c25 -52
22 -56 -29 -33 l-46 20 -69 -68 -69 -68 0 75 0 76 -70 27 c-38 15 -70 29 -70
30 0 2 32 16 70 31 l70 28 0 81 0 81 61 -61 61 -61 151 63 c84 35 156 64 162
64 5 0 -46 -56 -115 -125z m-3264 50 l158 -65 43 42 43 42 0 -55 0 -55 65 -24
c36 -13 65 -27 65 -31 0 -3 -28 -17 -62 -30 l-63 -25 -3 -63 -3 -64 -45 44
-44 43 -43 -16 c-23 -9 -50 -19 -60 -23 -16 -7 -16 -4 3 40 11 26 20 51 20 55
0 5 -55 63 -122 129 -68 66 -120 121 -117 121 4 0 78 -29 165 -65z m1669 -15
l65 64 0 -71 0 -71 70 -28 c39 -15 70 -28 70 -29 0 -1 -31 -15 -70 -30 l-70
-28 0 -51 0 -50 -62 61 -63 62 -75 -69 c-41 -38 -78 -69 -81 -70 -3 0 -4 26
-2 58 l5 59 -54 22 c-103 43 -97 37 -58 54 19 8 52 22 73 31 l38 16 -1 67 c-1
38 -1 72 -1 78 1 5 35 -24 76 -65 l75 -74 65 64z m-830 25 c17 0 40 4 52 8 19
7 24 3 37 -26 10 -25 24 -39 51 -48 32 -12 35 -16 29 -39 -10 -32 -10 -68 0
-101 6 -23 3 -28 -24 -39 -19 -8 -38 -27 -48 -47 -14 -30 -20 -33 -42 -27 -29
9 -65 9 -100 -1 -22 -6 -28 -2 -42 28 -10 21 -28 39 -50 47 -18 7 -34 14 -36
15 -1 1 5 18 13 39 14 32 14 39 0 66 -20 39 -20 39 20 56 24 10 40 25 50 50
13 31 18 34 37 27 13 -4 37 -8 53 -8z m1490 3 c17 0 41 3 55 7 22 6 27 2 38
-29 10 -26 21 -38 48 -46 32 -11 35 -15 28 -39 -9 -31 -9 -66 1 -103 6 -24 3
-28 -28 -41 -25 -11 -38 -25 -47 -51 l-11 -35 -39 15 c-34 14 -41 14 -69 0
-16 -9 -32 -16 -34 -16 -2 0 -12 17 -21 38 -13 28 -27 42 -52 51 -30 11 -34
16 -27 34 10 28 9 74 -1 108 -7 24 -4 28 26 38 26 8 37 20 47 47 11 30 16 35
34 28 12 -4 36 -7 52 -6z m-1699 -172 c-4 -16 -8 -32 -11 -34 -3 -3 -30 7 -62
21 l-57 26 55 24 c49 22 55 23 67 8 8 -9 11 -28 8 -45z m511 36 c24 -9 43 -20
43 -23 0 -7 -97 -49 -112 -49 -16 0 -28 49 -18 76 11 28 9 28 87 -4z m984 -54
l-10 -27 -62 27 -62 26 59 27 59 26 13 -26 c10 -19 11 -33 3 -53z m503 53 l59
-27 -62 -26 -61 -27 -15 29 c-11 21 -12 36 -5 54 11 31 10 31 84 -3z m-2082
-99 l56 -27 -31 -79 c-30 -77 -33 -80 -84 -102 -95 -42 -98 -42 -148 12 -44
48 -45 51 -45 115 l0 65 73 31 c79 33 78 33 179 -15z m811 1 c20 -8 37 -20 38
-27 0 -6 0 -38 -1 -71 -1 -56 -4 -63 -43 -102 -23 -24 -46 -43 -51 -43 -6 0
-41 12 -78 26 l-67 27 -32 79 c-17 43 -29 82 -25 85 3 4 39 21 79 38 68 30 74
31 107 18 19 -8 52 -21 73 -30z m658 6 c41 -17 75 -32 77 -34 1 -1 -12 -39
-29 -83 l-32 -81 -76 -31 -76 -31 -48 50 -48 50 3 68 3 67 65 27 c36 15 70 28
76 28 7 1 45 -13 85 -30z m806 2 l68 -29 2 -64 c3 -63 3 -63 -46 -116 l-49
-53 -74 31 -75 31 -32 80 c-18 44 -31 82 -29 84 7 8 143 64 155 65 6 0 42 -13
80 -29z m757 -136 l-66 -157 48 -49 48 -49 -82 0 c-45 0 -82 -4 -82 -9 0 -5
-12 -35 -26 -67 l-26 -59 -19 40 c-10 22 -23 52 -28 68 -10 25 -14 27 -73 27
l-62 0 62 63 63 63 -20 44 c-11 25 -18 46 -17 48 2 1 25 -7 50 -20 l47 -22
121 121 c67 67 123 121 125 119 2 -1 -27 -74 -63 -161z m-3705 -67 c27 12 54
22 59 22 6 0 1 -23 -11 -50 l-21 -50 49 -50 49 -50 -76 0 -76 0 -28 -70 c-15
-38 -28 -70 -29 -70 -1 0 -15 32 -30 70 l-28 70 -56 0 -56 1 43 40 43 40 -62
147 c-34 81 -64 154 -66 162 -3 8 51 -41 120 -109 l125 -124 51 21z m1859 -46
l-3 -84 -59 -25 -60 -25 -68 27 -68 27 0 79 0 79 68 64 67 65 63 -62 63 -62
-3 -83z m-668 142 c11 -31 19 -58 17 -61 -2 -2 -29 6 -60 18 -54 20 -55 22
-46 49 9 23 37 47 61 49 4 1 16 -24 28 -55z m1500 -23 c11 -29 17 -51 12 -49
-4 1 -31 12 -60 22 -54 21 -64 38 -39 68 6 8 21 20 32 26 23 12 24 11 55 -67z
m-1884 63 c17 -5 44 -40 44 -58 0 -6 -110 -49 -114 -45 -6 6 34 109 42 109 4
0 17 -3 28 -6z m1507 -6 c9 -7 19 -24 22 -38 5 -23 1 -27 -54 -47 l-60 -21 22
59 c22 61 37 71 70 47z m966 -24 c55 -24 63 -32 86 -80 14 -29 25 -59 25 -67
0 -8 -26 -40 -57 -71 l-58 -56 -85 2 -85 3 -3 89 -3 90 58 58 c31 32 58 58 60
58 1 0 29 -12 62 -26z m-2953 -46 l54 -51 0 -94 0 -93 -90 0 -89 0 -58 54 -57
53 25 64 c23 60 28 66 79 91 30 15 61 27 68 27 8 1 38 -22 68 -51z m-777 -298
l55 0 -38 -39 -37 -38 26 -63 c14 -34 24 -64 22 -66 -2 -2 -32 7 -67 21 l-64
25 -48 -47 -47 -46 -3 73 -3 72 -42 17 c-60 23 -60 28 -4 48 l51 18 0 185 1
185 72 -172 71 -173 55 0z m4612 -44 c27 -10 47 -21 44 -25 -4 -3 -25 -13 -48
-22 l-42 -17 -3 -93 -3 -93 -63 63 -63 62 -63 -25 c-35 -14 -65 -24 -67 -23
-1 2 9 32 23 67 l25 63 -47 48 -48 49 85 0 85 0 65 156 64 156 3 -174 2 -174
51 -18z m-3166 342 c30 -14 30 -19 1 -83 l-24 -50 -26 59 c-15 32 -26 60 -24
61 4 3 43 24 45 25 1 0 14 -5 28 -12z m1521 -11 c3 -2 -8 -32 -23 -66 l-27
-62 -27 58 c-25 53 -26 59 -11 71 15 12 76 11 88 -1z m-1608 -105 l33 -77 -29
-70 -29 -70 -69 -3 -69 -3 -49 46 -49 46 28 70 c16 38 33 73 39 78 16 13 128
59 146 60 10 1 27 -28 48 -77z m257 49 l69 -28 32 -75 32 -76 -47 -46 -47 -46
-71 0 -71 0 -27 67 c-16 40 -25 78 -21 93 8 43 57 140 69 139 7 0 43 -13 82
-28z m1234 -51 l34 -80 -31 -73 -30 -72 -64 -3 c-63 -3 -63 -3 -116 46 l-54
48 32 76 32 76 76 30 c43 17 80 31 83 31 3 1 20 -35 38 -79z m262 44 l66 -26
32 -76 33 -76 -53 -48 c-52 -47 -55 -48 -116 -48 l-63 0 -26 58 c-31 70 -39
108 -27 124 5 7 20 39 33 71 17 44 27 57 39 52 9 -3 46 -17 82 -31z m-1061
-168 c28 -10 50 -21 50 -25 0 -4 -22 -15 -50 -25 l-50 -18 -2 -179 -3 -178
-67 162 -66 162 -67 5 -66 5 39 38 39 39 -28 66 c-15 37 -26 68 -25 69 2 2 28
-8 60 -22 31 -14 62 -25 69 -25 7 0 35 23 62 50 l50 51 3 -79 3 -78 49 -18z
m1544 -34 l89 -3 -51 -52 -51 -52 29 -67 c16 -38 25 -68 20 -68 -5 0 -36 12
-70 27 l-61 26 -40 -39 -39 -38 0 97 0 97 -34 0 c-18 0 -61 3 -95 6 l-62 7 35
36 34 36 -25 63 c-14 35 -23 65 -20 68 2 3 33 -7 68 -21 l63 -25 56 55 55 55
5 -102 5 -103 89 -3z m-1085 123 c35 15 65 24 67 22 2 -2 -8 -32 -22 -67 l-25
-63 35 -36 c20 -20 36 -40 36 -44 0 -3 -23 -5 -52 -4 l-51 2 -66 -160 -66
-160 -3 177 -2 176 -50 18 c-28 10 -50 21 -50 24 0 3 23 14 50 24 l50 18 0 66
0 66 43 -42 43 -42 63 25z m-1589 10 c29 -31 36 -31 110 -1 33 14 60 23 60 20
0 -2 -12 -33 -26 -70 l-27 -65 32 -33 c17 -18 28 -35 25 -39 -4 -4 -43 -7 -86
-7 l-78 0 0 -107 0 -107 -49 48 -48 47 -63 -25 c-35 -14 -65 -24 -68 -21 -3 2
7 32 22 66 l27 62 -36 37 c-19 20 -35 39 -35 43 0 4 45 7 100 7 l100 0 1 73
c1 39 1 78 0 85 -3 19 14 14 39 -13z m534 -185 l28 -71 59 7 c34 4 59 3 59 -3
0 -5 -18 -25 -39 -45 l-39 -36 64 -153 c35 -84 62 -154 61 -156 -2 -1 -55 49
-117 112 -63 63 -121 115 -130 115 -8 0 -34 -9 -57 -20 -24 -10 -43 -15 -43
-10 0 4 9 30 20 56 l21 47 -41 42 c-22 22 -40 44 -40 49 0 4 23 5 50 1 l50 -7
15 36 c8 20 22 52 29 71 8 19 17 35 19 35 2 0 16 -32 31 -70z m1491 0 l28 -70
71 0 70 0 -47 -48 c-26 -26 -47 -53 -47 -60 0 -7 9 -31 21 -53 11 -23 19 -43
16 -45 -2 -2 -27 6 -55 18 l-53 22 -125 -124 -125 -125 20 52 c11 29 41 104
67 166 l46 114 -43 41 -44 41 56 1 56 0 27 70 c15 39 29 70 30 70 2 0 16 -31
31 -70z m-2642 -38 l30 -73 -33 -77 c-18 -42 -35 -79 -36 -81 -2 -1 -39 12
-83 30 l-80 32 -31 76 -32 75 51 49 50 48 67 -3 66 -3 31 -73z m337 30 l51
-47 -32 -76 -31 -75 -74 -28 c-40 -16 -79 -26 -87 -23 -7 3 -26 36 -41 75 -30
75 -30 78 10 168 l24 54 65 0 c64 0 66 -1 115 -48z m1606 14 l59 -24 3 -219 2
-218 -62 -167 c-35 -93 -65 -168 -68 -168 -3 0 -32 69 -65 153 l-60 152 0 234
0 233 55 23 c70 29 66 29 136 1z m1657 -44 c15 -38 27 -75 27 -84 0 -8 -15
-47 -32 -86 l-33 -71 -79 32 -80 32 -33 73 -33 73 53 49 c51 49 53 50 117 50
l65 0 28 -68z m340 20 l48 -48 -28 -74 c-30 -78 -24 -73 -144 -120 l-50 -20
-35 78 c-39 84 -39 83 7 188 l20 44 67 0 c68 0 68 0 115 -48z m-3026 -92 l62
-58 -26 -64 c-24 -63 -26 -65 -90 -93 l-65 -28 -59 59 -59 58 0 88 0 87 68 4
c37 2 76 4 87 5 12 1 44 -22 82 -58z m617 23 c7 -16 48 -112 90 -215 l76 -187
0 -168 -1 -168 -122 126 -122 126 -83 199 c-45 110 -82 203 -82 209 0 5 21 31
47 57 47 48 47 48 115 48 64 0 68 -2 82 -27z m1479 18 l57 -1 0 -87 0 -88 -43
-45 c-72 -76 -67 -75 -139 -42 -63 28 -65 31 -88 91 l-23 62 58 59 c50 51 63
59 89 56 17 -2 57 -4 89 -5z m-590 -49 l48 -49 -46 -114 c-25 -63 -50 -123
-55 -134 -5 -11 -23 -51 -39 -90 -24 -59 -48 -90 -147 -196 -66 -70 -122 -127
-126 -128 -4 -1 -4 79 -1 177 l6 177 39 95 c48 114 107 256 119 288 8 20 15
22 82 22 l73 0 47 -48z m-2314 -159 c1 -16 -41 -27 -68 -18 -26 8 -26 14 1 78
l22 51 22 -50 c13 -27 23 -55 23 -61z m3581 51 c26 -59 25 -68 -3 -81 -20 -10
-42 -5 -65 12 -3 3 40 115 44 115 2 0 12 -21 24 -46z m-3993 1 c58 -23 58 -24
90 -102 18 -43 33 -80 33 -83 0 -3 -36 -20 -81 -39 l-80 -33 -72 30 -72 30 -3
66 -3 66 47 50 c51 55 45 54 141 15z m877 -17 c47 -51 47 -51 44 -115 l-3 -64
-73 -31 -73 -30 -79 33 c-44 18 -80 35 -80 38 0 3 15 41 33 84 l32 79 65 28
c36 15 70 28 77 29 6 1 32 -22 57 -51z m2705 16 c36 -14 71 -31 77 -37 13 -13
68 -157 63 -161 -2 -1 -38 -17 -80 -35 l-75 -33 -77 32 -76 31 4 67 c4 61 7
70 46 114 23 27 44 48 47 48 3 0 35 -12 71 -26z m894 -22 l48 -49 -3 -67 -3
-67 -70 -30 c-75 -31 -76 -31 -171 12 l-63 28 31 80 30 80 72 30 c39 17 73 31
76 31 3 0 27 -22 53 -48z m-4285 -46 c51 -19 62 -35 44 -63 -7 -11 -63 -37
-67 -31 -1 2 -10 23 -19 48 -10 25 -21 51 -24 59 -3 7 -1 12 4 10 5 -2 33 -13
62 -23z m401 -28 c-11 -29 -22 -54 -24 -56 -5 -5 -49 19 -57 32 -15 22 -7 34
40 54 26 11 50 21 54 21 4 1 -2 -23 -13 -51z m3193 21 c64 -25 60 -21 53 -52
-7 -25 -53 -54 -65 -40 -9 11 -50 113 -45 113 2 0 28 -9 57 -21z m423 4 c-4
-10 -12 -31 -17 -48 -15 -42 -21 -47 -50 -40 -21 5 -57 52 -46 60 8 5 104 43
112 44 4 1 5 -7 1 -16z m-2653 -150 l157 -158 69 -155 c38 -85 68 -157 66
-159 -2 -2 -73 26 -157 63 l-154 67 -162 162 -163 162 29 63 c26 60 32 66 83
88 30 13 60 23 65 24 6 0 81 -71 167 -157z m-412 55 c33 14 50 17 47 9 -3 -6
-13 -32 -22 -55 l-18 -44 124 -124 124 -125 -163 67 -163 67 -50 -49 -49 -48
0 61 0 61 -71 28 -72 28 59 27 c32 15 65 28 72 28 8 1 12 25 12 83 l0 82 59
-58 60 -59 51 21z m1907 59 c40 -19 49 -29 71 -85 l26 -63 -157 -157 -157
-157 -156 -68 c-86 -38 -158 -66 -161 -63 -3 2 25 74 62 158 l67 153 156 158
c173 174 160 167 249 124z m-2712 -11 c31 -13 39 -13 70 0 45 18 42 19 55 -21
8 -25 20 -37 46 -47 36 -13 40 -22 24 -63 -7 -19 -6 -35 5 -62 8 -20 14 -37
13 -37 -2 -1 -19 -9 -40 -18 -26 -12 -39 -26 -48 -52 -13 -42 -12 -41 -51 -20
-28 14 -34 14 -71 -1 -22 -9 -41 -15 -42 -13 -1 2 -9 19 -18 40 -13 27 -25 38
-48 43 -29 6 -31 10 -24 33 9 31 9 66 -1 102 -5 21 -1 28 32 45 26 14 40 30
47 53 10 37 7 36 51 18z m3027 -54 l-3 -67 66 -25 c37 -14 69 -28 71 -31 2 -3
-28 -18 -66 -33 l-70 -28 0 -49 c0 -27 -2 -49 -5 -49 -3 0 -20 16 -38 36 l-33
36 -159 -66 c-87 -36 -160 -65 -161 -63 -2 2 52 58 120 126 l123 123 -24 50
c-13 28 -22 52 -20 54 2 2 27 -6 56 -18 l52 -21 47 46 c26 26 47 47 47 47 0 0
-1 -30 -3 -68z m637 42 c40 21 38 21 56 -19 10 -25 25 -40 50 -50 41 -18 39
-13 21 -56 -12 -29 -12 -39 0 -68 18 -43 19 -38 -20 -55 -24 -10 -38 -25 -47
-51 -12 -32 -16 -36 -39 -30 -35 10 -71 10 -102 1 -24 -7 -28 -4 -41 26 -9 22
-26 39 -46 47 -34 15 -37 26 -19 66 9 21 8 32 -5 60 l-17 35 39 20 c28 14 43
30 51 54 l11 35 39 -15 c34 -14 41 -14 69 0z m-3841 -129 c10 -21 9 -32 -3
-55 l-15 -29 -47 21 c-71 30 -72 35 -12 62 67 31 64 31 77 1z m551 -26 c3 0
-19 -11 -49 -25 -51 -23 -55 -24 -67 -8 -13 18 -18 66 -7 77 3 3 31 -5 61 -19
31 -13 58 -24 62 -25z m3049 16 c9 -19 9 -31 0 -50 -14 -31 -30 -31 -88 0
l-45 23 55 26 c68 31 65 31 78 1z m510 -7 l46 -21 -53 -23 c-30 -13 -58 -24
-63 -24 -14 0 -29 49 -22 76 7 27 12 27 92 -8z m-4225 -78 c39 -17 73 -32 74
-34 2 -2 -10 -39 -28 -83 l-31 -80 -76 -32 -77 -32 -48 52 -48 51 3 66 3 65
65 28 c36 16 71 28 78 29 7 0 45 -14 85 -30z m820 -4 l57 -26 0 -62 c0 -62 -1
-63 -51 -114 l-51 -52 -73 31 -74 30 -31 79 c-18 44 -30 81 -28 83 2 2 35 18
73 35 78 34 93 33 178 -4z m2780 -4 c37 -16 70 -31 73 -34 3 -3 -9 -41 -25
-85 l-31 -79 -74 -30 -75 -31 -45 46 c-44 44 -45 49 -48 113 -2 36 -1 68 2 71
10 10 125 56 140 57 9 0 46 -13 83 -28z m809 1 l68 -28 0 -65 c0 -63 -1 -66
-48 -117 l-47 -52 -76 31 -76 32 -29 75 c-16 41 -30 77 -32 81 -3 8 135 69
158 70 8 0 45 -12 82 -27z m-2362 -118 c17 -44 37 -94 45 -112 19 -39 19 -38
-2 -91 l-16 -43 -34 32 -33 33 0 135 c0 74 2 132 4 130 2 -2 18 -40 36 -84z
m-1872 58 c11 -10 23 -27 26 -39 6 -18 -1 -24 -45 -43 -75 -31 -81 -29 -62 17
8 20 19 47 24 60 10 27 30 28 57 5z m362 -38 c13 -31 20 -58 17 -61 -7 -8
-107 29 -107 39 0 16 30 65 42 70 23 10 26 7 48 -48z m1725 -102 c-6 -105 -8
-112 -36 -139 l-29 -27 -15 36 c-8 20 -15 42 -15 50 0 14 75 211 88 231 12 19
14 -33 7 -151z m1530 96 c14 -26 14 -26 -45 -52 -68 -29 -71 -26 -39 51 20 48
22 50 46 39 13 -6 31 -23 38 -38z m344 9 c10 -24 21 -53 25 -65 l7 -22 -58 24
c-49 20 -58 27 -55 47 2 22 35 58 53 58 6 0 18 -19 28 -42z m-2903 -56 c104
-44 194 -81 200 -83 13 -5 264 -241 264 -249 0 -3 -78 -4 -172 -2 l-173 3
-145 60 c-80 33 -173 72 -207 86 l-63 26 0 71 0 70 47 48 c26 26 50 48 54 48
3 0 91 -35 195 -78z m2092 -106 l-3 -68 -201 -83 -200 -83 -178 -8 c-116 -4
-177 -4 -175 3 2 5 58 62 124 125 l120 116 205 85 205 85 53 -52 53 -51 -3
-69z m-2958 125 c12 -8 10 -18 -10 -63 -13 -29 -27 -57 -31 -62 -5 -5 -19 17
-34 49 -14 32 -24 59 -23 60 33 24 73 31 98 16z m1588 -224 l-3 -46 -38 17
c-36 16 -43 26 -88 130 -27 62 -49 116 -49 120 0 4 41 -34 91 -84 90 -90 90
-90 87 -137z m487 93 c-49 -112 -57 -126 -87 -137 -48 -17 -48 -17 -48 30 1
39 7 49 92 140 50 54 92 96 94 94 2 -2 -21 -59 -51 -127z m1508 119 c12 -7 23
-13 25 -14 2 -1 -9 -29 -24 -61 l-26 -59 -28 60 -28 60 26 12 c34 15 29 15 55
2z m-3694 -109 l34 -80 -31 -73 -30 -72 -65 -1 c-64 0 -66 0 -117 47 l-52 47
32 75 31 75 72 30 c40 17 77 31 83 31 6 1 25 -35 43 -79z m252 49 l77 -31 30
-73 30 -73 -52 -51 c-51 -50 -52 -51 -114 -51 l-63 0 -18 43 c-46 109 -46 105
-11 190 18 42 35 77 38 77 3 0 40 -14 83 -31z m3349 -54 c36 -82 35 -90 -5
-182 l-25 -56 -68 7 c-62 6 -70 10 -113 53 l-47 45 31 74 31 73 70 30 c39 16
76 30 82 30 6 1 26 -33 44 -74z m247 49 c38 -15 73 -32 79 -38 6 -6 24 -42 40
-80 l28 -68 -48 -44 c-47 -44 -51 -45 -148 -50 l-37 -1 -32 75 -31 75 34 78
c18 44 36 79 40 79 4 0 38 -12 75 -26z m466 -188 c29 -13 61 -26 71 -30 19 -7
19 -7 0 -26 -13 -13 -36 -20 -74 -22 l-55 -3 -2 -54 c-1 -43 -7 -59 -27 -79
-14 -14 -27 -24 -30 -21 -2 2 -15 31 -28 64 l-24 60 -94 3 -93 3 48 49 48 49
-26 63 c-15 35 -27 66 -27 70 0 3 30 -7 68 -23 l67 -28 60 60 60 59 3 -86 3
-85 52 -23z m-4650 113 c37 17 67 26 67 20 0 -5 -12 -37 -26 -71 l-25 -61 47
-48 47 -48 -82 -3 -83 -3 -25 -62 c-14 -35 -28 -63 -33 -63 -20 0 -39 40 -42
90 l-3 55 -53 1 c-40 1 -59 6 -75 22 l-21 21 35 15 c19 7 51 21 72 29 l37 16
0 78 0 77 48 -47 48 -48 67 30z m967 -1 l0 -63 162 -65 161 -65 -180 -3 -179
-2 -18 -51 c-10 -27 -21 -47 -25 -44 -3 4 -13 25 -22 48 l-17 42 -71 3 c-39 2
-71 5 -71 7 0 2 18 21 40 42 l41 38 -26 64 c-14 35 -24 66 -21 69 3 2 34 -7
68 -22 l63 -27 40 44 c22 25 43 45 48 46 4 1 7 -27 7 -61z m2587 -29 c11 5 43
19 71 30 l51 20 -8 -22 c-5 -12 -19 -44 -30 -71 l-22 -49 46 -40 c25 -22 45
-44 45 -48 0 -5 -31 -9 -69 -9 l-69 0 -18 -50 c-10 -27 -21 -50 -24 -50 -3 0
-14 23 -24 50 l-18 50 -187 0 -186 1 173 71 172 72 0 60 0 60 39 -43 c33 -36
42 -41 58 -32z m-1699 -67 c52 -21 66 -32 78 -60 20 -49 19 -52 -29 -52 -40 0
-47 5 -137 96 l-95 95 60 -26 c33 -15 88 -38 123 -53z m806 -27 c-93 -88 -102
-94 -141 -95 -48 0 -49 2 -24 50 16 30 36 43 132 87 63 28 118 52 123 52 5 1
-36 -42 -90 -94z m-424 3 c6 -21 15 -38 18 -38 4 0 24 14 45 31 l37 30 0 -50
c0 -56 4 -58 57 -36 20 8 38 13 40 11 3 -2 -5 -22 -16 -45 -12 -22 -21 -43
-21 -46 0 -3 26 -5 58 -5 l57 -1 -42 -37 -43 -38 52 -25 52 -26 -47 -18 c-26
-10 -47 -20 -47 -24 0 -3 14 -20 30 -38 17 -18 30 -35 30 -38 0 -4 -25 -5 -55
-3 -30 1 -55 2 -55 0 0 -2 6 -15 14 -30 7 -15 17 -37 21 -50 7 -23 6 -23 -22
-9 -15 8 -38 18 -50 21 -22 7 -23 5 -23 -43 0 -28 -2 -51 -5 -51 -3 0 -20 17
-39 37 l-34 37 -24 -49 -25 -48 -18 46 c-10 26 -20 47 -23 47 -4 0 -23 -17
-44 -37 l-38 -37 0 57 0 56 -46 -20 c-26 -11 -49 -18 -51 -15 -2 2 5 22 16 45
12 22 21 43 21 46 0 3 -22 5 -50 5 -27 0 -50 4 -50 8 0 4 16 23 35 42 l34 33
-47 22 -47 22 39 17 c21 9 42 16 47 16 17 0 9 14 -28 52 l-37 38 52 0 c29 0
52 4 52 9 0 5 -7 27 -15 50 -14 42 -14 42 8 35 12 -3 34 -13 49 -20 15 -8 29
-14 32 -14 2 0 2 26 -1 58 l-6 57 40 -37 c21 -21 41 -38 45 -38 3 0 13 21 23
46 19 50 26 48 45 -8z m-1804 -58 l27 -70 56 0 55 0 -57 -58 c-31 -32 -57 -62
-57 -68 0 -5 32 -41 70 -79 l71 -70 -72 -5 -71 -5 -26 -62 c-14 -35 -28 -63
-32 -63 -4 0 -18 28 -32 63 l-26 62 -68 3 -67 3 68 69 69 70 -69 70 -69 70 69
0 70 0 29 70 c15 39 30 70 31 70 2 0 16 -31 31 -70z m3604 -13 l26 -62 69 -2
c39 -1 74 -2 80 -2 5 -1 -22 -32 -60 -71 l-69 -70 69 -70 69 -70 -80 0 -81 0
-30 -71 -30 -71 -29 71 -29 70 -52 3 -52 3 65 69 65 69 -68 69 -67 68 56 0 56
0 28 70 c15 39 30 68 32 65 3 -3 17 -33 32 -68z m-3201 -117 c24 -65 24 -79
-9 -152 l-20 -45 -76 -1 -77 -1 -63 61 c-35 34 -64 65 -64 70 0 5 25 36 57 69
l56 59 86 0 86 0 24 -60z m738 -2 c90 -35 163 -65 163 -68 0 -3 -76 -33 -168
-68 l-167 -62 -217 0 -216 0 -26 66 -25 66 26 64 25 64 221 0 222 0 162 -62z
m294 26 c16 -15 29 -31 29 -35 0 -5 -18 -13 -39 -20 -36 -11 -48 -8 -153 31
-62 24 -117 48 -123 53 -6 6 39 8 123 4 129 -5 134 -6 163 -33z m-1661 -39
l64 -65 -64 -65 -64 -65 -82 0 -81 0 -25 65 -26 65 26 65 25 65 81 0 82 0 64
-65z m2650 58 c0 -5 -58 -30 -128 -56 l-128 -48 -42 19 -41 19 32 31 32 31
130 4 c72 1 133 4 138 5 4 1 7 -1 7 -5z m617 -70 l25 -63 -25 -62 -25 -63
-218 -3 -219 -3 -167 63 c-92 35 -168 65 -168 68 0 3 73 33 163 67 l162 62
224 -2 223 -2 25 -62z m356 7 c31 -33 57 -63 57 -67 0 -5 -27 -36 -58 -71
l-58 -63 -83 3 -83 3 -25 60 c-26 64 -26 68 14 162 l13 33 83 0 83 0 57 -60z
m639 -5 l26 -65 -25 -65 -25 -65 -82 0 -82 0 -64 65 -64 65 64 65 64 65 82 0
81 0 25 -65z m-2604 -94 l34 -17 -36 -32 -37 -32 -131 0 c-72 0 -129 2 -127 4
9 9 234 95 249 95 8 0 30 -8 48 -18z m-1948 -68 l27 -68 83 -3 83 -3 -48 -49
-48 -48 27 -66 c14 -37 26 -68 26 -70 0 -2 -30 9 -67 24 l-68 29 -47 -47 -48
-46 0 82 0 83 -35 15 c-19 7 -52 21 -72 29 l-37 16 25 24 c18 18 36 25 77 26
l52 3 0 54 c0 38 5 61 17 74 9 10 18 16 21 13 3 -3 17 -35 32 -72z m4657 55
c18 -17 23 -32 23 -75 l0 -53 58 0 c47 0 63 -4 78 -21 22 -25 18 -28 -73 -61
l-63 -22 0 -103 c0 -57 -2 -103 -4 -103 -2 0 -31 27 -63 61 l-59 61 -63 -27
c-35 -14 -66 -24 -69 -21 -3 3 7 34 21 68 l27 62 -47 48 -46 47 93 3 94 3 31
77 c16 43 32 78 34 78 3 0 15 -10 28 -22z m-1852 -33 l110 -44 -131 0 -131 -1
-27 31 c-15 17 -26 32 -24 33 16 11 57 25 73 25 11 0 70 -20 130 -44z m-1808
-35 l21 -50 179 0 178 -1 -65 -28 c-36 -15 -111 -47 -167 -70 l-103 -43 0 -71
0 -71 -47 46 -48 47 -69 -30 c-57 -24 -67 -26 -61 -12 4 10 16 42 28 71 l20
53 -54 55 -53 54 86 0 86 0 18 50 c10 28 21 50 24 50 3 0 16 -22 27 -50z
m2632 -7 c21 -59 27 -63 99 -63 l66 0 -48 -49 -47 -48 25 -63 c14 -35 24 -65
21 -68 -2 -3 -32 7 -66 22 l-62 27 -45 -43 -44 -43 4 65 3 65 -160 67 -160 68
176 0 177 0 18 50 c10 28 21 50 24 50 3 0 12 -17 19 -37z m-1609 -49 c2 -3 -4
-21 -15 -41 -17 -32 -35 -43 -133 -85 -63 -26 -117 -48 -120 -48 -4 0 38 43
93 95 95 91 102 95 135 89 19 -3 37 -8 40 -10z m-276 -106 c-64 -62 -123 -118
-132 -124 -23 -16 -402 -174 -417 -174 -13 0 -79 70 -95 100 -6 10 -10 45 -10
77 l0 58 213 87 212 87 172 1 173 0 -116 -112z m993 7 c108 -104 112 -103 -62
-27 -75 32 -93 45 -107 73 -24 48 -23 49 27 49 43 0 48 -4 142 -95z m412 54
c37 -15 125 -52 196 -81 l130 -53 3 -72 3 -71 -48 -52 -48 -51 -209 87 -208
88 -127 123 -126 124 184 -6 c174 -6 189 -8 250 -36z m-2731 -45 l32 -76 -31
-72 c-17 -39 -34 -75 -38 -79 -4 -4 -44 6 -87 23 l-80 32 -29 75 -29 76 50 46
c47 45 52 47 114 49 l66 3 32 -77z m332 30 c28 -26 50 -51 50 -57 0 -6 -12
-41 -27 -78 l-28 -68 -79 -31 c-44 -17 -82 -27 -86 -23 -4 4 -21 40 -38 80
l-31 71 32 76 32 76 63 0 c61 0 64 -1 112 -46z m3272 -43 l29 -75 -33 -78
c-18 -43 -35 -78 -38 -78 -3 0 -40 15 -83 33 l-79 32 -31 74 -30 74 51 49 51
49 67 -3 66 -3 30 -74z m334 28 l51 -50 -30 -74 -30 -73 -66 -26 c-36 -14 -73
-28 -82 -31 -13 -5 -24 10 -49 71 -34 83 -34 90 5 177 l25 57 62 0 c62 0 63
-1 114 -51z m-2246 -51 c0 -40 -6 -49 -90 -135 -49 -51 -91 -93 -94 -93 -2 0
19 53 48 118 45 101 56 119 86 134 19 10 38 18 43 18 4 0 7 -19 7 -42z m485
-117 c30 -66 52 -121 51 -121 -2 0 -44 42 -94 93 -89 90 -92 93 -92 139 l0 47
41 -18 c39 -18 44 -26 94 -140z m-354 70 c11 -36 8 -47 -32 -155 -24 -64 -46
-116 -49 -116 -3 0 -4 57 -2 127 3 122 5 129 30 156 14 15 29 27 33 27 5 0 13
-17 20 -39z m142 4 c28 -33 28 -34 25 -167 l-3 -133 -49 128 -49 127 18 40
c10 22 21 40 24 39 3 0 19 -16 34 -34z m-423 22 c0 -2 -10 -25 -23 -53 -13
-27 -46 -100 -73 -162 l-49 -112 -155 -155 -156 -156 -66 28 c-65 27 -67 29
-93 92 l-26 64 157 158 157 157 156 70 c149 67 171 76 171 69z m826 -82 l151
-67 157 -157 157 -158 -26 -65 c-26 -65 -27 -66 -91 -93 l-66 -28 -156 156
-157 157 -72 166 c-39 91 -66 164 -60 161 7 -3 80 -35 163 -72z m-2278 -55
l21 -51 -27 -10 c-18 -7 -34 -7 -49 0 l-22 10 22 50 c12 28 25 51 28 51 4 0
16 -23 27 -50z m3622 -65 c0 -18 -44 -27 -74 -15 l-26 9 25 57 c14 31 25 59
26 63 1 11 49 -101 49 -114z m-3981 50 c20 -10 35 -33 54 -82 15 -38 27 -74
27 -80 0 -12 -49 -37 -123 -64 -32 -11 -41 -10 -106 17 l-71 29 0 70 c0 69 0
69 46 116 l47 48 49 -20 c28 -11 62 -26 77 -34z m881 -110 l0 -70 -68 -28
c-37 -15 -72 -27 -78 -27 -23 0 -154 63 -153 74 0 6 13 43 28 81 l27 70 74 32
75 32 48 -46 47 -47 0 -71z m1074 -22 l-7 -177 -83 -201 -82 -200 -69 -3 -68
-2 -52 50 -53 51 86 206 85 206 117 123 c64 68 121 123 125 123 5 1 5 -79 1
-176z m688 -281 l87 -207 -47 -47 c-47 -47 -48 -47 -120 -50 l-74 -3 -84 205
-85 205 -5 180 -5 180 123 -128 123 -129 87 -206z m918 424 l66 -26 28 -73
c16 -39 30 -77 32 -83 3 -5 -32 -25 -76 -44 l-82 -33 -71 30 -72 29 -3 67 -3
67 47 50 c26 28 52 49 58 47 6 -3 40 -17 76 -31z m878 -16 c40 -45 43 -51 45
-114 l2 -67 -73 -31 -72 -31 -68 27 c-104 41 -100 33 -63 124 l32 80 72 30
c40 17 74 31 77 31 3 -1 24 -23 48 -49z m-2240 -158 l62 -167 0 -216 0 -216
-65 -25 -65 -26 -65 25 -65 25 0 221 0 222 62 162 c35 90 65 163 68 163 3 0
33 -76 68 -168z m-1998 75 c0 -9 -15 -26 -32 -37 l-33 -20 -22 47 c-32 71 -30
74 32 50 38 -15 55 -28 55 -40z m353 4 c-10 -28 -21 -51 -26 -51 -4 0 -21 7
-37 15 -46 24 -38 47 23 71 28 11 53 20 55 18 2 -1 -5 -25 -15 -53z m3250 0
c15 -15 -11 -58 -38 -65 -15 -4 -29 -6 -30 -4 -4 4 -45 107 -45 113 0 6 103
-34 113 -44z m362 22 c-3 -15 -13 -42 -20 -60 -14 -33 -15 -34 -43 -19 -16 8
-32 25 -35 38 -4 12 -5 22 -4 23 1 0 25 10 52 22 28 11 52 21 54 22 2 1 0 -11
-4 -26z m-2931 -103 c-65 -66 -120 -124 -122 -129 -1 -4 6 -27 17 -52 11 -24
19 -45 17 -46 -2 -2 -26 7 -55 18 l-52 22 -55 -54 -54 -53 0 66 0 66 -57 22
c-32 13 -62 26 -66 30 -4 4 22 19 58 34 l65 28 0 64 c0 35 4 64 8 64 4 0 27
-20 51 -44 l42 -43 152 63 c84 35 156 64 161 64 5 0 -44 -54 -110 -120z m1853
45 l157 -66 43 43 43 42 0 -61 0 -61 63 -25 c34 -14 60 -29 59 -33 -2 -5 -30
-20 -63 -33 l-59 -25 0 -65 0 -65 -48 47 c-50 49 -71 55 -112 32 -44 -25 -51
-19 -30 31 11 25 20 50 20 55 0 4 -55 63 -122 129 -67 66 -119 120 -115 120 4
0 78 -29 164 -65z m-2762 20 c17 0 40 4 52 8 19 7 25 3 40 -27 11 -24 28 -40
50 -48 30 -11 33 -15 27 -38 -10 -31 -9 -78 0 -105 6 -17 1 -24 -28 -38 -23
-11 -41 -29 -50 -51 l-15 -36 -38 14 c-33 12 -43 12 -64 0 -37 -20 -46 -17
-59 21 -8 25 -20 37 -46 47 -31 11 -34 15 -28 38 10 32 10 68 0 100 -6 23 -3
28 27 42 25 12 39 27 47 53 10 31 15 35 33 28 12 -4 36 -8 52 -8z m3605 -19
c19 -1 45 3 57 7 19 7 25 3 40 -27 11 -25 27 -39 51 -47 29 -9 33 -14 26 -33
-10 -29 -10 -77 -1 -103 7 -19 3 -25 -27 -40 -24 -11 -40 -28 -48 -50 -13 -36
-23 -39 -62 -22 -20 9 -33 8 -65 -4 l-40 -16 -11 35 c-9 27 -21 39 -51 51 -21
8 -39 16 -39 18 0 1 6 18 14 36 12 29 12 39 0 68 -8 18 -14 34 -14 36 0 1 17
10 38 19 28 13 42 27 51 52 10 28 17 34 29 28 10 -5 33 -8 52 -8z m-3810 -121
c6 -16 5 -34 -3 -54 -12 -29 -13 -29 -47 -14 -19 8 -46 19 -60 25 -24 10 -23
12 35 39 33 15 61 28 63 29 1 0 7 -11 12 -25z m490 -2 c33 -14 57 -29 53 -33
-4 -4 -30 -17 -56 -29 l-48 -20 -14 33 c-12 27 -11 76 1 76 1 0 30 -12 64 -27z
m3120 -38 c0 -12 -6 -28 -12 -37 -12 -15 -19 -14 -72 10 l-59 26 59 27 c53 24
60 25 72 11 6 -9 12 -25 12 -37z m537 1 c5 -5 -80 -46 -97 -46 -17 0 -32 57
-21 79 11 20 11 20 62 -3 27 -13 53 -26 56 -30z m-4259 -58 c39 -17 72 -37 72
-43 0 -18 -50 -139 -63 -152 -7 -6 -41 -23 -77 -37 l-64 -26 -48 47 -49 48 3
69 3 69 65 28 c36 16 70 28 75 29 6 0 43 -14 83 -32z m806 2 l66 -30 0 -68 0
-68 -48 -47 -49 -48 -64 27 c-35 15 -69 31 -75 36 -14 11 -67 145 -62 159 4
11 131 67 154 68 6 1 41 -13 78 -29z m730 -134 l-66 -158 48 -49 48 -49 -66 0
-66 0 -30 -71 -29 -71 -29 71 -29 71 -75 0 -74 0 58 59 59 60 -17 46 c-10 25
-16 48 -14 51 3 2 26 -5 53 -17 l48 -21 120 121 c67 66 122 119 124 118 1 -2
-27 -74 -63 -161z m1413 -68 c26 11 49 19 51 17 2 -2 -6 -25 -17 -51 l-22 -48
51 -51 c27 -28 50 -53 50 -55 0 -3 -31 -4 -68 -2 l-68 3 -29 -73 -29 -73 -22
50 c-13 28 -23 55 -23 62 -1 19 -32 30 -84 29 -26 -1 -47 1 -47 4 0 2 20 25
44 50 l45 45 -65 155 c-35 85 -64 157 -64 160 0 3 56 -51 124 -119 l124 -124
49 21z m654 191 c41 -17 75 -32 77 -34 1 -1 -12 -38 -30 -83 l-31 -81 -76 -31
-75 -30 -48 47 -49 48 3 69 3 69 65 28 c36 16 70 28 76 29 7 0 45 -14 85 -31z
m804 2 c77 -33 79 -36 68 -121 -4 -36 -14 -55 -50 -93 l-44 -47 -74 31 -73 30
-32 80 c-18 44 -31 82 -28 84 7 7 143 64 153 65 6 0 42 -13 80 -29z m-4214
-93 c14 -34 17 -29 -46 -54 -27 -10 -54 -21 -59 -23 -10 -4 -1 28 25 87 17 40
19 41 43 31 13 -6 30 -25 37 -41z m351 -14 c31 -74 33 -73 -61 -32 -31 13 -41
22 -37 34 3 9 6 19 6 24 0 15 31 40 48 40 11 0 26 -22 44 -66z m3608 -23 c14
-36 17 -52 8 -48 -7 3 -33 13 -58 23 -25 9 -46 18 -48 19 -11 9 15 58 37 69
30 16 29 17 61 -63z m-370 49 c32 -32 24 -48 -37 -75 -31 -14 -57 -24 -59 -22
-2 1 6 29 18 60 23 63 43 72 78 37z m-2667 -18 c60 -28 63 -31 86 -91 l25 -62
-61 -60 -60 -60 -86 7 -87 7 0 87 0 88 58 56 c31 31 58 56 60 56 1 0 30 -13
65 -28z m2150 -50 l57 -58 0 -87 0 -87 -93 0 -93 0 -56 58 -57 57 27 63 c26
60 31 66 82 88 30 13 60 23 65 24 6 0 36 -26 68 -58z m-887 -118 l68 -165 56
1 c30 1 59 1 64 1 6 -1 -12 -20 -38 -44 l-48 -43 26 -61 c14 -35 26 -67 26
-72 0 -5 -30 4 -67 19 l-67 28 -45 -46 -46 -47 -3 76 -3 77 -52 23 -52 22 53
23 52 24 0 175 c0 96 2 175 4 175 2 0 34 -75 72 -166z m-381 -209 l50 -23 -52
-22 -53 -23 0 -75 0 -76 -49 48 -48 47 -63 -25 c-35 -14 -67 -26 -71 -26 -5 0
5 30 22 67 l30 67 -48 48 -47 48 70 0 70 0 64 157 65 157 5 -173 5 -174 50
-22z m-1639 342 l21 -12 -25 -57 c-13 -32 -28 -58 -32 -58 -4 0 -18 25 -31 56
-22 55 -22 57 -4 70 23 17 43 17 71 1z m3601 -10 l21 -12 -22 -53 c-13 -29
-27 -54 -32 -54 -5 0 -19 23 -31 51 l-22 51 27 14 c33 18 32 18 59 3z m-3701
-108 l33 -76 -29 -74 -28 -74 -66 -3 -67 -3 -51 49 -51 49 29 73 30 73 74 33
c41 17 79 31 84 30 5 -1 24 -36 42 -77z m223 60 c101 -38 107 -43 137 -119
l27 -71 -48 -49 c-49 -50 -49 -50 -115 -50 l-66 0 -32 75 -31 76 20 47 c11 26
27 62 34 80 8 17 15 32 17 32 2 0 27 -9 57 -21z m3380 -69 l33 -80 -30 -72
-31 -73 -66 -3 -66 -3 -50 48 -51 48 30 75 29 75 79 32 c44 18 81 32 84 32 3
1 20 -35 39 -79z m262 43 l66 -24 30 -76 29 -75 -51 -49 c-51 -48 -53 -49
-114 -49 l-62 0 -24 55 c-39 88 -39 96 -5 179 26 61 36 76 49 71 9 -4 46 -18
82 -32z m464 -182 c36 -12 67 -26 70 -31 3 -4 -22 -18 -55 -30 l-60 -22 -2
-177 -3 -176 -67 160 -67 160 -97 3 -98 3 53 53 52 52 -30 67 c-17 37 -26 67
-20 67 5 0 37 -12 71 -26 l61 -26 61 61 61 61 3 -88 3 -87 64 -24z m-4670 113
c36 14 67 26 70 26 3 0 -5 -24 -16 -52 -35 -87 -36 -83 32 -148 l64 -61 -73 3
-74 3 -69 -165 -68 -165 -1 181 0 181 -71 28 c-38 15 -67 30 -64 33 3 4 29 16
58 28 l52 22 3 79 3 78 45 -49 44 -48 65 26z m965 -33 l0 -89 101 -7 101 -7
-47 -48 -46 -47 25 -63 c14 -35 24 -65 22 -67 -2 -2 -32 8 -66 22 l-63 26 -48
-47 -48 -47 -3 94 -3 94 -103 5 -102 5 50 43 c27 24 50 51 50 60 -1 9 -11 42
-25 72 -13 30 -22 57 -20 59 3 2 34 -9 71 -25 l66 -28 37 41 c20 23 39 41 44
42 4 1 7 -39 7 -88z m2639 25 c34 15 64 24 67 21 3 -2 -7 -33 -21 -67 l-26
-63 52 -53 53 -53 -95 -3 -94 -3 -3 -103 -3 -104 -57 61 -57 61 -68 -30 c-38
-17 -70 -30 -72 -30 -2 0 11 32 27 72 l30 72 -41 38 c-22 21 -41 41 -41 43 0
3 45 5 100 5 l100 0 0 97 0 97 43 -42 44 -43 62 27z m-3168 -168 l25 -63 72
-3 c40 -2 72 -4 72 -6 0 -2 -28 -31 -61 -63 l-61 -59 16 -32 c9 -18 21 -43 26
-57 l10 -25 -39 19 -38 20 -123 -124 c-68 -69 -125 -123 -127 -122 -1 2 27 73
62 157 36 85 65 158 65 161 0 4 -28 34 -62 68 l-63 61 70 0 71 0 24 65 c13 36
27 65 31 65 3 0 17 -28 30 -62z m3728 -78 l96 0 -56 -54 -55 -54 62 -153 c35
-84 62 -154 61 -156 -2 -1 -54 49 -117 112 -63 63 -121 115 -130 115 -8 0 -39
-11 -67 -25 -29 -13 -53 -20 -53 -16 0 5 9 31 21 58 l20 50 -63 61 -63 62 65
0 65 0 29 71 29 71 30 -71 30 -71 96 0z m-2767 30 l29 -76 -35 -77 c-35 -77
-35 -77 -63 -66 -15 6 -51 20 -80 30 -50 19 -52 22 -83 96 l-32 76 49 49 48
49 69 -3 69 -3 29 -75z m335 30 l51 -49 -31 -75 -31 -75 -65 -25 c-36 -13 -73
-27 -82 -31 -12 -4 -23 11 -47 66 -18 39 -32 78 -32 85 0 8 12 46 27 84 l27
70 66 0 c65 0 66 0 117 -50z m1156 -28 l30 -72 -27 -69 c-42 -103 -34 -99
-123 -64 l-78 30 -32 75 -31 76 46 45 c44 43 51 46 107 50 33 1 64 3 69 2 4 0
22 -33 39 -73z m340 20 l47 -48 -29 -67 c-15 -38 -32 -72 -37 -76 -5 -5 -42
-21 -82 -37 -84 -32 -76 -36 -117 66 l-27 68 28 71 29 71 70 0 71 0 47 -48z
m-955 -64 l62 -23 0 -80 0 -81 -65 -64 -65 -64 -65 64 -65 64 0 81 0 80 53 22
c67 27 70 27 145 1z m-1430 -93 l3 -90 -59 -58 -58 -58 -65 29 c-60 27 -66 32
-87 83 -12 30 -22 59 -22 64 0 5 26 36 58 68 l57 58 85 -3 85 -3 3 -90z m-614
26 l47 -48 -83 -204 -83 -204 -120 -125 c-66 -69 -122 -126 -125 -128 -3 -1
-4 75 -2 170 l3 173 44 110 c36 89 85 206 122 292 5 14 50 20 109 15 34 -3 50
-12 88 -51z m3599 1 l58 -59 -27 -62 c-25 -58 -31 -65 -82 -87 -30 -13 -59
-24 -65 -24 -6 0 -37 26 -69 57 l-58 57 0 72 c0 106 -2 104 99 104 l87 0 57
-58z m710 -156 l87 -214 0 -168 -1 -169 -122 126 -122 125 -82 201 c-46 111
-83 205 -83 210 0 4 21 29 47 55 l47 48 71 0 70 0 88 -214z m-3045 22 c-23
-15 -56 -20 -72 -11 -13 7 -12 16 11 67 l27 58 23 -53 c18 -41 21 -54 11 -61z
m1482 56 c26 -61 25 -70 -9 -82 -42 -15 -73 -5 -65 20 10 32 45 108 49 108 2
0 13 -21 25 -46z m-1889 2 l66 -27 26 -68 c15 -38 27 -75 27 -83 0 -9 -30 -28
-75 -48 l-75 -33 -73 31 -72 30 -3 68 -3 67 48 49 c26 27 52 47 58 44 5 -2 40
-16 76 -30z m873 -13 c25 -26 46 -54 47 -62 0 -9 2 -40 2 -70 l2 -53 -76 -30
-76 -30 -76 33 c-42 18 -77 38 -77 44 0 5 15 43 33 84 l32 73 70 29 c39 15 71
28 72 28 1 1 22 -20 47 -46z m716 -97 c17 -43 29 -80 27 -82 -1 -2 -37 -19
-78 -38 l-76 -34 -74 32 -74 32 -3 64 -3 63 51 52 52 52 73 -31 74 -31 31 -79z
m782 87 c47 -47 48 -48 48 -111 l0 -63 -66 -29 c-36 -17 -74 -30 -84 -30 -15
0 -147 54 -158 64 -1 2 11 39 28 82 l31 79 62 27 c34 14 69 27 77 27 8 1 36
-20 62 -46z m-2186 -44 c27 -11 50 -22 52 -23 5 -6 -21 -56 -29 -56 -4 0 -14
-3 -22 -6 -13 -5 -19 4 -54 94 -7 16 -3 16 53 -9z m412 -31 c-26 -70 -24 -68
-58 -56 -30 10 -57 44 -45 56 6 7 105 50 117 51 3 1 -3 -23 -14 -51z m1084 25
c24 -9 44 -17 46 -18 9 -7 -24 -65 -40 -71 -11 -3 -20 -4 -22 -2 -15 25 -42
108 -35 108 5 0 28 -7 51 -17z m403 -40 c-13 -32 -28 -58 -34 -57 -6 1 -17 2
-25 3 -21 2 -46 30 -46 50 0 13 16 25 53 39 77 30 79 29 52 -35z m579 -88 c32
14 60 24 62 22 2 -2 -6 -27 -18 -56 l-21 -52 124 -125 124 -124 -60 24 c-33
13 -106 43 -163 66 l-104 43 -69 -69 -69 -68 0 95 0 95 -65 24 c-36 13 -65 27
-65 31 0 3 29 18 65 34 l65 27 0 75 0 74 68 -71 67 -71 59 26z m428 -52 c86
-87 163 -173 172 -190 40 -80 124 -283 117 -283 -5 0 -78 31 -162 68 l-154 69
-157 157 -157 158 21 52 c11 28 22 56 25 63 4 11 107 61 128 62 6 1 81 -70
167 -156z m-3637 118 c57 -27 61 -31 84 -90 l25 -62 -158 -158 -158 -158 -155
-67 c-85 -37 -157 -65 -160 -63 -2 3 26 74 63 158 l67 154 156 158 c86 86 160
157 166 157 5 0 37 -13 70 -29z m373 -121 c31 -12 61 -26 65 -30 5 -4 -21 -20
-57 -35 l-66 -28 0 -65 0 -66 -33 32 -33 32 -159 -65 c-87 -36 -159 -64 -161
-62 -2 2 51 57 116 122 66 66 120 126 120 133 0 7 -9 30 -20 52 -11 22 -20 42
-20 45 0 3 16 -2 36 -10 42 -17 41 -18 102 47 l47 51 3 -65 3 -65 57 -23z
m568 136 c20 8 37 14 38 12 2 -2 8 -18 16 -36 9 -24 24 -38 51 -49 l38 -15
-15 -36 c-13 -32 -13 -40 1 -74 l15 -39 -35 -15 c-24 -10 -40 -25 -50 -50 -13
-31 -18 -35 -37 -29 -29 10 -77 10 -103 1 -17 -6 -24 -1 -38 28 -11 23 -29 41
-52 50 l-36 15 15 36 c13 31 13 39 0 70 -18 44 -19 40 17 55 18 8 38 28 50 51
l19 39 35 -14 c31 -13 39 -13 71 0z m936 -144 l72 -30 -35 -15 c-19 -7 -51
-20 -72 -27 l-37 -14 0 -70 0 -70 -64 63 c-74 73 -59 74 -155 -16 -31 -29 -58
-53 -61 -53 -3 0 -4 33 -2 73 l3 73 -72 29 -73 28 71 33 72 32 3 56 3 55 68
-61 68 -61 62 59 c34 32 64 64 67 69 3 6 6 -20 8 -57 l3 -66 71 -30z m518 124
c14 0 36 4 50 8 23 6 28 3 42 -27 12 -25 27 -39 52 -47 42 -13 40 -10 21 -56
-13 -32 -13 -39 0 -64 21 -40 20 -43 -24 -61 -30 -13 -40 -24 -46 -49 -6 -29
-9 -31 -33 -24 -33 10 -80 9 -110 -1 -19 -6 -24 -3 -33 24 -8 21 -24 38 -51
52 -31 16 -38 24 -32 37 10 22 10 70 0 102 -6 23 -3 27 28 38 26 10 38 22 46
48 11 32 15 35 39 28 14 -4 37 -8 51 -8z m-1195 -121 c32 -14 54 -29 51 -33
-4 -3 -30 -16 -59 -28 l-52 -23 -14 29 c-14 28 -9 80 8 80 5 0 34 -11 66 -25z
m1541 -25 c2 0 4 -4 4 -8 0 -5 -25 -19 -56 -32 -55 -22 -57 -23 -70 -5 -17 22
-17 35 -4 69 l9 26 57 -25 c31 -14 58 -25 60 -25z m-2041 21 c7 -22 -3 -71
-15 -71 -4 0 -31 10 -60 22 l-54 22 50 23 c60 28 71 28 79 4z m1486 -7 c11
-30 4 -64 -14 -64 -17 0 -97 34 -97 41 0 5 85 47 98 49 1 0 7 -12 13 -26z
m-1590 -85 c41 -17 75 -32 76 -33 2 -2 -11 -39 -29 -83 l-32 -81 -75 -31 -76
-32 -48 51 -48 51 3 67 3 66 65 28 c36 15 70 28 76 28 7 0 45 -14 85 -31z
m805 3 l69 -29 0 -64 c0 -63 -1 -65 -48 -116 l-49 -52 -75 32 -75 32 -29 73
c-16 40 -29 77 -29 81 0 10 128 69 151 70 9 1 47 -12 85 -27z m702 -13 c34
-15 62 -31 61 -36 0 -4 -15 -41 -32 -82 l-32 -75 -74 -30 -74 -29 -49 51 -49
51 3 67 3 66 70 29 c76 30 80 30 173 -12z m788 10 l74 -31 0 -67 0 -67 -49
-48 -50 -49 -73 30 -73 31 -32 78 c-18 44 -29 82 -25 86 6 6 141 67 150 68 2
0 37 -14 78 -31z m-2107 -100 c5 -16 6 -31 2 -33 -11 -7 -111 -46 -111 -43 0
4 42 112 46 119 9 15 53 -16 63 -43z m350 -4 c12 -31 21 -60 21 -65 0 -5 -27
3 -60 17 -33 15 -60 32 -60 40 0 18 45 63 64 63 9 0 23 -23 35 -55z m1475 37
c2 -4 14 -32 26 -61 l20 -52 -22 7 c-13 4 -42 15 -65 25 -38 16 -42 21 -34 41
11 31 63 59 75 40z m-3337 -139 c-6 -130 -7 -137 -33 -164 -32 -33 -40 -31
-55 19 -10 34 -6 48 37 160 26 67 50 122 52 122 3 0 2 -61 -1 -137z m2980 129
c6 -4 14 -19 18 -34 6 -24 3 -29 -27 -41 -19 -8 -44 -18 -55 -21 l-21 -7 20
56 c20 54 36 65 65 47z m1938 -115 c42 -107 45 -122 35 -153 -16 -48 -29 -51
-61 -14 -29 32 -29 34 -29 163 0 72 2 128 4 126 3 -3 26 -58 51 -122z m-2438
39 l43 -39 0 -87 0 -88 -56 -23 c-69 -28 -69 -28 -138 0 l-56 23 0 86 0 86 63
57 c70 64 56 66 144 -15z m1619 -39 l202 -84 126 -118 c69 -66 126 -122 126
-125 0 -3 -78 -3 -172 -2 l-173 4 -207 85 -208 86 0 69 c0 68 0 69 46 118 26
28 49 50 53 50 3 0 97 -37 207 -83z m-3038 -101 l-3 -69 -201 -83 -202 -83
-176 -7 c-97 -4 -176 -4 -176 -1 0 3 54 59 121 124 l120 118 207 86 207 87 53
-52 53 -51 -3 -69z m614 151 l27 -12 -28 -63 -28 -63 -27 63 c-26 59 -26 63
-10 75 21 16 31 16 66 0z m1490 -10 l27 -12 -26 -59 -27 -59 -28 59 c-24 54
-25 60 -10 72 19 15 29 15 64 -1z m-2987 -147 c-49 -112 -57 -126 -87 -137
-48 -17 -48 -17 -48 30 1 39 7 49 93 139 50 53 93 96 94 94 1 -1 -22 -58 -52
-126z m4635 -94 c0 -25 -2 -46 -5 -46 -3 0 -23 9 -43 19 -33 17 -42 31 -81
122 -24 57 -46 111 -48 119 -3 8 36 -26 86 -76 89 -89 91 -92 91 -138z m-3232
135 l34 -78 -32 -77 -32 -76 -63 0 c-62 0 -65 1 -116 48 l-52 48 30 75 31 74
74 32 c40 17 78 32 83 32 6 1 25 -34 43 -78z m252 48 l77 -30 30 -74 31 -73
-52 -51 c-51 -51 -52 -51 -117 -51 l-64 0 -28 73 c-15 39 -27 77 -27 83 0 15
62 154 68 154 3 0 40 -14 82 -31z m1239 -49 l34 -80 -29 -75 -29 -75 -70 0
-71 0 -47 48 -47 48 31 75 31 75 77 31 c42 17 79 31 82 32 3 1 20 -35 38 -79z
m254 45 l76 -29 31 -75 30 -75 -47 -48 -48 -49 -69 3 -70 3 -29 72 -30 71 34
81 c19 44 37 80 40 78 3 -1 40 -15 82 -32z m545 -222 c70 -28 143 -58 162 -67
33 -13 24 -14 -145 -15 l-180 -1 -24 -65 c-14 -36 -28 -62 -31 -58 -4 5 -17
34 -30 66 l-22 57 -96 0 -96 0 57 58 58 59 -27 62 c-15 34 -25 64 -22 67 3 2
33 -8 67 -22 l63 -27 66 66 67 67 3 -97 3 -98 127 -52z m-1648 126 l0 -90 48
-20 c26 -11 57 -24 70 -29 22 -9 22 -11 6 -35 -14 -22 -23 -25 -75 -25 l-59 0
0 -58 c0 -46 -4 -63 -20 -77 -11 -10 -22 -16 -23 -14 -2 2 -15 33 -29 69 l-26
65 -96 3 c-53 1 -96 5 -96 8 0 4 25 29 56 58 l55 51 -30 68 c-17 37 -26 67
-20 67 5 0 37 -12 72 -26 l62 -25 45 50 c25 28 48 51 53 51 4 0 7 -41 7 -91z
m512 14 c35 15 66 27 70 27 4 0 -6 -30 -23 -67 l-30 -67 58 -58 57 -58 -85 0
-86 0 -27 -70 c-15 -38 -29 -70 -31 -70 -2 0 -15 11 -29 24 -21 19 -26 32 -26
75 l0 51 -53 0 c-44 0 -58 4 -77 25 l-23 24 24 10 c13 5 47 18 74 29 l50 20 3
82 3 83 44 -43 44 -43 63 26z m-1489 6 c37 17 67 27 67 22 0 -4 -12 -36 -26
-71 l-25 -63 57 -59 58 -58 -75 0 -76 0 -18 -55 c-11 -30 -22 -55 -26 -55 -4
0 -15 20 -24 45 l-18 45 -181 2 -181 3 168 69 167 69 0 71 0 70 33 -32 34 -33
66 30z m3410 -136 c27 -11 42 -26 52 -50 21 -50 20 -53 -28 -53 -40 0 -47 5
-137 96 l-95 95 85 -36 c47 -20 102 -44 123 -52z m-4338 -18 c-93 -88 -103
-94 -142 -95 -24 0 -43 2 -43 5 0 3 9 23 19 44 18 34 31 43 138 89 65 28 120
51 123 51 3 0 -40 -42 -95 -94z m4328 -163 c15 -14 27 -29 27 -33 0 -5 -18
-14 -40 -20 -37 -11 -47 -9 -152 31 -62 24 -117 48 -123 53 -6 6 41 7 125 2
127 -6 137 -8 163 -33z m-4134 15 c-2 -2 -59 -25 -127 -51 l-123 -48 -44 19
-45 19 33 32 32 31 135 3 c128 3 149 2 139 -5z"/>
</g>
</svg>
