<?xml version="1.0" encoding="utf-8"?>
<svg xmlns="http://www.w3.org/2000/svg" viewBox="13.2032 111.9883 657.6029 44.8075" width="657.603px" height="44.8075px" preserveAspectRatio="none"><path id="path24" d="m 1021.55,4931.19 c 0.16,-2.67 -5.43,-4.16 -10.01,-5.21 -5.12,0.18 -10.24,0.36 -15.341,0.58 8.521,2.01 15.941,4.39 25.351,4.63 z m 997.74,146.31 c 0.21,-0.46 0.5,-0.92 0.41,-1.39 -2.24,-0.48 -4.28,-1.06 -5.88,-1.79 -1.08,1.88 1.84,2.65 5.47,3.18 z m 496.08,20.17 c 18.21,1.33 13.57,-3.27 22.07,-3.53 -7.28,-0.86 -15.07,-1.7 -23.07,-2.45 z M 3899.8,4874.81 c 0.01,-0.7 -0.42,-1.61 -1.2,-2.55 -1.6,0.43 -1.96,1.09 -1.76,1.87 0.96,0.24 2.13,0.39 2.96,0.68 z m 37.66,262.4 c 3.96,-1.67 6.9,-4 4.86,-5.6 -2.94,1.27 -7.79,1.77 -12.54,2.18 2.59,1.17 5.25,2.32 7.68,3.42 z m 41.38,-242.17 c 1.43,-0.33 3.27,-0.66 5.73,-0.97 -2.35,-1.95 -6.67,-5.17 -11.9,-8.32 -1.27,1.24 -3.53,2.42 -6.53,3.46 -0.06,0.18 -0.16,0.37 -0.28,0.58 3.26,1.84 7.93,3.58 12.98,5.25 z m 52.22,3.97 c -2.75,-10.65 -27.57,-10.04 -29.36,-19.24 -9.14,0.87 -21.36,0.6 -28.51,1.43 0.98,1.14 1.61,2.11 0.43,2.85 -0.06,0.21 -0.15,0.42 -0.27,0.63 17.14,3.73 36.98,12.27 57.71,14.33 z m -7.37,243.92 -0.2,-0.34 c -0.06,0.09 -0.08,0.18 -0.14,0.26 z m 13.83,1.78 c -0.79,-1.17 -1.03,-2.33 -0.47,-3.35 -8.13,-1.34 -11.47,-0.56 -13.02,0.8 3.17,1.32 8.67,1.86 13.49,2.55 z m 34.37,-2.27 c 1.49,-0.13 3.14,-0.39 5.05,-0.85 l -6.98,-3.41 c -0.39,0 -0.75,-0.06 -1.14,-0.07 -0.15,1.64 1.15,3.05 3.07,4.33 z m 143.09,-0.69 c -0.15,-0.57 -0.33,-1.11 -0.56,-1.64 -0.91,-0.13 -1.65,-0.34 -2.63,-0.43 1.47,0.71 2.43,1.4 3.19,2.07 z m 60.42,-231.18 c -0.26,-0.1 -0.6,-0.13 -0.86,-0.23 -0.05,0.05 -0.05,0.1 -0.09,0.16 0.32,0.02 0.63,0.04 0.95,0.07 z m 68.57,-4.07 c 3.38,-0.92 6.99,-1.81 12.68,-3.52 -1.42,-0.85 -2.6,-1.24 -3.85,-1.76 -2.12,5.07 -8.1,-0.08 -12.77,-1.08 -1.48,0.44 -2.93,0.98 -4.42,1.58 -0.42,0.64 -0.8,1.4 -1.05,2.49 2.45,1.17 5.74,1.83 9.41,2.29 z m 19.02,236.39 -5.23,-3.05 c -8.37,-0.35 -15.89,0.98 -22.8,2.52 9.59,1.23 18.99,0.97 28.03,0.53 z m 122.09,1.76 c 0.68,0.12 1.32,0.15 1.98,0.24 -0.83,-0.25 -1.85,-0.37 -2.74,-0.57 0.29,0.11 0.41,0.22 0.76,0.33 z m 17.57,-42.93 -5.64,-2.58 c -2.89,-0.14 -5.52,0.09 -8.27,0.16 2.39,4.66 7.59,4.38 13.91,2.42 z m 5.49,-113.06 -2.1,-0.18 -1.19,1.29 c 1.21,-0.62 2.24,-0.82 3.29,-1.11 z m 12.11,-2.94 c -2.77,-1.13 -5.78,-2.06 -9.94,-1.87 l -0.9,0.97 c 4.04,0.5 7.72,0.84 10.84,0.9 z m 0.61,6.83 c 3.56,0.51 6.36,1.6 7.63,3.71 8.5,1.6 14.8,4.42 8.37,7.97 l 22.17,-3.54 c -2.1,-0.58 -3.65,-1.13 -4.82,-1.67 -2.01,-0.07 -4.11,-0.02 -5.41,0.08 1.38,-0.3 3.01,-0.41 4.71,-0.45 -5.75,-3.08 1.27,-5.76 -1.67,-11.72 -2.77,-6.11 -7.94,-4.42 -12.51,-2.52 -0.23,0.37 -1.12,0.72 -2.51,1.05 -1.69,0.68 -3.19,1.17 -4.32,0.98 l 4.91,1.89 c -5.6,1.34 -9.27,0.51 -12.61,-0.76 -2.99,0.52 -5.43,1.05 -6,1.62 l 2.23,0.59 -4.58,-0.4 c 1.63,0.87 3.07,1.97 4.41,3.17 z m 41.59,6.76 c 0.88,-0.57 1.79,-1.07 2.65,-1.71 1.46,0.32 2.99,0.7 4.49,1.05 6.02,-1.27 11.79,-1.99 16.68,-1.25 -0.64,-0.7 -1.23,-1.34 -1.71,-1.92 l -18.17,-12.38 c -2.72,-0.4 -5.42,-0.86 -7.87,-1.6 -9.56,6.31 9.77,9.77 14.64,14.62 -4.52,-0.76 -8.19,-5.17 -14.79,-2.71 l 1.12,5.53 c 0.99,0.1 1.97,0.22 2.96,0.37 z m 7.76,-15.67 12.73,2.74 c -3.34,-1.45 -7.89,-2.11 -12.73,-2.74 z m -7.06,-66.98 c -3.84,0.41 -6.86,1.3 -9.6,2.33 -1.9,1.78 2.31,3.84 4.81,5.42 0.88,-0.08 1.71,-0.14 2.49,-0.17 l 11.35,-4.73 c -4.06,-1.03 -7.57,-1.99 -9.05,-2.85 z m 62.82,7.12 c 0.04,0.01 0.07,0.02 0.09,0.03 0.22,-0.2 0.45,-0.4 0.67,-0.59 l -0.79,0.5 c 0,0.03 0.02,0.03 0.03,0.06 z m 55.18,128.91 c -2.89,-2.59 -9.01,0.43 -13.73,-0.87 l 44.67,-1.63 c 0.01,-0.64 -0.59,-1.18 -1.47,-1.64 -7.77,0.59 -14.49,1.95 -13.51,-1.67 -1.1,0.06 -2.17,0.16 -3.15,0.3 1.13,-0.27 2.2,-0.45 3.29,-0.64 0.13,-0.39 0.3,-0.79 0.6,-1.29 -5.3,-0.15 -11.51,-0.43 -17.87,-0.61 1.75,1.84 -19.31,3.99 -21.11,5.85 l 2.32,0.52 -21.92,-1.11 c -0.13,0.21 -0.31,0.4 -0.39,0.63 14.55,3.22 28.98,1.91 42.27,2.16 z m -8.48,10.46 c 0.53,-0.16 1.16,-0.27 1.67,-0.44 0.65,-0.25 0.94,-0.46 1.29,-0.68 -0.73,-0.07 -1.25,-0.09 -2.05,-0.17 0.79,-0.3 1.96,-0.75 2.63,-1.2 -0.53,-0.49 -1.76,-0.93 -3.35,-1.34 -0.92,-0.07 -1.84,-0.12 -2.8,-0.18 0.58,1.7 1.42,3.08 2.61,4.01 z m 52.37,-17.72 2.56,0.45 c -5.31,-2.56 -8.15,-5.84 -11.37,-9.2 -7.24,-0.33 -13.99,-0.22 -19.46,0.26 11.56,1.12 22.88,4.76 28.27,8.49 z m 33.43,83.36 -0.56,-1.16 4.85,5.52 c 2.72,0.64 5.93,1.1 10.46,1.07 9.07,-3.97 -9.18,-7.97 -20.87,-11.14 -6.47,0.2 -13.16,0.1 -19.89,-0.29 -1.83,0.61 -3.52,1.26 -5.17,1.92 11.31,1.08 20.02,1 31.18,4.08 z m -8.72,0 c -0.94,-0.79 -1.88,-1.56 -2.97,-2.25 -4.95,0.03 -9.15,0.84 -12.94,1.91 7.56,-0.9 12.29,-0.56 15.91,0.34 z m 63.69,1.01 c 2.84,-2.24 6.19,-4.56 9.5,-6.91 -6.83,-1.04 -13.54,-2.26 -19.8,-2.89 l -0.31,2.55 c -4.72,-1.05 -10.6,-1.26 -17.28,-1.09 -0.96,0.36 -2.01,0.54 -2.88,1.04 l 0.42,-0.94 c -6.97,0.25 -14.69,0.76 -22.92,1.17 9.57,1.07 20.46,1.54 30.09,1.08 l -11.05,4.85 c 23.06,10.45 4.57,-7.9 34.23,1.14 z m 16.89,-87.91 c 9.31,0.37 22.37,-1.21 29.05,1.53 -2.92,-3.24 -3.85,-5.1 -4.53,-6.78 -4.67,-0.62 -9.15,-1.39 -13.56,-2.21 0.54,0.89 1.11,1.73 1.97,2.36 l -12.04,0.4 -8.64,3.25 c 0.26,0.12 0.55,0.21 0.85,0.31 2.39,0.43 4.7,0.81 6.9,1.14 z m 41.94,95.9 c 21.39,2.98 20.11,0.85 15.5,-2.22 -2.17,0.64 -4.21,1.46 -4.91,2.75 -5.25,-1.46 3.61,-7.96 -11.07,-7.05 l 0.56,1.14 -21.42,-7.72 c -3.02,0.15 -5.94,0.49 -8.25,1.08 0.64,4.17 20.96,6.96 29.59,12.02 z m 71.57,5.38 -13.39,-6.6 c -3.27,0.66 -2.48,1.85 -1.13,2.55 -12.11,-4.57 -10.54,-7.27 -11.95,-9.42 l -4.97,-0.25 c 0.63,-0.25 2.13,-0.31 4.64,-0.13 -1.39,-1.57 -5.04,-2.88 -18.15,-4.5 19.49,-3.56 16.43,5.54 32.82,5.11 3.69,-2.07 1.71,-4.05 -2.33,-5.89 -10.88,0.47 -27.09,-1.35 -33.52,-3.59 -0.24,0.13 -0.51,0.24 -0.74,0.37 -0.81,2.17 -3.8,3.07 -7.66,3.31 -3.63,1.05 -8.08,1.12 -14.2,-0.5 -0.21,-0.02 -0.42,-0.02 -0.62,-0.04 6.74,2.26 4.96,4.25 7.24,5.56 0.02,-0.49 0.37,-0.92 1.4,-1.21 l 31.12,1.51 c -3.16,1.3 12.33,7.04 -7.98,5.97 8.28,5.51 24.58,9.77 39.42,7.75 z m 20.26,-18.21 c 3.56,-3.56 8.13,-7.33 11.99,-11.1 -13.38,-0.25 -9.13,2.69 -32.7,1.19 -0.52,-0.8 -1.26,-1.59 -2.12,-2.39 -9.8,2.49 -19.02,2.78 -25.08,5.25 8.67,1.52 19.72,2.09 29.21,1.38 l -8.9,5 c 18.64,10.14 3.66,-7.96 27.6,0.67 z m 19.22,-26.34 c -9.74,2.79 -17.76,5.06 -27.91,1.16 -0.24,0.56 -0.88,1.12 -1.65,1.68 6.86,1.86 12.62,3.73 13.34,4.94 -10.35,-3.1 -14.72,-0.17 -21.06,0.65 -0.48,1.18 0.42,2.38 4.48,3.59 13.61,2.2 23.79,-1.02 27.02,1.78 4.65,-4.79 7.73,-9.53 5.78,-13.8 z m 29.85,-4.87 c -5.56,-0.04 -10.34,0.53 -14.77,1.29 5.71,1.17 11.09,2.71 19.04,2.84 0.46,-0.4 0.63,-0.72 0.99,-1.09 -1.55,-1.07 -3.21,-2.08 -5.08,-3.02 2.25,0.26 4.46,0.48 6.79,0.85 1.99,-3.88 -2.3,-5.93 -4.46,-9.33 -17.18,-1 -33.09,-3.36 -47.04,-6.63 -0.2,-0.05 -0.46,-0.07 -0.62,-0.17 -6.1,-1.44 -11.88,-3.01 -17.22,-4.68 -1.14,5.41 14.15,9.65 21.52,13.49 4.89,0.16 9.57,-0.17 13.9,-1.59 l -10.35,4.26 c 0.08,0.12 0.04,0.25 0.08,0.37 14.84,1.91 25.79,2.13 37.22,3.41 z m 20.04,-8.28 c 0.97,0.13 1.92,0.26 2.89,0.41 -0.9,0 -1.72,-0.09 -2.62,-0.08 0.98,1.24 0.72,2.6 -1.89,4.06 l 21.26,-3.07 c 0.59,-1.82 -7,-1.93 -9.99,-1.78 5.25,-1.07 13.5,0.3 20.02,2.28 l 2.93,-4.75 c -18.65,-1.17 -45.15,-2.11 -58.35,-4.06 1.15,1.81 3.76,3.02 7.26,3.96 -0.09,-0.7 -0.17,-1.41 0.02,-2.24 7.39,0.73 15.88,2.69 18.47,5.27 z m 13.28,27.71 c -0.37,-0.09 -0.76,-0.17 -1.11,-0.27 -0.57,0.43 -1.33,0.68 -1.79,1.21 1.02,-0.44 1.97,-0.71 2.9,-0.94 z m 22.9,-77.73 c 26.59,-5.03 5.97,9.32 29.44,5.58 -3.7,-5.82 -2.03,-12.4 2.03,-18.49 3.75,5.82 18.69,1.17 28.81,1.44 -3.2,2.77 2.17,4.23 6.32,5.65 -3.67,-2.56 -5.79,-6.6 -11.93,-9.67 -2.12,-0.65 -3.83,-1.6 -5.37,-2.66 l -25.56,-5.84 c -1.75,3.52 7.81,7.34 7.81,7.34 -12.98,-1.1 -22.33,-1.25 -30.6,-1.05 0.3,0.23 0.52,0.46 0.95,0.69 8.18,2.19 14.01,-2.56 14.77,2.74 -8.65,-0.36 -5.38,2.89 -18.53,1.8 -0.6,-1.69 -1.66,-3.37 -3.02,-5.03 -8.99,0.38 -17.42,1.03 -28.87,1.11 -0.1,0.28 -0.21,0.56 -0.22,0.84 27.34,-0.9 30.15,9.73 46.49,10.39 z m 54.49,-16.97 c 0.15,0.09 0.3,0.16 0.46,0.25 l 0.72,0.02 z m -77.93,-14.78 c -6.24,-2.41 -13.55,-3.13 -20.14,-2.93 -4.4,1.63 20.07,7.5 11.49,10.6 7.57,0.79 14.29,0.58 19.71,-0.24 -3.44,-2.61 -7.22,-5.14 -11.06,-7.43 z m -28.23,10.3 c -1.65,0.07 -2.5,-0.66 -1.54,-3.79 -6.39,0.29 -15.15,0.33 -21.96,1.7 2.3,0.43 4.8,0.39 7.66,-0.69 l -1.22,7.72 c 0.22,0.08 0.38,0.15 0.58,0.23 4.68,-0.56 9.2,-1.15 13.41,-0.27 -1.52,0.1 -2.92,0.92 -3.58,1.97 3.96,-0.61 7.59,-1.28 10.85,-1.99 -2.66,-0.08 -5.46,-0.19 -8.46,-0.34 1.2,-0.43 3.24,-2.27 4.26,-4.54 z m -54.75,48.81 c -1.72,0.84 -3.19,1.59 -4.31,1.83 l 4.81,1.34 c -0.71,-0.01 -1.49,0.09 -2.52,0.3 l 3.9,3.43 c 6.03,-1.41 10.63,-2.04 20.34,-4.19 -9.61,-5.25 -15.82,-4.51 -22.22,-2.71 z m -9.19,7.49 c -1.81,1.19 -2.66,2.32 -2.93,3.4 3.59,-1.15 6.46,-2 8.99,-2.69 -1.57,-0.41 -3.46,-0.7 -6.06,-0.71 z m -22.45,-4.82 c -0.06,0.43 0.03,0.74 0.03,1.12 0.84,-0.25 1.67,-0.51 2.49,-0.77 -0.88,-0.15 -1.59,-0.14 -2.52,-0.35 z m -2.94,12.61 c 0.1,2.81 4.85,5.17 6.12,5.73 7.21,-0.18 14.45,0.71 21.52,1.73 -1.4,-1.2 -3.03,-2.34 -5.32,-3.17 l 2.91,-0.2 -19.83,-3.92 c -0.36,0.47 -0.65,0.91 -1.19,1.47 -1.3,-0.63 -2.73,-1.16 -4.21,-1.64 z m -16.27,42.21 c 1.29,-0.44 2.51,-0.71 3.69,-0.91 -0.57,-0.18 -1.09,-0.35 -1.63,-0.53 -0.74,0.44 -1.47,0.88 -2.06,1.44 z m 1.99,-35.53 c 2.58,0.25 5.22,0.49 8.15,0.64 2.59,-0.73 5.22,-1.15 7.86,-1.41 -6.2,0.04 -11.47,0.3 -16.01,0.77 z m -16.76,11.07 6.03,-0.63 c -0.25,-0.08 -0.51,-0.17 -0.76,-0.26 -0.96,-0.22 -1.99,-0.38 -2.96,-0.57 -0.52,0.48 -1.18,0.96 -2.31,1.46 z m -8.99,-26.01 c -3.98,4.09 -1.8,7.94 5.64,10.85 7.54,-0.96 13.07,-3.42 15.17,-6.43 -7.36,-1.06 -14.77,-2.15 -20.81,-4.42 z m -10.11,21.83 c -7.43,-0.5 -14.79,-0.62 -21.42,-0.39 4.21,1.69 7.28,3.31 9.69,4.85 6.73,2.2 11.36,4.92 11.5,7.39 0.59,0.03 1.11,0.08 1.74,0.1 8.41,-5.8 2.04,-8.1 -1.51,-11.95 z m -127.15,-71.71 c -1.03,0.51 -1.65,1.2 -1.56,2.23 l 3.7,1.43 c -5.7,0.55 -10.06,0.94 -13.51,0.98 0.03,0.02 0.06,0.04 0.09,0.07 5.92,-0.16 11.75,-0.29 17.23,-0.33 -0.17,-0.2 -0.35,-0.26 -0.52,-0.47 1.29,0.1 3.09,-0.67 4.69,-1.81 -3.39,-0.67 -6.81,-1.34 -10.12,-2.1 z m -105.08,26.24 c 11.62,1.07 21.34,1.56 23.53,-1.74 -9.15,-0.04 -17.75,0.34 -23.53,1.74 z m 11.21,-128.36 c -1.71,0.26 -3.34,0.57 -4.71,1.01 0.3,1.84 4.19,3.29 9.04,4.74 -0.77,-2.14 -2.37,-4 -4.33,-5.75 z m 493.27,135.69 c 4.73,-3.03 8.92,-6.12 10.99,-9.23 -10.75,-1.32 -13.27,4.07 -23.84,4.43 4.26,0.95 8.23,3.72 12.85,4.8 z m 108.19,47.17 c 1.71,-0.69 2.45,-1.4 2.54,-2.1 -0.37,0 -0.66,0.02 -1.05,0.01 0.44,0.01 0.78,-0.01 1.04,-0.03 0.26,-2.8 -10.83,-5.57 -20.5,-7.95 -6.06,0.67 -10.64,2.02 -9.77,4.12 9.7,1.42 12.08,6.04 27.74,5.95 z M 533.992,5008.1 c 8.188,-8.02 4.121,-20.97 34.961,-28.62 22.512,3.34 22.199,-12.7 47.649,-10.66 14.296,11.38 36.628,-7.25 59.668,3.2 -12.207,-7.87 27.785,-3.38 7.625,-12.16 6.464,-3.84 26.496,0.9 44.562,2.45 3.938,-6.78 6.379,-15.02 25.176,-21.06 -5.52,-0.54 -12.195,-0.89 -16.602,-1.88 7.239,-8.29 3.242,-21.09 31.055,-29.74 20.519,2.62 19.852,-13.4 43.008,-12.17 13.261,10.91 33.094,-8.43 54.265,1.28 -11.277,-7.49 25.149,-4.27 6.633,-12.41 8.582,-6.01 44.988,6.16 61.571,-1.06 -2.704,-1.6 -2.071,-3.41 -6.012,-4.32 23.211,4.22 15.879,-5.36 33.086,-5.45 l -0.617,7.78 c 6.652,2.49 8.613,-3.01 14.55,-1.7 -4.675,0.96 -14.543,4.68 -9.304,7.85 7.957,1.79 14.605,4.28 23.191,4.22 0.078,-2.98 -5.906,-4.3 -9.949,-5.21 0,0 18.601,-0.81 19.883,-4.48 -6.653,-2.46 -15.246,-2.4 -21.145,-6.74 24.434,-2.44 1.942,-2.52 13.84,-8.76 -3.293,9.16 21.214,3.76 34.424,5.74 1.36,-3.69 -9.27,-1.1 -12.57,-3.83 25.15,-16.2 37.76,2.52 70.16,-1.11 -0.67,-1.13 -4.64,-2.04 -6.65,-2.48 15.29,2.43 25.86,-6.12 35.79,-0.89 14.59,-1.71 2.61,-10.35 25.13,-10.25 -6.58,9.43 26.5,-1.97 27.13,8.08 l 17.23,-6.03 c 15.28,5.39 -3.98,16.97 25.84,17.71 27.13,-3.85 -2.66,-16.51 13.18,-21.84 l 6.66,5.45 13.25,-3.97 -2.02,-0.46 c 7.97,1.78 22.48,0.1 22.51,-2.86 -1.31,-2.3 -9.95,-2.24 -11.21,-4.53 13.19,4.95 52.21,-14.04 66.13,0.99 7.8,-2.72 23.89,-2.77 21.81,-7.55 7.13,6.63 35.25,-2.31 45.76,1.87 -1.38,-2.28 8.57,-6 16.53,-4.24 -10.62,2.58 -3.95,5.06 3.29,8.7 9.31,-4.88 35.78,-0.92 39.74,-8.95 14.59,4.27 9.29,10.01 12.54,15.74 9.31,-4.87 39.11,-4.13 33.81,-13.26 -8,1.17 -25.86,3.12 -22.52,-3.08 15.21,-3.49 6.61,2.49 19.16,3.32 -0.95,-1.66 8.5,-5.7 6.08,-8.34 7.42,0.94 17.78,0.79 28.34,-0.81 -16.49,4.25 10.59,6.35 0.7,10.07 l -15.9,-6.55 c -19.22,-0.32 -3.99,5.07 -11.27,7.41 33.79,1.64 27.17,11.07 58.95,15.22 5.94,-1.62 16.51,-4.2 19.84,-4.47 -10.6,-0.39 -8.59,-8.89 -2.59,-10.51 17.79,7 31.74,-4.76 46.3,-6.45 -12.61,2.13 -5.95,7.57 -1.32,9.62 30.45,4.84 11.92,-3.27 25.16,-7.24 46.94,0.63 76.74,-10.56 114.45,-5.07 l -17.82,7.92 -5.98,-7.3 c -13.89,5.82 2.65,16.47 10.61,21.23 1.99,-2.54 25.18,-1.29 15.91,-5.37 l 22.54,3.07 c -3.33,3.23 -17.9,1.94 -7.38,5.33 7.4,-2.35 30.49,-4.1 15.94,-8.36 11.89,-0.29 27.12,2.13 24.51,6.5 19.18,0.32 -2.03,-9.38 -10.59,-12.31 15.18,-0.55 13.19,-6.94 8.59,-8.97 l 21.13,0.77 c -4.61,-2 -4.63,-4.99 -9.22,-7.01 13.88,-2.84 23.85,5.33 35.69,-0.93 l 5.34,6.18 c 38.36,-5.3 34.41,-6.17 70.19,-7.08 l -5.95,4.62 c 27.13,8.08 19.8,-7.46 56.23,-4.26 20.53,2.65 33.8,4.63 31.14,11.98 11.88,2.67 14.55,-1.71 19.87,-4.49 9.25,4.07 29.12,11.52 43.67,6.85 -9.93,-2.21 -17.88,-4.01 -27.15,-5.12 2.66,-7.32 31.76,-1.78 46.95,-5.31 10.63,3.38 45.1,12.1 64.28,18.4 -8.63,6.01 -5.3,14.69 11.94,20.55 -2.66,-4.57 23.18,-4.73 35.03,-8.03 -5.91,-4.29 26.48,-10.88 1.37,-12.57 -7.28,2.32 -10.59,8.55 -20.55,6.31 5.96,-4.63 21.88,-9.99 38.39,-14.22 -1.28,-2.29 -9.94,-5.19 -18.53,-5.13 4.69,1.99 1.99,3.4 1.33,5.24 -30.46,-5.08 6.45,-10.59 1.9,-16.15 8.13,1.46 25.43,0.3 17.27,4.59 15.89,-11.32 48.27,5.9 65.48,-3.14 0.75,1.12 -9.22,4.86 2.73,7.55 17.85,1 16.52,-4.25 23.79,-6.57 5.32,3.17 32.45,5.28 29.81,3.72 11.87,2.68 -12.59,11.07 4,15.79 11.26,7.46 26.49,0.98 39.72,2.96 15.88,-5.38 -15.89,-3.57 -22.49,-6.06 l 45,3.16 c 13.21,-3.97 -5.98,-7.3 -19.24,-6.31 17.91,-4.9 41.06,-0.68 46.38,5.46 11.25,-1.43 17.2,-0.09 27.79,-2.68 -10.56,-3.38 -9.96,-14.15 -26.48,-15.88 -27.17,0.86 9.89,8.19 -13.22,9.95 l -2.02,-6.42 c -9.89,3.72 -17.81,-1.03 -28.45,-1.44 -5.93,1.66 1.31,2.29 5.29,3.2 -19.22,-0.36 -34.48,3.17 -49.03,-4.07 25.85,-6.1 64.91,1.67 76.2,-5.73 l 51.6,8.63 c 0.02,2.98 -17.88,7.89 -3.29,12.14 5.94,-7.58 21.14,-11.13 41.02,-12.59 -7.29,8.27 31.81,7.15 21.87,13.83 -9.29,-4.07 -13.91,2.85 -15.21,3.52 19.22,0.36 2.64,7.55 13.21,7.94 35.1,-2.04 -1.32,-5.25 33.11,-8.43 -7.29,-3.63 -25.88,-11.76 -45.03,-15.09 1.31,-3.66 19.13,0.37 27.16,-3.83 -11.28,4.42 7.93,7.73 -1.35,9.64 27.84,3.26 60.29,11.56 94.04,13.18 -5.32,-12.13 -56.93,-8.83 -46.36,-23.32 16.54,1.74 16.51,7.67 29.77,6.69 11.21,-7.38 39.04,-1.14 61.59,-1.06 l -9.96,3.73 c 8.61,2.93 24.46,0.54 34.44,-0.21 l -2.62,-1.59 9.83,2.23 c 1.54,-0.32 1.89,-0.71 1.86,-1.16 10.83,3.7 38.4,-0.09 59.1,1.94 0.01,5.95 -20.51,0.38 -30.42,1.11 -2.68,1.38 -21.82,4.03 -12.53,8.07 25.72,-0.13 43.65,6.86 72.78,6.47 l -9.25,1.86 c 9.27,4.08 21.82,1.94 35.7,2.11 25.19,-4.27 -18.55,-8.16 -3.3,-11.69 -9.92,-5.2 -27.13,0.87 -29.79,-6.68 l 15.82,-8.35 c 13.3,4.96 27.86,-2.68 37.16,-1.59 l -9.96,3.71 c 1.99,6.42 11.22,1.54 15.89,0.59 l -6.66,9.43 c -14.51,1.71 -24.49,-6.48 -35.03,-0.93 25.79,2.82 19.88,10.44 50.96,10.46 1.38,-3.67 -5.99,-1.32 -9.23,-4.05 10.6,-2.59 21.82,4.9 39,1.82 -9.86,-2.22 -25.82,-5.81 -13.22,-10.92 l 9.26,7.03 c 7.94,-1.17 4.67,-3.91 7.92,-4.16 11.29,-1.43 -2.56,7.36 15.27,5.42 2.66,-1.4 8.58,-3.04 5.96,-4.62 20.51,-0.37 9.88,2.23 29.06,5.54 -17.17,0.11 -17.77,10.86 0.06,11.91 25.16,-1.3 42.34,4.55 59.57,-4.47 l 11.27,4.52 c -7.26,-6.6 15.91,-2.4 23.87,-3.58 2.6,-7.35 -37.74,0.45 -37.8,-11.45 16.54,-1.26 9.3,-4.87 3.96,-8.03 17.91,1 6.67,8.41 14.61,13.18 0.01,-2.99 30.48,-1.1 19.87,-7.46 15.23,-0.54 17.89,7.01 29.1,5.56 -1.71,-2.91 -3.67,-6.66 -2.62,-10.43 1.34,2.46 15.7,-0.67 18.49,-0.91 -2.62,1.41 5.3,6.18 -7.93,4.19 3.32,5.71 31.14,0.04 30.43,4.85 1.34,-6.63 28.48,-1.55 42.36,-4.38 -1.29,15.59 -25.79,-5.79 -30.4,7.05 18.52,5.18 62.22,0.1 92.04,6.79 25.76,-3.13 -0.03,-5.95 5.22,-11.72 -23.8,-2.38 -29.75,2.25 -50.31,-0.4 22.51,-2.85 59.57,-1.47 76.11,3.22 24.55,0.54 27.17,-15.72 56.97,-12 -3.94,5.02 -3.28,6.19 -12.57,8.11 7.95,1.74 17.23,-0.12 25.81,-0.17 5.28,3.15 -13.24,3.94 -1.32,6.64 4.64,-0.96 14.55,-1.7 12.58,-5.12 l -1.99,-0.45 c 28.47,4.41 20.51,-12.26 45.01,-2.8 -1.96,2.53 -7.28,-0.63 -13.26,1.03 -4.59,3.89 10.59,9.28 21.92,10.84 -2.05,-3.43 9.9,-0.74 17.82,-1.93 5.29,-5.77 -19.87,-1.5 -23.85,-5.36 l 21.87,-1.04 -4.6,0.93 23.81,5.36 c -16.6,-1.73 -7.92,7.14 -0.64,7.79 16.51,-1.25 33.09,-2.48 31.07,-8.89 2.02,6.41 22.52,6.04 37.09,7.34 -15.87,2.39 -1.98,5.5 2.65,7.54 l 11.6,-3.18 c -0.11,-0.1 -0.17,-0.21 -0.29,-0.3 1.12,-0.35 2.21,-0.5 3.26,-0.52 l 9.24,-2.54 c -25.16,-1.68 5.28,-5.78 -0.65,-10.1 -7.29,-6.6 -22.52,-3.08 -35.78,-2.08 25.82,-12.06 36.44,6.19 58.94,0.36 -0.01,-2.98 -2.01,-6.41 -11.92,-5.69 3.96,-2.04 20.54,5.63 35.77,2.11 -3.99,2.09 -12.57,8.09 2.61,10.51 l 19.88,-7.45 c 23.16,-1.75 7.96,7.75 27.13,11.05 l -11.8,4.83 c 1.25,0.09 2.32,0.05 3.8,0.29 4.75,1.1 8.89,2.09 12.1,3.28 5.13,0.13 9.56,0.67 9.84,3.66 -1.54,0.04 -2.82,-0.21 -4.22,-0.33 1.03,1.07 1.6,2.33 1.64,3.85 5.23,-0.68 8.88,-1.21 11.71,-1.73 0.19,-0.18 0.35,-0.37 0.56,-0.53 0.14,0.1 0.33,0.22 0.48,0.33 6.97,-1.36 9.17,-2.73 21.6,-6.36 0.66,-10.75 -31.83,-13.09 -27.8,-27.1 25.14,1.69 61.57,4.9 78.06,0.69 22.53,3.06 20.54,11.55 17.25,17.76 9.32,1.09 13.89,0.13 19.85,-1.48 l -10.57,-3.4 c 27.81,3.28 43.69,6.86 72.86,6.43 13.8,1.47 11.4,6.23 7.96,10.71 1.71,1.29 5.35,2.43 9.02,3.21 l 6.85,0.4 -1.05,0.54 c 2.21,0.21 3.66,0.15 3.15,-0.36 2.78,1.08 2.31,2.9 1.22,5.01 6.78,1.79 17.26,0.57 25.77,0.34 0.01,-1.22 -1.22,-2.04 -2.62,-2.72 -7.27,0.27 -13.69,0.23 -19.82,-4.86 14.5,-5.16 35.36,0.92 44.65,-3 -3.34,-1.47 -7.89,-2.34 -13.59,-1.37 -1.33,0.7 -0.67,1.81 -1.97,2.54 l -21.21,-3.77 c 24.49,3.51 39.05,-4.13 38.4,-11.23 24.5,3.52 -19.89,7.45 9.25,10.01 38.35,-14.18 72.85,3.45 94,-16.59 17.85,4.02 39.06,10.77 66.86,11.04 0.03,5.97 18.58,2.19 15.92,9.55 -26.48,7.94 -49.67,-11.16 -70.88,-0.04 -11.87,-2.67 -7.91,-7.74 -13.25,-10.9 -10.54,-0.41 -20.49,0.33 -21.84,4.01 20.92,3.01 11.07,11.34 27.04,13.75 0.09,-0.24 0.11,-0.44 0.23,-0.69 1.53,0.3 2.78,0.69 3.93,1.13 1.92,0.13 4.02,0.24 6.55,0.24 -0.53,0.68 -1.52,1.23 -2.75,1.7 3.46,2.23 5.34,4.56 10.71,4.03 7.07,-7.22 24.29,-0.59 38.33,-0.2 l -6.25,3.59 c 5.31,3.05 15.2,0.88 21.42,0.27 l -1.61,-1.64 6.09,2.38 c 0.96,-0.3 1.19,-0.69 1.17,-1.13 6.69,3.84 23.88,0.43 36.74,2.76 -0.07,5.95 -12.76,0.09 -18.94,0.68 -0.62,0.49 -2.59,1.13 -4.58,1.93 7.93,0.94 1.85,2.62 -4.7,4.32 0.19,0.52 0.58,1.06 1.38,1.65 13.37,0.18 23.53,5.05 36.99,6.73 4.76,-1.36 9.3,-2.15 13.17,-1.51 l -19.91,-13.38 11.31,1.88 c -0.09,-0.27 -0.25,-0.43 -0.31,-0.73 l 1.77,-1.44 c -5.89,-5.18 -8.21,-11.94 -20.69,-16.38 23.79,-0.59 57.58,-4.91 72.85,-2.49 5.91,-4.63 8.52,-9.01 5.87,-13.56 23.87,8.35 37.07,-4.58 57.61,-4.92 21.82,4.9 -21.83,7 -5.94,13.54 6.58,-3.47 18.53,-0.79 24.48,0.53 -6.61,-2.46 -29.78,2.25 -45.69,4.65 11.94,-0.32 10.65,6.33 13.98,9.06 l -19.9,1.51 c 1.34,8.23 24.48,0.52 33.74,4.6 -5.92,-7.29 -2.67,-7.55 -8.6,-14.84 17.22,2.88 43.03,2.71 57.61,-1.94 8.59,-3.04 -7.27,-3.62 -11.93,-5.66 3.93,-5.07 17.2,2.88 20.49,-3.35 -2.66,-4.56 -10.56,-0.38 -16.56,-1.72 l 50.31,-2.6 c -0.02,-2.96 -12.56,-3.81 -20.48,-2.61 15.23,-3.53 26.44,-1.97 44.34,7.98 17.19,-3.08 37.01,-7.54 31.12,-11.86 7.93,1.77 2.66,4.55 2.61,7.54 23.21,-1.75 25.82,8.78 39.72,8.92 l -10.52,5.55 c 22.45,-5.86 5.28,9.13 25.12,4.66 -3.27,-5.71 -2,-12.34 1.31,-18.55 3.31,5.69 15.9,0.58 24.48,0.52 -5.3,5.77 18.52,5.16 4.65,10.97 19.91,4.48 29.1,-3.36 43.71,3.88 -9.23,1.88 17.21,5.85 9.25,10.02 19.24,0.32 32.43,-6.61 27.17,-12.79 -6.66,0.51 -17.27,3.1 -16.56,-1.71 l 35.05,0.91 c 8.66,-3.01 19.85,-4.44 21.2,-11.09 11.25,7.49 33.07,-5.49 41.7,3.42 -11.92,-5.68 -21.21,2.16 -25.76,3.13 l 5.44,1.22 c -0.79,0 -1.67,0.13 -2.83,0.36 l 15.2,11.36 c -14.53,4.65 -2.62,-7.53 -23.2,-7.18 -17.78,10.85 40.45,15.98 21.92,22.77 -15.19,3.52 -12.58,-6.8 -25.14,-10.63 l 3.28,-0.25 -28.48,-4.41 c -1.31,3.67 7.32,6.61 7.32,6.61 -34.46,0.2 -39.76,5.96 -76.81,7.56 2.67,-1.4 9.89,-12.66 -6.66,-14.4 -11.88,-2.67 -13.22,3.97 -23.11,4.74 5.92,1.32 11.26,7.49 19.16,3.31 l -0.6,7.79 c 27.81,9.21 13.28,16.86 51,19.39 0.74,2.36 5.96,4.18 13.16,5.42 -3.19,-2.11 8.28,-5.16 5.38,-8.67 -4.45,-6.7 -13.98,-3.4 -22.24,-2.58 16.22,-11.7 22.6,6.69 36.66,1.18 0.03,-2.98 -1.17,-6.44 -7.34,-5.85 2.49,-2 12.71,5.91 22.23,2.59 -2.51,2.05 -7.92,7.92 1.49,10.55 l 12.45,-7.16 c 13.81,-1.37 5.84,7.02 15.52,10.88 5.08,-4.21 10.37,-8.54 13.25,-12.68 -0.7,-1.87 -1.1,-3.89 -0.63,-6.34 0.88,0.12 1.87,0.25 2.81,0.38 -0.1,-2.45 -1.67,-4.74 -5.41,-6.81 19.2,-2.61 25.79,2.84 43.06,2.72 10.55,-8.53 -5.34,-9.13 -3.38,-17.61 12.61,0.86 28.5,4.41 19.18,9.27 l 23.89,-3.56 c 0.63,-1.82 -7.94,-1.77 -11.29,-1.54 9.29,-1.89 27.16,2.12 32.44,5.29 -1.97,-0.43 -7.97,-1.79 -10.57,-0.38 9.94,2.22 27.81,6.25 29.12,8.52 -14.56,-4.24 -15.84,5.38 -31.08,-0.03 1.3,2.27 3.94,6.84 11.89,5.66 -12.57,5.11 -25.14,4.28 -30.4,10.02 10.59,-4.35 17.42,1.81 19.67,2.7 -7.61,1.37 -21.19,0.69 -29.63,-0.86 -0.11,2.08 -0.62,4.14 -1.25,6 5.77,1.22 8.63,0.32 12.36,-1.21 l -6.53,-3.54 c 17.25,3.67 27.09,7.46 45.23,7.44 10.24,1.98 6.05,8.34 3.54,13.35 l 11.11,1.3 -1.71,1.34 c 2.42,6.91 12.33,4.74 19.73,4.59 0.06,-2.96 -4.46,-3.72 -4.03,-5.55 6.6,-2.42 16.49,-1.61 21.79,1.43 0.05,-2.97 -4.4,-9.67 -12.24,-7.71 -0.83,0.68 -0.44,1.81 -1.26,2.51 l -13.15,-4.06 c 15.19,3.85 24.35,-3.59 24.03,-10.7 15.2,3.86 -12.47,7.18 5.63,10.14 24.03,-13.65 45.26,4.46 58.68,-15.29 11.06,4.27 24.15,11.32 41.45,11.98 -0.05,5.97 11.53,2.44 9.78,9.77 -16.58,7.56 -30.75,-11.85 -44.09,-1.03 -7.35,-2.84 -4.82,-7.85 -8.1,-11.08 -6.55,-0.56 -12.75,0.05 -13.64,3.71 15.2,3.86 3.96,14.46 23.3,14.94 -2.51,5.02 -18.16,2.99 -25.15,4.27 2.02,2.77 -0.1,5.94 -4.65,8.18 4.91,4.87 15.95,9.13 21.67,13.35 -2,-2.78 1.73,-4.35 0.08,-5.98 l 13.43,5.84 c 0.1,-0.57 -0.17,-1.16 -1.02,-1.8 4.09,1.13 4.93,2.24 4.69,3.39 l 2.98,1.3 c 6.23,-3.57 7.95,-7.92 4.66,-11.16 11.16,-1.68 29.98,6.56 30.12,-2.37 14.38,1.56 -4.62,5.22 -5.88,7.73 l 1.23,0.46 -15.22,-0.89 c -1.78,10.3 17.34,-2.28 19.67,7.6 2.23,18.79 21.52,-5.69 32.16,-2.59 l -12.2,-13.65 10.69,3.09 c -6.11,-5.34 -6.02,-14.25 -15.4,-19.88 14.8,-0.25 35.87,-4.11 45.33,-1.47 3.74,-4.55 5.42,-8.89 3.83,-13.47 14.74,8.67 23.11,-4.07 35.9,-4.13 13.5,5.2 -13.67,6.7 -3.87,13.46 4.14,-3.38 11.53,-0.54 15.22,0.87 -4.08,-2.55 -18.55,1.83 -28.47,4.01 7.42,-0.16 6.53,6.48 8.57,9.25 l -12.4,1.24 c 0.73,8.25 15.22,0.85 20.93,5.07 -3.59,-7.38 -1.56,-7.59 -5.16,-14.96 10.68,3.11 26.73,3.31 35.86,-1.14 5.39,-2.92 -4.47,-3.73 -7.35,-5.83 2.52,-5.01 10.67,3.12 12.8,-3.06 -1.6,-4.6 -6.57,-0.53 -10.28,-1.95 l 31.32,-1.91 c 0.03,-2.95 -7.77,-3.98 -12.71,-2.89 9.52,-3.32 16.47,-1.61 27.48,8.6 10.73,-2.85 23.13,-7.03 19.51,-11.43 4.91,1.88 1.59,4.59 1.54,7.58 14.44,-1.44 15.94,9.13 24.58,9.46 l -6.61,5.41 c 14.04,-5.55 3.17,9.21 15.56,5 -1.96,-5.75 -1.08,-12.36 1.06,-18.53 1.98,5.74 9.87,0.81 15.22,0.87 -3.38,5.7 11.45,5.41 2.74,11.03 12.34,4.76 18.16,-2.96 27.14,4.49 -5.76,1.74 10.64,6.08 5.63,10.15 11.97,0.58 20.26,-6.17 17.07,-12.42 -4.14,0.42 -10.78,2.86 -10.28,-1.94 l 21.79,1.4 c 5.43,-2.9 12.4,-4.17 13.33,-10.79 6.91,7.64 20.64,-5.03 25.89,3.99 -7.34,-5.84 -13.22,1.87 -16.06,2.77 l 3.37,1.3 c -0.49,-0.01 -1.04,0.1 -1.77,0.32 l 9.31,11.57 c -9.1,4.45 -1.54,-7.57 -14.34,-7.5 -11.2,10.6 24.96,16.54 13.35,23.07 -9.49,3.31 -7.74,-6.98 -15.51,-10.98 l 2.05,-0.2 -17.67,-4.8 c -0.85,3.64 4.48,6.71 4.48,6.71 -21.44,-0.28 -24.81,5.4 -47.88,6.49 1.69,-1.37 6.31,-12.52 -3.95,-14.5 -7.36,-2.83 -8.28,3.79 -14.44,4.43 3.67,1.39 6.91,7.64 11.88,3.57 l -0.48,7.77 c 17.18,9.61 8.05,17.06 31.49,20.11 1.01,5.72 17.99,8.89 30.77,7.38 l -6.24,5.06 c 13.06,10 2.56,-7.98 19.36,0.48 7.1,-10.23 20.04,-22.18 10.66,-30.79 11.98,-2.35 16.01,3.18 26.76,3.31 6.67,-8.38 -3.21,-9.21 -1.89,-17.66 7.84,1.04 17.68,4.8 11.82,9.54 l 14.9,-3.23 c 0.41,-1.82 -4.91,-1.88 -7,-1.7 5.8,-1.75 16.87,2.5 20.12,5.75 -1.22,-0.47 -4.95,-1.9 -6.58,-0.53 6.16,2.36 17.22,6.63 18,8.93 -8.99,-4.46 -9.91,5.15 -19.32,-0.47 0.78,2.29 2.36,6.9 7.32,5.82 -7.88,4.94 -15.69,3.93 -19.04,9.6 6.65,-4.2 10.82,2.05 12.2,2.97 -5.93,1.57 -17.72,-0.14 -21.68,-2.63 -0.91,9.17 -21.05,-0.88 -16.13,6.89 -2.53,-2.34 -9.64,-2.35 -13.63,-0.41 0.37,4.16 11.86,6.57 16.76,11.44 23.02,4.89 -0.35,-7.09 5.07,-10.02 l 17.59,0.91 c -1.78,1.36 6.99,6.8 -4.5,6.12 5.28,6.04 16.35,10.31 25.45,5.83 2.06,2.81 -4.55,2.24 -6.6,2.44 2.02,2.78 13.04,13.01 -1.41,14.41 4.13,-0.39 -6.95,-4.66 0.5,-7.77 -5.75,-1.21 -21.45,2.7 -15.3,8.06 -7,-1.69 -20.13,-5.76 -25.88,-6.99 -1.71,4.35 4.91,1.9 7.78,3.99 l -20.18,-2.78 5.83,-4.72 c -14.85,3.25 -24.19,-8.32 -36.09,-11.93 1.56,7.59 11.45,8.41 19.22,12.39 -7.56,9.08 -4.87,-4.85 -17.26,-3.63 -1.67,1.35 -2.11,3.17 -1.33,5.49 l -9.78,-6.79 c -2.89,0.88 -1.28,2.53 -0.03,2.99 -16.8,-8.47 0.52,-10.77 -22.1,-14.5 13.67,-3.7 11.53,5.41 23.02,4.87 6.69,-5.41 -13.04,-10 -16.33,-13.23 -11.11,1.68 -12.49,13.09 -26.42,6.74 9.83,3.79 0.33,7.12 14.32,7.52 7.79,4 -4.17,3.37 -5.84,7.71 -3.68,-1.42 2.54,-7.99 -7.76,-6.97 l 0.4,1.14 -16.77,-8.45 c -15.73,3.92 -35.3,-9.61 -46.13,-0.82 l 2.57,-7.99 c -9.87,-0.79 -23.87,-1.21 -30.84,-2.91 1.57,4.61 8.16,5.14 15.14,6.83 -17.75,1.16 -33.32,-3.84 -45.18,-10.41 8.72,-5.62 9.96,-5.15 18.24,-8.93 -11.4,-11.35 -13.69,6.72 -28.47,1.02 -0.47,7.78 4.47,6.7 0.7,14.23 -6.12,-5.37 -16.44,-4.36 -23.4,-9.03 -3.79,7.52 2.7,14.02 17.94,14.9 11.61,-6.51 24.25,5.33 33.81,-0.96 l -5.83,4.76 c 7.55,1.6 13.15,1.67 18.88,2.54 5.71,-1.15 10.45,-2.81 11.62,-6.55 12.2,8.61 37.86,-2.11 46.99,7.65 -13.1,-6.87 -24.19,0 -29.42,0.5 l 6.08,1.77 c -0.89,-0.08 -1.9,-0.05 -3.23,0.07 l 16.39,12.87 c -16.8,3.16 -2.43,-7.78 -25.76,-9.52 -20.92,9.01 44.65,20.04 23.17,24.92 -4.14,0.47 -7.04,0.23 -9.31,-0.43 1.01,0.97 0.15,2.12 -4.87,3.73 11.08,2.48 19.35,2.09 26.84,1.83 -0.91,-1.26 -2.35,-2.51 -4.45,-3.76 21.92,-0.66 28.98,5.43 48.53,7.08 2.11,-1.24 3.3,-2.33 3.94,-3.33 0,-0.03 -0.02,-0.04 -0.01,-0.07 l 0.05,0.01 c 3.04,-4.97 -8.85,-7.67 -6.5,-14.51 14.23,2.13 31.95,7.29 21.03,11.19 l 27.31,-1.12 c 0.85,-1.76 -8.85,-2.57 -12.65,-2.69 7.75,-0.68 20.38,2.22 28.91,5.27 4.23,-1.38 7.5,-3.2 8.31,-6.22 13.05,7.89 39.07,-4.27 48.99,4.96 -13.88,-6.12 -25.02,1.37 -30.4,2.16 l 6.35,1.43 c -0.91,-0.02 -1.96,0.06 -3.33,0.25 l 17.58,11.93 c -17.22,4.11 -2.89,-7.63 -27.11,-8.04 -1.48,0.71 -2.44,1.41 -3.11,2.09 5.55,1.9 9.91,3.66 10.5,4.73 -4.69,-1.66 -8.15,-1.98 -11.18,-1.85 3.44,7.66 47.21,13.54 28.98,18.59 -17.97,2.97 -14.62,-7.25 -29.31,-11.55 l 3.87,-0.13 -24.09,-3.94 c 1.95,1.53 4.88,2.73 9.58,2.54 -4.21,1.1 -8.35,1.69 -12.32,2.12 1.08,0.43 1.87,0.7 1.87,0.7 -2.68,-0.07 -5.19,-0.11 -7.59,-0.13 -7.31,0.67 -13.5,1.26 -17.13,4.21 12.33,-3.26 19.58,3.58 22.05,4.69 -10.89,0.73 -32.23,-2.64 -39.3,-5.68 -2.14,9.02 -38.27,-3.85 -29.7,4.6 -4.48,-2.68 -17.42,-3.7 -24.79,-2.32 0.48,4.2 21.25,8.22 29.91,13.78 41.62,8.12 -0.26,-7.13 9.73,-9.29 l 31.96,3.38 c -3.32,1.11 12.35,7.77 -8.49,5.48 9.29,6.77 29.17,12.59 45.96,9.39 3.59,3.1 -8.39,1.6 -12.13,1.51 1.32,1.16 4.9,3.53 7.45,6.01 2,-0.02 4.04,-0.02 5.96,-0.1 l -4.44,1.82 c 1.64,2.13 1.92,4.14 -1.14,5.34 14.8,4.59 1.91,-9.28 30.37,-1.13 13.5,-9.96 38,-21.43 20.27,-30.4 22.68,-1.9 30.29,3.79 50.62,4.32 12.63,-8.13 -6.04,-9.33 -3.52,-17.73 14.84,1.32 33.43,5.46 22.33,9.98 l 28.21,-2.67 c 0.79,-1.81 -9.29,-2.07 -13.24,-1.96 10.98,-1.55 31.91,3.13 38.03,6.49 -2.3,-0.51 -9.33,-2.08 -12.42,-0.77 11.63,2.59 32.55,7.27 34.04,9.59 -17.03,-4.78 -18.79,4.79 -36.59,-1.18 1.49,2.32 4.47,6.99 13.85,6.1 -14.93,4.64 -29.7,3.34 -36.05,8.89 12.59,-3.96 20.47,2.45 23.08,3.42 -11.24,1.35 -33.53,-0.8 -41.01,-3.44 -1.76,9.13 -39.83,-1.67 -30.54,6.29 -4.78,-2.43 -18.23,-2.71 -25.79,-0.91 0.7,4.16 22.43,7 31.67,12.06 43.55,5.75 -0.63,-7.1 9.62,-9.83 l 33.29,1.56 c -3.38,1.3 13.19,7.06 -8.53,5.96 9.98,6.23 30.9,10.92 48.13,6.78 3.89,2.88 -8.61,2.07 -12.49,2.19 3.82,2.86 24.62,13.5 -2.7,14.37 7.82,-0.25 -13.14,-4.93 0.96,-7.77 -10.88,-1.42 -40.58,1.91 -28.97,7.5 -13.25,-1.95 -38.08,-6.52 -48.96,-7.96 -3.23,4.29 9.3,2.09 14.73,4.28 l -38.19,-3.53 11.05,-4.51 c -28.1,2.7 -45.75,-9.22 -68.25,-13.28 2.94,7.66 21.65,8.84 36.33,13.12 -14.32,8.79 -9.2,-5.04 -32.64,-4.28 -3.18,1.29 -4.02,3.09 -2.53,5.43 l -18.49,-7.14 c -4.38,0.61 -3.29,1.82 -1.46,2.55 -29.16,-8.7 1.7,-10.39 -40.37,-14.9 2.86,-0.35 5.23,-0.5 7.44,-0.58 -4.33,-0.99 -8.98,-2.04 -13.59,-3.09 -7.94,2.93 -15.2,5.49 -31.2,1.32 18.6,4.15 0.62,7.12 27.09,8.06 14.72,4.28 -7.9,3.21 -11.07,7.49 -6.96,-1.56 4.83,-7.89 -14.66,-7.26 l 0.74,1.15 -31.7,-9.07 c -26.99,3.02 -59.78,-8.25 -80.98,-4.16 1.79,0.72 3.35,1.45 4.31,2.15 -1.73,-0.48 -7.04,-1.95 -9.36,-0.6 8.78,2.42 24.56,6.81 25.68,9.11 -12.84,-4.54 -14.14,5.05 -27.58,-0.67 1.14,2.3 3.38,6.93 10.46,5.9 -9.07,3.92 -17.9,4.13 -23.54,6.97 1.1,0.38 2.17,0.75 3.22,1.09 2.61,0.11 4.79,0.93 6.5,1.87 1.67,0.4 3.17,0.71 4.18,0.77 -1.31,-0.08 -2.31,-0.28 -3.53,-0.41 1.58,0.95 2.75,1.89 3.43,2.21 -8.47,1.52 -25.28,-0.32 -30.91,-2.85 -1.31,9.16 -30.02,-1.1 -23,6.72 -3.6,-2.37 -13.75,-2.45 -19.44,-0.55 0.54,4.16 16.92,6.69 23.9,11.61 32.83,5.13 -0.49,-7.09 7.22,-9.96 l 25.1,1.09 c -2.55,1.34 9.96,6.87 -6.41,6.08 7.53,6.08 23.31,10.47 36.28,6.08 2.94,2.84 -6.48,2.2 -9.4,2.38 2.88,2.8 18.58,13.14 -2,14.4 5.88,-0.36 -9.92,-4.73 0.7,-7.78 -8.21,-1.27 -30.57,2.48 -21.81,7.91 -9.99,-1.76 -28.71,-5.97 -36.91,-7.26 -2.43,4.34 7.01,1.95 11.11,4.08 l -28.78,-3 8.3,-4.66 c -21.16,3.11 -34.5,-8.57 -51.46,-12.3 2.23,7.61 16.33,8.53 27.42,12.59 -10.76,9 -6.95,-4.9 -24.62,-3.82 -2.24,1.26 -2.79,2.98 -1.93,5.1 1.7,-0.25 3.4,-0.52 5.05,-0.95 3.63,2.88 -8.05,2.08 -11.68,2.22 3.57,2.85 22.99,13.46 -2.54,14.36 7.3,-0.26 -12.28,-4.9 0.9,-7.76 -10.17,-1.41 -37.94,1.97 -27.1,7.54 -12.38,-1.93 -35.58,-6.46 -45.76,-7.88 -3.02,4.29 8.68,2.07 13.76,4.26 l -35.69,-3.48 10.33,-4.52 c -26.27,2.75 -42.76,-9.15 -63.79,-13.17 2.74,7.64 20.23,8.8 33.96,13.05 -13.41,8.82 -8.61,-5.02 -30.53,-4.23 -2.97,1.3 -3.75,3.11 -2.37,5.44 l -17.28,-7.11 c -2.36,0.36 -2.99,0.92 -2.79,1.46 5.63,2.74 11.48,5.02 14.05,5.18 -11.01,-0.71 -17.14,-3.84 -21.75,-7.66 -3.65,-1.92 -4.39,-3.41 -4.93,-4.67 -0.84,-0.9 -1.67,-1.79 -2.52,-2.67 -2.48,-1.23 -7.85,-2.4 -20.61,-3.85 -5.71,1.7 -10.36,3.99 -14.81,5.42 1.38,0.09 2.89,0.16 4.68,0.23 13.75,4.26 -7.39,3.22 -10.37,7.51 -5.99,-1.43 2.59,-6.85 -10.13,-7.2 -2.74,3.3 -11.32,6.6 -2.91,9.79 11.68,2.26 19.99,-2.44 21.09,2.86 -12.34,-0.43 -7.68,2.85 -26.44,1.64 -3.47,-6.93 -17.43,-13.78 -30.8,-19.48 -14.07,-3.88 -32.3,-3.92 -43.52,-2 14.1,0.88 28.1,7.74 24.5,12.73 -8.15,-7.24 -27.67,5.3 -23.4,-4.48 -16.44,0.43 -44.08,-0.22 -45.96,8.23 15.51,3.37 30.63,-1.56 43.78,0.45 -3.63,0.14 -7.21,2.23 -5.1,4.26 l 19.42,-0.63 c -14.73,3.91 -11.85,6.7 -30.63,5.5 1.19,-0.67 3.57,-2 1.8,-2.46 -4.69,-0.09 -10.57,-0.19 -15.3,-0.27 l -0.67,7.77 c -14.02,-3.86 -41.21,5.58 -66.92,-0.53 l 2.29,1.64 c -13.58,0.86 -18.94,-5.51 -27.39,-10.59 -2.67,0.37 -6.44,0.57 -13.15,0.27 -0.27,1.53 -1.12,3.06 -1.65,4.67 -11.09,-4.05 -17.08,2.27 -28.27,4.18 13.01,-4.39 -8.66,-8.35 0.77,-10.74 0.72,-7.8 -22.23,-8.12 -33.99,-7.38 -7.13,9.98 36.35,6.03 18.56,16.07 -11.73,0.75 -14.6,-5 -6.33,-6.73 -14.7,0.95 -37.03,1.77 -47.71,7.81 -6.11,-2.74 -10.91,-3.99 -15.1,-4.94 -1.53,-0.07 -2.96,-0.12 -4.82,-0.24 0.35,-0.16 0.8,-0.35 1.24,-0.56 -2.61,-0.57 -5.04,-1.21 -7.4,-2.11 -3.64,-0.04 -7.31,-0.08 -10.57,-0.3 l -0.88,7.76 c -17.38,-4.11 -51.18,4.84 -83.03,-1.74 l 2.83,1.68 c -14.82,0.55 -21.69,-4.42 -30.22,-9.18 -9.15,0.51 -15.28,0.59 -19.3,-0.52 -0.33,-0.41 -0.53,-0.8 -0.76,-1.2 -0.38,1.47 -1.38,2.93 -2.03,4.48 -3.8,-1.18 -7.1,-1.51 -10.2,-1.41 -0.57,0.84 -1.91,1.61 -4.65,2.25 l -3.95,-0.92 c -4.9,1.23 -9.92,2.93 -16.3,3.71 10.37,-2.65 3.06,-5.4 -0.43,-7.62 l -3.34,-0.77 -5.36,4.51 c -2.28,0.26 -4.44,0.24 -6.66,0.34 -0.7,0.4 -1.38,0.78 -2.38,1.22 -4.99,0.18 -8.57,-0.41 -10.86,-1.29 -9.48,-0.62 -18.65,-2.17 -27.81,-4.09 -8.21,0.67 -16.09,1.71 -22.38,3.41 1.88,0.2 3.6,0.36 4.91,0.44 -11.84,6.71 -28.72,-2.91 -44.63,1.69 -9.3,0.59 -17.09,-1.98 -21,-5.06 -5.55,-1.42 -10.97,-1.28 -16.91,-1.28 -0.12,0.74 -0.25,1.37 -0.78,1.67 -0.46,-0.67 -1.19,-1.16 -1.85,-1.71 -4.99,-0.08 -10.38,-0.49 -16.64,-2.33 l 0.71,1.18 c -9.43,-1.94 -18.05,-1.82 -26.17,-1.16 l -0.13,0.9 -2.46,-0.68 c -17.4,1.7 -32.07,5.26 -45.08,-3.07 -7.04,0.23 -13.24,1.34 -17.59,3.82 -13.61,-7.35 -28.3,-2.41 -42.25,-3.74 -0.87,0.69 -2.54,1.31 -5.49,1.82 l -8.66,-1.76 c -0.42,0.2 -1.17,0.35 -2.91,0.37 -7.98,0.27 -16.19,0.03 -24.49,-0.53 l -0.38,0.26 c -15.99,1.22 -30.6,-0.11 -44.97,-2.32 -0.76,1.12 -1.21,2.42 -2.41,3.67 -14.85,1.13 -27.02,0.36 -38.23,-1.18 -14.29,3.09 -32.9,-4.43 -50.64,-0.58 -16.44,0.58 -28.99,-5.18 -29.22,-9.47 -2.8,0.07 -5.66,0.18 -8.68,0.37 l 8.15,4.24 c -11.72,0.75 -21.74,2.01 -27.51,-3.59 -14.88,12.87 -49.84,-8.67 -68.8,5.05 -22.73,2.02 -25.59,-7.26 -40.96,-10.59 -1.4,0.09 -2.61,0.32 -3.92,0.47 0.98,3.09 4.26,7.48 -4.49,8.53 -61.29,-5.3 -116.73,-7.09 -183.52,-10.16 -2.2,0 -4.31,-0.05 -6.43,-0.09 0.88,1.05 3.95,1.95 5.59,2.39 -45.25,0.46 -89.7,-12.78 -127.34,-9.22 -2.25,-0.63 -5.93,-1.35 -9.68,-2.2 -13.14,0.52 -24.38,1.04 -30.95,-4.24 -0.99,0.66 -2.07,1.18 -3.18,1.66 3.54,1.32 6.82,2.96 6.78,6.49 l -19.63,-4.19 c -6.59,0.09 -13.99,-0.86 -21.66,-1.96 -15.14,0.41 -29.97,-3.1 -43.25,0.68 7.08,-1.01 2.21,7.59 14.03,3.91 -1.79,-0.48 -0.57,-1.14 -2.35,-1.66 25.35,-0.41 16.08,4.41 34.57,7.21 -20.65,-2.68 -46.91,-5.22 -64.56,-3.58 4.21,-6.78 -15.23,-3.22 -20.45,-7.66 l -1.19,0.67 c 0.04,-2.99 -11.62,-5.23 -15.2,-6.21 l -4.8,8.63 c -4.75,-0.74 -3.26,-2.06 -2.7,-3.29 -0.87,0.19 -1.79,0.36 -3.02,0.46 -14.77,-1.25 -29.22,-2.34 -43.59,-3.36 -6.85,1.04 -11.99,2.86 -13,5.84 -14.13,-0.94 -18.14,-6.05 -32.8,-5.12 1.12,2.31 4.64,3.27 5.17,4.43 -31.13,1.29 -69.29,-2.4 -98.8,2.3 -24,-2.74 -44.56,-4.5 -59.7,-10.73 6.45,0.8 25.29,-0.91 13.6,-6.16 -0.85,-0.5 -1.9,-0.73 -2.86,-1.08 -1.3,-0.06 -2.53,-0.12 -3.83,-0.19 0.7,1.15 5.05,2.2 7.21,2.71 -11.89,-0.08 -23.72,-0.84 -35.46,-1.86 -4.61,0.9 -7.38,1.58 3.15,3.46 -5.19,9.9 -43.02,-2.73 -42.86,7.17 -4.63,-3.14 -33.02,-1.96 -43.56,-7.52 -2.42,4.3 15.27,3.31 15.2,6.29 l -12.9,-1.66 -0.04,2.98 c -24.79,2 -29.19,-10.24 -43.85,-12.39 l 0.56,1.16 -9.96,-1.8 11.58,8.27 c -15.82,-1.5 -23.9,-8.77 -41.5,-10.76 l -1.8,2.5 -10.58,-2.98 c 1.8,0.5 2.37,1.66 1.21,2.32 -9.88,-7.76 -32.84,-5.3 -42.1,-11.89 -4.59,0.64 -8.79,4.72 -13.7,5.72 2.95,1.26 6.65,2.62 15.01,3.78 2.45,-0.07 5.92,0.2 11.38,1.08 -18.45,11.79 -69.56,9.12 -103.63,7.42 -27.44,-6.86 -72.94,2.1 -84.38,-12.13 l 2.8,5.78 -46.5,3.64 c -39.34,-3.39 -79.96,-0.16 -109.77,-8.74 l -8.34,4.55 c -23.5,-12.85 -72.85,-11.69 -103.71,-19.37 -4.82,0.36 -10.54,0.13 -15.98,-0.07 0.39,0.29 0.72,0.58 0.85,0.86 -2.84,0.26 -6.13,-0.23 -9.6,-0.98 -5.97,0.15 -10.27,1.08 -10.14,4.33 -2.22,-1.33 -9.43,-1.67 -17.7,-2.09 -5.07,2.58 -8.55,0.62 -12.37,-0.82 -2.52,-0.22 -4.91,-0.51 -7.21,-0.87 -0.85,0.16 -1.78,0.53 -2.74,0.94 4.57,0.58 9.72,0.92 9.71,2.48 l -13.82,-1.27 0.02,2.97 c -25.18,2.63 -31.01,-8.15 -45.1,-10.64 l -0.05,2.63 c -2.44,0.14 -4.47,0.05 -6.61,0.02 l 7.15,4.5 c -16.94,-1.01 -25.75,-8.04 -44.59,-9.49 l -1.87,2.56 -11.37,-2.66 c 1.93,0.44 2.57,1.59 1.34,2.28 -10.75,-7.46 -35.2,-4.29 -45.26,-10.6 -7.52,1.19 -13.81,10.67 -23.88,4.32 l 1.96,9.37 c 25.09,0.93 9.31,-6.72 35.74,-3.5 -19.4,12.29 -74.04,11.39 -110.46,10.82 -29.49,-5.95 -77.82,4.53 -90.45,-9.31 l 3.15,5.68 -49.54,5.25 c -42.1,-1.95 -85.38,2.78 -117.45,-4.7 l -8.78,4.85 c -33.29,-15.73 -113.04,-5.64 -135.08,-24.69 -18.77,4.49 5.71,7.28 7.61,10.69 -13.84,1.7 -37.11,-10.68 -50.26,-1.87 0.03,2.97 19.49,2.6 10.71,4.49 -10,5.59 -14.43,-5.35 -25.73,0.91 4.98,-5.76 -18.29,-12.2 -35.19,-13.19 3.11,-0.27 3.11,-0.27 4.44,-0.96 2.43,-4.39 -10.15,-3.36 -17.05,-3.97 0,0 0.64,1.12 2.51,1.57 -87.25,-6.58 -187.08,-9.15 -278.735,-2.88 l 16.925,3.99 c -13.183,-3.08 -36.449,-0.61 -43.925,0.59 l 1.902,0.44 c -24.441,9.15 -27.695,-8.43 -46.477,2.02 l 3.735,0.9 c -29.504,0 -46.977,9.78 -75.871,5 -22.649,3.62 -20.11,8.19 -35.789,12.44 -13.188,-0.09 -19.414,-5.56 -20.102,-6.69 l 6.313,-0.52 c 3.914,-3.04 -1.203,-3.98 -8.032,-4.64 -5.293,2.66 -9.011,5.29 -18.816,8.3 -15.742,1.1 -23.508,-3.79 -24.395,-4.86 l 7.493,-1.09 c 7.871,-5.92 -16.782,-2.96 -28.164,-4.3 7.664,-8.9 2.293,-21.32 33.25,-32.4 23.418,0.8 21.64,-15.13 47.968,-15.95 15.703,9.72 36.985,-11.32 61.582,-3.51 -8.769,-4.28 6.407,-5.74 11.453,-8.11 -32.742,-0.69 -65.32,-0.8 -97.058,-0.01 l 19.512,4.65 c -15.204,-3.6 -42.266,-2.04 -50.977,-1.13 l 2.207,0.51 c -28.633,8.17 -31.887,-9.53 -53.976,0.18 l 4.296,1.04 c -34.226,-1.16 -54.785,7.92 -88.164,2 -26.367,2.73 -23.55,7.39 -41.875,11.02 -15.293,-0.61 -22.359,-6.32 -23.125,-7.48 l 7.336,-0.27 c 8.125,-5.04 -15.926,-4.77 -26.789,-7.35" style="fill:#171818;fill-opacity:1;fill-rule:nonzero;stroke:none" transform="matrix(0.13333332538604736, 0, 0, -0.13333332538604736, -57.99573898315428, 800)"/></svg>