<?xml version="1.0" encoding="utf-8"?>
<svg xmlns="http://www.w3.org/2000/svg" viewBox="12.6562 642.4934 649.3716 45.5186" width="649.372px" height="45.5186px" preserveAspectRatio="none"><path id="path121" d="m 5264.76,1147.06 c -6.87,-1.89 -13.58,-6.21 -19.93,-16.17 -0.56,0.07 -1.14,0.14 -1.63,-0.07 -3.12,13.17 -9.95,8.59 -16.07,10.25 0.12,0.3 0.18,0.54 0.32,0.85 12.72,4.75 25.55,7.9 38.45,9.85 -0.39,-1.52 -0.77,-3.08 -1.14,-4.71 z m -94.94,-15.38 1.22,7.44 c 5.85,1.49 11.72,2.89 17.53,4.53 2.81,-2.49 3.98,-6.88 4.12,-12.48 -7.61,0.61 -15.24,0.74 -22.87,0.51 z m -6.33,-0.23 c -3.56,-0.21 -7.12,-0.46 -10.69,-0.79 -0.52,1.41 -0.74,2.7 -0.71,3.84 1.15,0.27 2.3,0.48 3.46,0.75 0.05,-0.19 0.04,-0.47 0.09,-0.65 l 0.3,0.73 c 2.73,0.64 5.45,1.33 8.18,1.99 -0.36,-1.8 -0.5,-3.88 -0.63,-5.87 z m -92.9,-12.72 c -2.83,-0.37 -5.65,-0.72 -8.48,-1.04 -0.23,0.31 -0.45,0.61 -0.68,0.88 3.62,0.49 7.22,0.99 10.85,1.51 -0.57,-0.45 -1.14,-0.88 -1.69,-1.35 z m -65.2,-22.05 c 3.82,1.18 7.61,2.43 11.4,3.68 -3.7,-2.21 -7.51,-3.36 -11.4,-3.68 z m -2.61,12.04 c -6.91,0.3 -13.82,0.45 -20.74,0.47 7.07,0.76 14.18,1.54 21.3,2.32 -0.2,-0.9 -0.42,-1.72 -0.56,-2.79 z m -115.46,-74.5 0.37,1.59 c 2.07,0.6 4.13,1.4 6.16,2.68 l -1.25,-5.56 c 5.95,-0.45 11.82,-0.38 17.66,-0.11 -7.64,-4.65 -15.17,-7.22 -22.94,1.4 z m -14.07,-2.41 c -0.8,1.32 -1.27,2.54 -1.6,3.68 3.3,-0.52 6.6,-0.87 9.87,-0.72 -0.74,-5.38 -1.82,-9.45 -8.27,-2.96 z m -159.59,-3.22 c 2.74,1.92 5.75,2.94 8.95,3.38 -0.23,-0.29 -0.47,-0.64 -0.69,-0.87 1.36,-1.52 2.77,-2.77 4.23,-3.79 -4.16,0.47 -8.32,0.93 -12.49,1.28 z m -5.61,0.43 c -4.08,0.31 -8.14,0.58 -12.22,0.78 4.22,0.86 8.4,1.77 12.64,2.58 z m -613.13,7.34 c -6.79,-0.2 -13.58,-0.36 -20.38,-0.45 6.51,1.06 13.05,1.96 19.62,2.43 0.31,-0.14 0.63,-0.31 0.94,-0.45 z m -497.35,-7.87 c -0.81,-0.22 -1.61,-0.37 -2.41,-0.59 -0.77,0.04 -1.52,0.05 -2.28,0.09 1.58,0.23 3.16,0.49 4.75,0.74 z m -166.53,-12.78 c -7.08,-0.5 -14.15,-1.3 -21.25,-2.98 l 0.08,4.41 c -11.53,-4.26 -23.19,-7.42 -34.92,-9.97 -16.07,0.97 -31.99,-1.73 -47.83,-6.9 -5.66,-0.438 -11.31,-0.778 -16.96,-1.028 -22.49,1.528 -44.5,4.148 -66.78,-0.582 -1.01,0.012 -2,0.012 -3,0.02 l 0.08,3.87 c -3.8,-1.45 -7.64,-2.57 -11.47,-3.8 -43.07,0.152 -85.66,-1.289 -126.44,-13.969 -8.62,0.039 -17.23,0.098 -25.82,0.141 58.01,32.768 122.55,7.019 182.74,31.808 4.65,-0.18 9.29,0.28 13.93,1.16 l -0.06,-3.6 c 8.54,3.31 17.15,5.85 25.8,8.03 l -1.52,-6.07 c 1.12,3.11 2.51,5.23 4.06,6.73 0.77,0.18 1.54,0.41 2.31,0.58 6.89,-0.72 13.77,-1.52 20.63,-2.44 1.59,1.42 3.2,2.51 4.8,3.77 l 0.29,-3.26 c 4.89,3.48 9.84,5.94 14.81,7.96 21.3,1.63 42.82,1.24 64.45,0.09 13.32,-3.31 26.71,-7.35 40.12,-10.18 -6,-1.14 -12.03,-2.4 -18.05,-3.79 z m -607.47,-38.44 c 0.39,1.281 0.79,2.371 1.17,3.832 0.38,-0.653 0.73,-2.043 0.99,-3.743 -0.71,-0.027 -1.43,-0.07 -2.16,-0.089 z m -59.1,-2.961 c -17.13,-0.977 -34.15,-2.02 -51.08,-3.137 17.56,4.148 34.96,8.617 52,7.359 -0.02,-1.152 -0.43,-2.609 -0.92,-4.222 z m -115.18,0.601 c -1.85,-0.051 -3.7,0.02 -5.55,0.012 l 5.86,3.07 c -0.02,-1.172 -0.13,-2.183 -0.31,-3.082 z m -882.61,-40.871 c 5.94,1.32 11.91,2.449 17.94,3.383 15.88,-0.961 31.83,-3.141 47.72,-6.274 -23.21,-6.429 -45.59,-8.718 -65.66,2.891 z m -632.66,-20.578 c 0.31,0.871 0.66,1.559 0.93,2.519 0.34,-0.921 0.59,-1.789 0.88,-2.691 -0.61,0.063 -1.2,0.109 -1.81,0.172 z M 964.797,992.27 c 2.539,2.039 3.496,6.101 1.504,14.18 0.054,0.01 0.125,0.03 0.183,0.04 1.653,-5.55 4.075,-10.318 6.875,-14.619 -2.863,0.07 -5.714,0.258 -8.562,0.399 z M 801.172,946.871 c 1.191,-0.633 2.363,-1.172 3.555,-1.699 -1.836,0.008 -2.95,0.629 -3.555,1.699 z m -16.68,1.629 c -0.781,13.121 -3.574,18.559 -7.297,20.52 -0.254,2.089 -0.828,4.55 -1.922,7.609 3.653,-10.117 9.571,-17.481 16.18,-23.039 -0.879,-4.781 -2.305,-8.641 -6.961,-5.09 z m -2.746,105.52 c 2.746,-13.07 3.125,-12.54 3.574,-15.75 -0.965,-0.25 -2.09,-0.05 -3.601,1.42 0.144,4.4 -0.086,7.73 -0.481,10.63 z m -54.168,-17.86 3.992,17.37 c 2.91,-15.7 3.078,-12.18 3.469,-18.36 -2.488,0.4 -4.973,0.77 -7.461,0.99 z m 4671.462,135.01 c -13.51,7.91 -25.27,-3.71 -36.97,-10.1 -1.47,4.53 -2.79,2.84 -3.99,-1.92 -6.48,-2.69 -12.98,-2.96 -19.82,3.51 l 2.37,10.66 c -14.82,6.45 -2.42,-26.84 -17.93,-13.54 -6.2,8.73 1.22,13.56 -1.6,14.27 -31.11,-5.17 -63.85,3.56 -92.7,-23.01 -7.75,22.87 -33.55,-0.09 -45.54,21.65 -7.89,-9.31 -16.03,-7.18 -18.79,-22.54 -0.71,0.06 -1.42,0.08 -2.14,0.13 l 10.52,26.22 c -5.43,15.84 -9.42,-11.37 -13.07,-26.04 -9.16,0.69 -18.32,1.14 -27.49,1.41 -1.01,2.96 -1.63,5.97 0.95,11.75 -11.68,9.09 -21.76,-6.39 -31.92,-11.52 -3.42,-0.05 -6.84,-0.18 -10.26,-0.27 -1.6,0.88 -3.21,2.14 -4.85,4.19 l 1.88,10.63 c -8.06,4.7 -5.78,-10.48 -7.89,-15.16 -1.3,-0.04 -2.63,-0.13 -3.94,-0.19 -0.63,0.51 -1.31,1.17 -2.1,2.07 -4.76,8.82 1,13.54 -1.17,14.3 -5.8,-1.14 -11.67,-1.45 -17.56,-1.65 l -0.04,0.08 -0.03,-0.09 c -18.51,-0.65 -37.16,-0.15 -54.17,-19.97 -5.87,22.99 -25.95,0.42 -35.1,22.34 -6.15,-9.18 -12.44,-6.93 -14.65,-22.26 -3.99,0.52 -7.99,0.62 -11.99,0.98 l 0.38,1.78 c -3.54,1.63 -5.46,0.75 -6.56,-1.27 -3.84,0.28 -7.66,0.77 -11.5,0.93 0.11,0.57 0.05,0.97 -0.55,1.13 -2.32,-0.39 -4.65,-0.69 -6.98,-0.93 -39.18,1.01 -78.63,-3.2 -118.28,-7.34 -2.43,1.57 -4.64,3.83 -6.49,7.38 -3.84,-4.74 -7.73,-6.5 -10.98,-9.11 -28.03,-2.8 -56.15,-5.13 -84.31,-4.9 -2.26,-2.53 -4.55,-4.66 -6.86,-6.6 -10.82,-0.43 -21.64,-1.02 -32.49,-1.78 0.02,0.07 0.01,0.18 0.04,0.26 -0.18,-0.11 -0.4,-0.19 -0.58,-0.3 -12.87,-0.91 -25.76,-2.01 -38.66,-3.2 -6.06,1.63 -12.15,3.18 -18.3,4.43 l -0.89,2.71 -0.79,-2.36 c -12.78,2.47 -25.68,3.3 -38.51,-0.77 -0.34,1.57 -0.29,3.25 0.02,4.57 -15.61,-11.13 -38.42,-16.47 -57.16,-11.11 l -2.82,-3.4 c -3.18,1.23 -4.53,-1.03 -5.25,-4.33 -3.34,-0.16 -6.69,-0.26 -10.03,-0.38 0.53,3.25 2.09,5.1 0.77,5.58 -16.06,-2.64 -32.51,0.37 -48.53,-3.73 -96.6,17.77 -194.47,-0.22 -291.97,13.15 -124.29,10.25 -233.8,39.7 -353.8,-9.08 -5.49,-0.6 -11,-1.42 -16.5,-2.16 0.12,1.53 0.61,2.72 2.38,3.72 -36.53,-8.99 -69.81,7.07 -104.21,-2.27 l 0.12,4.41 c -12.38,-5.32 -24.9,-8.87 -37.5,-11.38 -73.99,5.97 -145.81,8.82 -219.48,-4.29 -96.28,11.81 -187.42,19.57 -286.34,-23.5 0.2,4.32 -0.84,6.73 2.56,8.52 -38.09,-8.65 -72.62,7.73 -108.5,-1.28 l 0.14,4.4 c -9.31,-3.76 -18.71,-6.49 -28.15,-8.72 -51.03,8.01 -101.82,22.05 -153.59,13.27 -87.17,20.09 -178.91,-51.43 -266.82,-24.99 -47.27,37.26 -106.5,-27.92 -154.89,-17.4 l 0.22,6.06 c -3.98,-0.81 -7.96,-1.34 -11.93,-1.88 -3.44,1.78 -6.8,4.05 -10.08,6.89 -75.21,47.48 -148.42,38.11 -221.95,13.32 -5.9,-0.38 -11.82,-0.95 -17.76,-1.84 -90.48,20.96 -186.73,-48.98 -277.95,-21.26 -37.66,29.42 -83.73,-2.29 -125.9,-12.79 -31.63,9.94 -65.14,38.15 -97.95,30.78 l 0.1,-0.58 c -41.7,16.68 -83.13,18.85 -124.63,13.09 -1.23,6.43 -1.23,13.66 4.78,19.16 -4.15,5.67 -23,2.18 -20.64,-21.7 -40.27,-7.44 -80.64,-21.5 -121.4,-36.28 -9.91,-2.03 -19.83,-4.27 -29.76,-6.78 -98.1,20.59 -196.57,-36.29 -291.37,12.72 -46.43,-31.18 -96.915,40.01 -148.38,31.36 l 1.758,-10.97 c -9.328,17.1 -19.973,4.61 -29.629,-5.02 -5.774,2.39 -12.063,-0.42 -18.301,-4.53 -1.723,2.63 -3.293,6.77 -4.68,12.91 l 1.953,2.22 c -6.296,16.58 -14.296,-13.98 -20.671,-28.44 -5.254,-0.16 -9.622,4.06 -12.407,17.5 l 2.473,2.03 c -5.059,13.25 -13.02,-1.62 -20.281,-15.44 -5.864,24.69 -27.676,-17.43 -28.032,32.93 6.465,-0.05 -9.976,22.16 4.629,33.94 -4.089,5.87 -23.933,3.24 -22.324,-20.94 -1.082,-14.72 -4.051,-28.31 -4.207,-41.01 -10.266,1.33 -25.488,-11.02 -23.496,26.25 7.703,-0.65 -10.535,23.01 7.617,33.43 -4.519,6.23 -28.332,5.4 -27.937,-18.86 -3.782,-24.96 -14.211,-46.15 -2.2,-66.84 -6.757,0.55 -13.515,0.48 -20.273,-0.69 l 2.383,-10.9 c -22.488,32.69 -47.805,-47.659 -62.383,1.4 l 2.258,2.29 c -12.063,24.84 -25.715,-59.669 -33.32,-30.048 l -1.633,-12.402 c -13.938,-3.899 -1.934,13.992 -12.84,18.68 -4.035,-1.64 -1.086,-22.579 -9.719,-15.68 -2.859,50.61 -34.062,-11.801 -36.199,45.08 7.664,0.18 -12.473,21.78 4.5,34.1 -5.027,5.71 -28.469,2.34 -25.852,-21.77 -1.464,-25.69 -10.156,-48.25 4.516,-67.719 l 2.477,18.731 c 5.199,-18.563 3.847,-9.25 5.851,-23.211 18.684,-2.031 21.738,-29.121 35.313,-40.063 -0.137,0.551 -0.286,1.071 -0.098,2.032 8.672,22.589 21.562,9.601 28.855,6.589 l 3.11,-10.328 c 4.812,-21.66 20.34,42.989 15.41,5.551 28.894,7.789 61.16,9.938 93.719,11.18 1.355,-3.774 3.133,-7.473 5.949,-11.02 l 1.57,11.297 c 0.996,0.031 1.985,0.07 2.969,0.102 -1.809,-14.282 -1.98,-27.45 6.23,-39.7 l 2.793,18.649 c 4.434,-18.692 3.399,-9.352 4.954,-23.36 17.554,-2.55 19.773,-29.71 32.332,-41.019 -0.118,0.539 -0.247,1.07 -0.047,2.019 8.718,22.34 20.574,9.012 27.39,5.79 l 2.688,-10.418 c 4.051,-21.782 20.176,42.41 14.676,5.117 35.781,9.121 76.757,8.48 116.687,8.75 5.637,14.152 30.567,-1.43 21.914,25.961 9.926,-31.231 39.635,-39.219 50.665,-38 -0.41,-2.91 -0.89,-6.239 -2.62,-5.071 21.35,-40.449 25.43,37.391 45.42,-12.058 3.19,34.918 36.45,-11.172 47.84,29.879 2.47,-7.77 3.29,-14.77 2.38,-20.989 36.11,-0.812 76.01,-13.441 106.59,-15.031 26.09,30.57 63.25,-13.859 85.65,28.5 18.62,-8.91 48.75,-26.488 74.69,-9.43 l -2.52,-5.191 c 29.3,2.551 65.91,4.82 85.94,31.473 8.76,-40.481 21.41,-32.364 34.11,-45.293 19.51,18.781 59.02,13.48 88.8,30.66 4.64,-18.641 24.6,8.051 26.23,-19.09 83.43,52.801 186.84,34.902 276.33,-4 l -1.28,-1.93 c 10.46,13.61 22.28,41.993 33.12,61.563 0.72,-0.281 1.43,-0.582 2.15,-0.863 -0.12,-0.02 -0.17,-0.161 -0.32,-0.149 0.2,0.059 0.38,0 0.57,0.051 10.37,-4.02 20.61,-8.301 30.69,-12.801 0.73,-0.43 1.48,-0.789 2.22,-1.168 l -1.33,-1.722 c 0.44,0.5 0.91,1.16 1.36,1.699 4.76,-2.449 9.55,-3.91 14.42,-2.387 -0.11,-4.5 -0.11,-4.5 -2.72,-8.801 15.21,12.168 31.71,-21.48 49.62,-0.359 l 1.05,-7.16 11.42,10.129 c -0.19,-7.512 -0.52,-18.078 -4.23,-19.661 139.26,-6.98 282.57,40.051 425.43,34.692 l -5.21,-8.551 27.75,15.5 c -0.12,-4.539 -1.43,-6.75 -2.75,-8.789 35.61,-14.922 72.25,10.797 106.86,7.25 -0.13,-4.352 -5.3,-13.09 -0.41,-17.98 25.41,24.707 41.35,-31.403 53.8,19.519 1.2,-2.359 2.1,-13.781 -0.47,-17.902 35.5,8.761 71.52,13.082 107.62,14.261 1.1,-0.16 2.16,-0.14 3.21,0.051 35.13,0.981 70.34,-0.922 105.23,-4.582 5.03,3.942 10.13,7.063 15.26,9.84 2.64,-8.367 4.97,-17.758 8.74,-23.258 -0.08,0.551 -0.16,1.071 -0.05,2.02 4.89,22.48 12.14,9.308 16.24,6.199 l 1.76,-10.379 c 2.74,-21.719 11.4,42.699 8.68,5.34 21.2,9.641 45.61,9.609 69.41,10.469 2.55,11.672 13.16,3.582 13.8,15.281 0.65,-0.07 1.32,-0.129 1.97,-0.199 7.9,-21.672 22.05,-27.301 27.73,-26.063 -0.2,-2.918 -0.41,-6.258 -1.47,-5.117 13.53,-40.082 14.42,37.809 27.33,-11.281 1.17,34.949 21.96,-10.551 27.88,30.679 1.64,-7.718 2.27,-14.71 1.87,-20.929 21.55,-0.211 45.63,-12.153 63.9,-13.231 14.82,31.012 38.08,-12.859 50.36,29.969 11.31,-8.57 29.74,-25.559 44.74,-8.019 l -1.36,-5.231 c 17.39,3.09 39.15,6.063 50.31,33.07 6.37,-40.3 13.68,-31.929 21.62,-44.621 11.1,19.121 34.79,14.512 51.99,32.371 3.33,-18.55 14.4,8.551 16.21,-18.55 48.04,54.531 110.06,38.601 164.7,1.781 l -0.7,-1.969 c 4.49,10.789 9.15,30.57 13.72,48.168 5.46,2.051 10.88,4.981 16.28,8.832 0.77,-0.762 1.55,-1.582 2.32,-2.391 l -2.85,-10.808 c 1.52,3.93 3.55,6.258 5.82,7.769 4.21,-4.332 8.4,-7.89 12.49,-5.55 0.09,-4.5 0.09,-4.5 -1.31,-8.871 8.62,12.511 19.64,-20.758 29.55,0.75 l 0.87,-7.141 6.43,10.371 c 0.16,-7.5 0.34,-18.078 -1.81,-19.73 54.72,-2.551 109.56,18.261 164.93,32.312 27.62,-13.602 56.68,-0.172 85.52,8.148 l -1.49,-4.699 5.74,5.84 c 3.03,0.809 6.06,1.531 9.07,2.149 -0.07,-0.219 -0.13,-0.469 -0.21,-0.688 6.36,-4.113 12.63,-4.703 18.84,-3.621 l -3.22,-11.801 c 11.85,11.86 29.24,11.219 47.21,9.922 0.22,-0.953 0.37,-1.93 0.87,-2.711 0.59,1.039 1.15,1.738 1.72,2.52 5.37,-0.403 10.75,-0.789 16.04,-0.879 3.8,-3.242 7.1,-5.692 9.73,0.289 4.82,0.379 9.51,1.148 13.91,2.687 l -1.68,-8.558 14.29,12.152 0.45,-17.273 c 36.93,-0.977 71.6,14.082 107.63,16.281 l -1.83,-15.621 c 33.42,27.972 71.34,-0.137 106.75,12.172 l -2.38,-5.5 c 89.98,-5.731 172.87,20.468 262.15,32.578 -1.4,-1.66 -1.86,-6.258 -3.29,-8.071 4.29,5.442 9.06,15.434 13.89,14.102 1.26,-3.469 -1.35,-7.25 -2.9,-8.84 18.87,-25.719 55.37,16.41 67.17,-3.5 5.29,2.738 7.64,13.52 4.68,21.692 69.89,6.539 144.66,11.449 215.91,31.618 3.41,-3.57 4.02,-10.6 3.06,-19.5 24.82,16.95 50.11,24.1 75.57,26.24 l -0.09,-2.34 c 0.63,0.94 1.27,1.67 1.9,2.49 36.49,2.74 73.31,-4.68 109.6,-8.8 2.13,9.59 -4.21,11.36 -1.79,19.2 12.85,2.78 25.59,6.54 38.31,10.83 -4.59,-13.88 -8.61,-36.26 -12.16,-26.68 1,-2.64 0.49,-7.03 1.5,-9.7 l 19.27,39.3 c 3.37,1.17 6.76,2.35 10.14,3.55 l -3.66,-10.09 7.29,9.3 -0.68,1.82 c 15.44,5.46 30.99,10.91 46.95,15.08 -0.78,-1.69 -0.94,-6.3 -1.75,-8.13 2.41,5.5 5,15.59 7.91,14.35 0.83,-3.44 -0.62,-7.27 -1.5,-8.89 11.84,-25.42 32.52,17.3 40.02,-2.4 3.08,2.83 4.22,13.64 2.27,21.77 39.67,7.35 82,13.56 122.45,32.69 2.15,-0.06 4.31,-0.1 6.47,-0.16 1.18,-3.88 1.46,-9.69 1.14,-16.78 4.05,4.84 8.14,8.84 12.26,12.26 -0.1,-0.49 -0.19,-0.94 -0.28,-1.39 0.21,0.7 0.45,1.3 0.73,1.8 1.01,0.83 2.04,1.55 3.05,2.31 3.86,0.84 8.76,-2.23 8.81,5.59 3.74,1.99 7.51,3.57 11.29,4.73 -1.51,-4.89 -3.12,-7.12 -5.12,-3.05 1.26,-2.55 1.05,-6.97 2.33,-9.53 l 5.76,13.41 c 23.87,6.14 48.32,-1.83 72.27,-5.8 1.29,11.06 -3.93,11.6 -0.4,23.1 -12.12,13.55 -21.55,-27.33 -32.63,-7.49 l 1.25,10.61 c -7.97,6.7 -1.24,-26.78 -9.6,-13.24 -3.34,8.83 0.62,13.55 -0.89,14.3 -7.16,-1.99 -14.48,-1.44 -21.74,-2.19 l 1.93,4.48 c 3.32,0.38 6.64,0.75 9.96,1 l -0.94,-3.13 2.26,3.2 c 23.84,1.66 47.86,0.09 71.81,-2.01 -2.4,-13.99 -4.41,-34.01 -6.55,-24.92 0.62,-2.62 0.38,-7.02 1.02,-9.67 l 9.5,34.24 c 1.85,-0.16 3.7,-0.34 5.54,-0.5 l -0.11,-0.61 0.26,0.6 c 11.2,-1.03 22.38,-2.08 33.52,-2.88 2.42,11.08 -7.31,11.48 -0.74,23.08" style="fill:#171818;fill-opacity:1;fill-rule:nonzero;stroke:none" transform="matrix(0.13333332538604736, 0, 0, -0.13333332538604736, -57.9957389831543, 800)"/></svg>