<?xml version="1.0" encoding="utf-8"?>
<svg xmlns="http://www.w3.org/2000/svg" viewBox="12.4374 415.1886 658.0505 57.8603" width="658.051px" height="57.8603px" preserveAspectRatio="none"><path id="path91" d="m 2128.54,2519.8 c 4.66,-0.97 9.02,-2 12.46,-3.02 2.77,0.84 5.65,1.54 8.52,2.25 11.3,-1.51 23.7,-3.62 35.27,-2.72 -2.95,-4.61 -11.9,-8.08 -23.8,-10.34 -6,4.58 -10.43,6.92 -26.59,8.4 1.92,0.68 3.69,1.54 5.67,2.15 -5.03,0.39 -7.26,-0.73 -9.53,-1.82 -3.69,0.27 -7.91,0.51 -12.81,0.75 2.74,2.62 6.55,3.76 10.81,4.35 z m 108.58,21.29 c 6.32,-1.16 15.25,-0.97 25.71,-0.21 -9.14,-2.55 -21.75,-4 -35.46,-4.4 3.44,1.37 6.71,2.89 9.75,4.61 z m 575.03,-4.28 c -4.19,-1.82 -9.19,-3.59 -14.15,-5.26 l -22.6,3.66 c -6.2,-1.77 -13.39,-2.58 -19.24,-3.41 l -12,0.87 c 19.88,2.14 47.78,7.22 67.99,4.14 z m -3.48,15.43 c 16.63,-4 16.25,-8.37 9.11,-12.62 -7.44,-0.99 -15.25,-1.39 -24.81,-1 -7.43,7.6 3.97,10.27 15.7,13.62 z m 128.9,1.79 c -2.61,0.04 -5.18,0.06 -8.04,0.22 -0.77,0.74 -1.29,1.42 -1.7,2.08 2.93,-0.51 6.21,-1.36 9.74,-2.3 z m 204.61,-15.01 c 2.61,1.24 4.67,2.03 6.26,2.47 0.56,-0.18 1.08,-0.36 1.85,-0.53 0.43,0.32 0.89,0.6 1.33,0.91 5.22,-0.67 -3.07,-11.29 -0.81,-11.18 l 16.61,8.82 -10.02,5.8 c 1.34,0.67 2.78,1.26 4.27,1.81 7.01,1.24 14.95,1.98 23.46,2.25 -1.78,-2.96 -5.57,-6.35 -20.35,-5.01 19.09,-2.47 26.15,-13.24 17.93,-19.33 l -6.3,0.76 c 0.09,0.23 0.25,0.39 0.33,0.63 l -10.9,3.44 1.02,-2.91 -15.24,1.86 c -9,-4.78 5.39,-4.63 16.62,-5.78 l 0.08,-0.23 c -11.82,-0.58 -21.59,-5.06 -33.84,-2.5 9.54,6.05 -3.42,13.36 7.7,18.72 z m 12.68,-19.28 c 6.93,0.21 14.04,0.25 18.3,2.62 3.9,-0.69 6.62,-1.76 6.32,-3.63 -9.69,-1.29 -17.66,0.53 -24.62,1.01 z m 177.02,17.29 c 7.18,-0.58 13.44,-1.57 12.98,-4.28 -6.15,-0.81 -11.57,-0.46 -16.61,0 1.3,1.53 2.4,2.94 3.63,4.28 z m 11.92,7.4 c 3.89,-0.47 5.22,-2.22 6.35,-3.56 -0.54,-0.62 -1.04,-1.24 -1.83,-1.79 l -12.6,1.32 c 1.97,1.39 4.45,2.72 8.08,4.03 z m 27.9,-8.06 c -5.89,1.49 -10.62,3.07 -10.64,5.07 5.38,-1.47 8.77,-3.17 10.64,-5.07 z m 944.56,188.38 c 1.23,-1.26 2.73,-2.64 4.88,-4.21 13.24,-0.47 22.52,0.08 29.84,1.07 -2.36,-1.33 -4.79,-2.38 -7.26,-3.27 -10.2,-0.03 -21.77,-0.3 -33.51,-1.04 -4.87,1.24 -7.62,2.82 -4.23,5.48 2.32,-0.89 7.88,-0.97 11.08,-0.23 l -15.75,1.92 c 5.15,-0.22 10.1,-0.05 14.95,0.28 z m 38.82,-2.52 c 11.19,1.94 17.74,4.85 28.76,6.08 2.62,-0.69 5.24,-1.4 7.85,-2.54 -22.02,-1.06 -31.03,-3.81 -35.27,-7.22 -2.69,1.44 -2.74,2.6 -1.34,3.68 z m 110.65,117.62 c -0.67,-0.83 -1.36,-1.65 -2.06,-2.46 l -5.04,-0.24 c -0.25,1.93 3,2.48 7.1,2.7 z m 52.26,-56.62 c -2.18,-1.68 -4.69,-3.42 -6.23,-5.02 -5.54,0.7 -10.5,1.96 -11.68,5.28 5.9,0.04 11.84,0 17.91,-0.26 z m 32.27,-7.14 c 0.32,0.77 0.94,1.33 1.7,1.8 1.76,-0.41 3.45,-0.87 5.13,-1.35 -1.92,-0.24 -3.8,-0.49 -5.66,-0.79 -0.42,0.11 -0.75,0.25 -1.17,0.34 -0.07,-0.21 -0.19,-0.39 -0.31,-0.57 -7.63,-1.21 -14.41,-2.68 -19.13,-4.18 l -0.14,6.76 c 6.81,0.17 13.56,-0.63 19.58,-2.01 z m 11.02,3.34 c 4.4,-0.06 9.47,-0.61 14.14,-0.95 0.81,-0.09 1.55,-0.18 2.44,-0.26 -5.79,-0.11 -12.26,-0.65 -18.67,-1.41 -0.22,1.07 0.35,2.07 2.09,2.62 z m 49.2,21.75 c -0.83,-0.65 -2,-1.4 -3.97,-2.34 2.29,0.13 4.39,0.21 6.52,0.31 -5.01,-1.41 -10.74,-4.38 -16.36,-6.33 -1.63,0.45 -3.48,0.98 -5.68,1.62 2.54,4.92 11.84,4.9 19.49,6.74 z m 7.31,-1.82 c 7.74,0.29 14.45,0.39 20.48,0.39 -2.71,-2.5 -5.65,-4.91 -9.51,-7.1 -12.88,-0.98 -17.67,-1.87 -22.14,-1.67 -3.55,1.96 9.49,6.28 11.17,8.38 z m 65.32,-90.06 c -0.3,1.57 -0.71,2.75 -0.7,3.75 3.81,-0.39 5.03,-1.39 0.7,-3.75 z m 36.92,-6.36 c -4.12,-3.14 -9.12,-3.42 -14.1,-3.29 0.53,0.04 0.89,0.11 1.43,0.15 l -4.27,-0.06 c -2.56,0.1 -5.05,0.15 -7.4,-0.09 l -2.28,-0.03 c -1.77,3.28 -0.75,6.29 5.38,7.37 l -15.54,-2 c 0.14,1.08 0.15,2.03 0.08,2.87 13.4,1.17 24.57,1.94 34.35,2.49 1.28,-2.12 0.13,-4.44 2.35,-7.41 z m 51.35,-55.42 c -13.28,-2.37 -27.97,-4.12 -41.35,-5.98 0.07,0.56 0.08,1.1 0.54,1.77 1.23,-0.93 4.17,-1.13 5.86,-0.46 l -8.32,2.24 c 16.82,-2.01 30.39,8.97 43.27,2.43 z m -39.3,108.2 c 5.72,2.43 20.88,4.72 25.18,8.39 9.4,2.48 14.12,5.04 -3.17,8.74 13.39,-1.08 31.86,1.73 48.4,1.4 -16.43,-9.33 53.05,-0.32 24.63,-11 72.34,4.1 83.06,-1.78 149.29,6.5 -3.17,-2.98 -16.89,-8.76 -34.26,-12.98 -4.98,-0.34 -9.9,-0.52 -14.63,-0.35 2.27,-0.5 3.72,-1.13 3.69,-1.98 -12.13,-2.21 -25.23,-3.4 -37.43,-2.29 l -2.93,4.89 c -8.61,-1.42 -12.31,-2.46 -12.97,-3.29 -7.34,1.36 -10.93,3.48 -6.24,6.95 l -55.89,-5.29 -26.29,0.56 c 2.68,4.79 3.96,12.02 -10.36,11.51 -1.19,-7.22 -24.61,-13.98 -46.79,-13.49 -0.49,0.61 -0.47,1.19 -0.23,1.73 z m 137.79,61.96 c 1.27,0.06 2.56,0.13 3.83,0.19 -2.21,-0.61 -4.07,-1.37 -5.52,-2.3 l -0.58,-0.02 z m 14.75,-7.83 c 5.12,0.94 11.33,1.45 19.76,1.22 -11.07,-0.01 2.4,-4.23 -1.65,-5.19 l -4.26,-0.09 -3.71,0.18 c 1.11,-0.09 1.99,-0.14 2.85,-0.19 l -13.15,-0.26 c -5.08,1.86 -3.78,3.16 0.16,4.33 z m 22.27,58.62 c -1.95,-4.84 -3.81,-10.3 -19.28,-12.05 l -0.69,12.97 c 6.9,0.4 13.67,-0.06 19.97,-0.92 z m 2.39,-37.16 c 0.06,-0.37 0.12,-0.75 0.12,-1.1 -0.36,0 -0.63,0 -1,-0.01 0.3,0.43 0.57,0.71 0.88,1.11 z m 10.43,11.44 c 12.89,-3.38 -7.92,-7.93 18.19,-10.6 -7.67,0.36 -22.37,-3.57 -27.82,0.2 3.89,5.04 7.42,8.03 9.63,10.4 z m 89.26,-102.95 c -8.34,4.57 -18.97,4.35 -38.9,1.46 1.52,3.05 -2.28,5.65 -1.69,8.24 16.88,0.05 34.42,-0.99 52.4,-2.15 -6.69,-1.81 -11.55,-4.09 -11.81,-7.55 z m 54.03,3.45 c -23.4,-0.8 4.25,-4.82 -8.39,-5.92 l 8.32,0.3 c -9.78,-3.32 -21.33,-6.12 -33.11,-8.68 l 0.81,1.41 c -4.69,-3.03 -24.02,-4.86 -33.75,-0.16 25.32,4.72 30.1,11.86 66.12,13.05 z m 15.13,32.66 c 4.75,-0.79 5.24,-2 4.93,-3.28 -7.02,-0.56 -16.22,-1.64 -20.98,0.11 7.44,1.29 12.29,2.26 16.05,3.17 z m 22.5,-8.76 c -8.6,-0.3 -23.97,-4.4 -32.43,-3.18 4.99,1.95 12.64,2.23 18.71,4.02 2.72,-0.47 6.99,-0.78 13.72,-0.84 z m -36.58,-6.61 c -0.09,0.03 -0.17,0.05 -0.28,0.08 0.09,0.15 0.26,0.25 0.37,0.4 -0.06,-0.16 -0.01,-0.34 -0.09,-0.48 z m -103.25,-40.45 c -5.15,-0.48 -10.47,-1.02 -15.94,-1.56 -3,0.26 -6.32,0.74 -10.1,1.58 1.07,8.22 16.66,4.1 25.01,8.31 0.95,-0.58 2.01,-1.18 3.26,-1.82 4.29,0.21 8.16,0.48 11.8,0.78 -4.68,-2.64 -8.74,-5.49 -14.03,-7.29 z m -29.33,13.95 c -7.53,-1.68 -12.28,-4.41 -15.82,-7.57 -4.07,-0.39 -7.94,-0.47 -10.52,0.38 23.77,5.4 21.44,6.15 35.33,12.92 10.44,-3.47 11.95,-6.21 16.87,-9.73 -8.47,0.46 -22.94,-2.98 -25.86,4 z m -107.17,-97.13 -7.78,0.65 c 0.05,0.2 0.16,0.38 0.2,0.58 8.92,2.55 8.65,3.12 5.77,3.76 7.54,0.34 3.49,-2.1 1.81,-4.99 z m -16.71,74.86 c -6.05,0.81 -11.14,2.02 -13.75,3.88 8.45,1.11 17.87,2.52 28.97,4.44 -1.79,-1.91 -7.39,-5.04 -15.22,-8.32 z m -39.34,-19.97 c -0.24,-0.23 -0.59,-0.36 -0.83,-0.6 l 0.12,0.41 c 0.23,0.08 0.49,0.11 0.71,0.19 z m 2.71,11.17 0.72,2.39 -18.31,-1.77 c -0.11,0.18 -0.28,0.35 -0.33,0.54 -0.07,-0.16 -0.1,-0.23 -0.16,-0.35 -13.07,8.14 16.61,9.03 25.78,9.91 -0.57,0.02 -1.09,0.03 -1.67,0.06 3.28,0.31 6.74,0.68 10.31,1.1 -2.37,-4.32 -3.46,-9.52 -16.34,-11.88 z m 460.73,103.49 c 1.35,3.45 8.44,4.4 16.69,4.76 1.89,-2.04 -3.16,-4.33 2.64,-6.14 l -8.89,-0.16 c 3.87,-0.81 7.17,-1.82 9.82,-2.94 -10.07,-1 -20.64,-1.85 -23.98,1.89 3.35,-5.7 -1.77,-8.7 -10.08,-10.68 l -8.24,-0.5 -1.39,13.63 c 8.08,0.92 16.16,0.86 23.43,0.14 z M 559.785,2578.92 c -3.855,-4.8 9.824,-10.07 12.617,-14.23 9.375,9.61 -30.937,14.71 -3.086,28.27 5.657,5.17 22.891,5.35 34.329,4.59 -16.457,1.91 5.378,8.69 14.316,12.09 14.922,-3.51 38.594,-1.03 45.586,-6.93 2.215,2.25 13.687,3.76 21.582,2.97 l 0.828,-3.12 c 17.648,3.23 -6.074,2.89 -1.621,6.3 12.793,1.4 32.988,-4.8 53.887,-3.81 -20.899,-0.99 -38.196,-5.81 -53.055,-9.72 38.223,-4.54 -6.391,-16.25 -14.719,-24.67 30.535,4.68 42.117,10.83 67.031,16.82 5.079,-0.96 8.282,-2.25 10.286,-3.72 -5.95,-6.51 -10.84,-12.85 -14.161,-18.79 -2.316,-1.01 -4.367,-1.72 -5.675,-1.91 1.75,0.33 3.508,0.75 5.254,1.12 -4.739,-8.77 -6.016,-16.63 -1.954,-22.73 12.5,-4.21 -30.515,-12.58 -4.667,-13.77 l 16.152,6.85 c -3.953,-8.15 -5.02,-15.53 -1.68,-21.45 11.133,-4.59 -27.742,-11.62 -4.531,-13.63 l 23.027,9.98 c -3.84,-4.67 9.192,-10.37 11.778,-14.61 9.257,9.33 -29.395,15.66 -2.266,28.35 5.566,5.01 22.148,4.66 33.125,3.56 -15.781,2.41 5.398,8.51 14.07,11.65 14.258,-3.97 37.09,-2.2 43.684,-8.32 1.555,1.55 7.598,2.57 13.683,2.66 -1.359,-0.81 -2.57,-1.61 -3.39,-2.37 3.808,0.55 7.285,1.12 10.598,1.71 l 0.652,-2.83 c 9.988,1.58 6.289,2.36 2.383,3.4 3.425,0.64 6.66,1.31 9.675,1.99 11.079,-1.66 24.399,-4.74 38.262,-4.49 -20.105,-0.35 -36.863,-4.65 -51.25,-8.1 36.66,-5.71 -6.519,-16.05 -14.742,-24.21 29.5,3.74 40.789,9.53 64.883,14.77 29.273,-6.64 -2.348,-23.18 -9.746,-24.13 26.797,4.49 54.871,14.56 69.238,18.01 -19.965,-12.29 -16.535,-16.24 -34.523,-26.13 21.464,-7.25 25.859,1.52 36.132,6.19 -5.984,-1.13 -15.246,-1.91 -17.414,0.54 25.52,-1.13 21.203,17.96 34.497,26.19 17.6,-4.79 50.03,-7.22 52.34,-16.63 l -0.19,9.82 c 22.11,2.87 11.47,-6.14 14.9,-10.04 8.25,8.15 -2.02,19.89 35.23,23.09 -5.74,-19.27 33.22,-1.67 32.18,-19.21 17.4,1.17 25.32,10.91 43.46,8.92 20.05,-9.92 -27.44,-23.73 -38.26,-20.79 -25.16,-0.53 3.32,8.05 -6.77,7.84 l -24.06,-5.31 c 13.41,-3.68 39.71,-7.91 36.5,-15.93 24.48,3.71 -19.7,8.31 7.15,12.9 l 16.18,-4.43 c 26.78,4.57 -5.64,13.43 29.31,15.8 -23.37,-8.51 37.89,0.02 35.8,-12.78 1.37,15.95 62.59,2.37 69.84,15.28 l -18.51,3.53 4.13,-7.08 c -20.12,-0.48 -36.84,-4.91 -57.65,-2.2 16.34,5.93 -5.61,13.39 13.4,18.63 35.69,9.7 9.53,-8.52 14.56,-8.39 l 28.41,8.68 -19.29,6.68 c 22.12,2.97 52.31,3.72 82.86,2.89 45.14,-9.24 -5.52,-8.91 26.82,-17.68 14.44,3.54 10.92,7.48 31.41,6.38 -11.07,4.51 -19.71,-2.1 -27.43,-1.48 -9.93,10.11 36.77,4.89 34.64,14.41 8.44,-3.77 6.84,-7.8 0.21,-11.97 34.52,4.06 67.73,2.52 80.74,-9.91 l 14.85,12.35 c 59.12,-3.97 -40.37,-11.48 9.38,-18.91 20.5,-1.02 40.69,-0.45 49.63,4.59 l -17.77,0.3 c 13.57,6.76 12.52,11.5 34.23,16.08 15.45,-1.16 7.21,-9.35 25.83,-2.48 37.63,-5.33 24.4,-14.11 13.74,-23.2 15.63,1.15 35.83,1.02 38.51,6.12 0.29,-2.88 -2.24,-8.44 -11.07,-11.66 -31.86,12.37 -12.28,-12.9 -25.43,0.51 l -7,0.33 c -0.66,-0.73 -1.25,-1.46 -1.73,-2.19 13.68,-2.49 13.69,-6.72 10.27,-10.56 l 12.69,5.86 9.5,-11.51 c 11.99,-1.39 19.89,8.72 26.51,1.94 17.92,-9.72 -26.06,-15.67 17.83,-19.38 46.98,-3.05 44.02,15.61 75.93,13.3 -3.29,3.37 -11.22,2.96 -21.18,3.41 10.37,5.16 -7.91,9.26 9.54,13.25 9.96,-10.15 43.56,-9.25 69.24,-8.83 -6.68,-5.6 9.83,-10.95 1.79,-14.22 13.02,1.44 25.02,3.25 30.56,7.91 -52.29,7.21 50.55,8.95 9.9,18.86 40.7,-0.24 48.59,-9.47 73.88,-14.66 -1.65,-3.13 -46.84,-6.71 -10.72,-10.81 41.44,11.02 -7.5,14.87 24.7,27.9 l -26.11,3.62 c -3.35,13.05 45.16,3.57 51.85,6.5 16.13,-3.19 -22.4,-3.83 -6.63,-12.6 24.05,-2.72 36.1,5.62 51.47,0.84 -14.9,-8.95 -5.39,-5.39 -22.36,-13.46 56.4,0.63 -2.82,-10.36 40.29,-15.56 13.66,1.81 4.92,9.45 26.97,7.69 -12.94,9.43 -11.32,12.56 -46.95,12.56 12.37,13.93 46.89,-2.9 71.72,5.68 -19.94,0.89 -6.25,2.7 -27.83,0.43 -2.99,11.53 -10.98,13.25 8.61,24.24 -23.13,-3.33 -33.08,-15.89 -66.27,-12.78 -9.19,11.71 40.6,9.42 40.91,24.74 10.81,5.16 31.78,4.28 50.15,1.53 -9.1,-4.88 -5.3,-4.14 -15.63,-8.35 2.24,5.89 -17.68,5.21 -26.19,3.22 l 18.08,-7.81 c 1.54,0.81 3.18,1.67 4.94,2.6 10.64,-0.4 17.24,-1.01 21.14,-1.76 -2.45,-6.04 -15.72,-14.31 1.14,-18.42 30.63,0.03 40.49,4.41 47.61,9.32 0.18,-0.02 0.33,-0.03 0.51,-0.05 -0.09,0.07 -0.17,0.14 -0.27,0.21 9.31,6.47 14.2,13.8 55.68,13.32 l -37.31,6.5 c 0.13,-0.62 -0.16,-1.17 -0.23,-1.77 -7.46,1.11 -2.18,1.67 -20.54,0.52 -0.25,1.03 -0.58,1.9 -0.89,2.78 5.16,1.02 10.36,1.97 15.55,2.88 2.5,-1.28 7.5,-2.43 16.88,-3.27 5.11,0.72 7.37,2.03 9.07,3.41 54.93,-1.77 47.31,10.92 69.21,16.58 7.96,0.79 16.5,1.73 25.3,2.62 4.89,0.06 10.36,-0.03 16.69,-0.32 l -6.56,1.3 c 17.58,1.59 35.69,2.61 51.9,1.33 6.54,-6.55 50.82,-4.16 29.09,-11.02 8.55,1.97 37.17,3.85 28.55,9.32 -3.73,-2.27 -7.86,-0.49 -15.72,-0.95 l 6.94,8.55 c 21.18,-3.33 44.79,7.74 65.11,2.82 6.68,-6.72 -38.08,-4.79 -24.37,-12.64 19.41,12.86 98.92,19.05 124.27,13.94 17,-1.55 19.1,-12.13 26.2,-13.23 l 28.55,1.18 c 3.38,-3.37 3.85,-7.43 9.19,-11.69 14.09,-2.22 23.63,1.41 32.34,3.44 37.32,-6.43 17.48,-15.27 -1.57,-22.51 l -21.07,3.34 c -15.33,-4.97 -37.35,-3.21 -24.36,-12.63 10.67,1.14 10.27,5.16 14.03,7.43 l 12.42,-5.37 c 12.41,4.31 46.8,6.86 43.06,14.27 25.27,-5.11 54.23,1.7 76.66,-4.13 -12.04,3.67 -2.79,6.43 -0.36,10.25 l 6.23,-2.62 c 8.67,2.68 27.14,4.47 38.11,7.41 -0.15,-2.16 1.78,-3.87 8.59,-6.81 -10.38,4.49 13.21,7.09 16.05,11.06 0.05,0 0.11,-0.01 0.17,-0.01 0.21,-1.23 0.25,-2.56 0.65,-3.68 6.6,-4.45 -16.16,-11.97 -2.5,-13.67 l 13.4,10.23 c -2.19,-4.72 5.53,-10.26 7.09,-14.47 4.24,7.5 -9.24,12.77 -7.03,21.16 19.07,-0.2 38.29,1.22 54.33,-2.9 -16.5,4.93 4.47,7.83 -0.38,13.74 l -28.93,2.37 c 9.54,0.82 20.82,2.2 32.32,3.21 0.46,-0.42 0.96,-0.81 1.3,-1.34 0.38,0.64 1.26,1.18 2.34,1.63 3.33,0.26 6.62,0.46 9.92,0.61 l 0.41,-2.82 c 4.93,1.42 4.15,2.17 2.41,2.96 5.5,0.2 10.8,0.12 15.89,-0.21 1.41,-0.32 2.79,-0.52 4.24,-0.74 -0.28,-0.04 -0.51,-0.07 -0.8,-0.11 2.65,-0.2 5.06,-0.35 7.26,-0.46 0.05,-0.01 0.11,-0.01 0.16,-0.02 -11.63,-0.67 -21.31,-5.06 -29.62,-8.63 21.59,-5.3 -3.64,-16.13 -8.38,-24.38 17.28,4.07 23.84,10 37.93,15.5 17.27,-6.3 -1.12,-23.19 -5.45,-24.23 15.68,4.79 32.05,15.18 40.45,18.8 -11.58,-12.52 -9.53,-16.43 -19.98,-26.51 12.68,-7.03 15.16,1.79 21.14,6.59 -3.5,-1.19 -8.92,-2.09 -10.23,0.34 14.99,-0.84 12.26,18.16 19.98,26.52 11.13,-5 32.26,-7.14 30.96,-18.36 l -0.27,11.94 c 12.96,3.04 6.81,-6.04 8.86,-9.92 4.77,8.22 -1.4,19.87 20.46,23.36 -3.18,-19.3 19.53,-1.41 19.08,-18.96 10.22,1.31 14.78,11.11 25.44,9.26 11.87,-9.77 -15.89,-23.95 -22.26,-21.09 -14.77,-0.72 1.86,8.08 -4.06,7.79 l -14.07,-5.5 c 7.91,-3.58 23.4,-7.61 21.58,-15.65 14.35,3.91 -11.65,8.17 4.08,12.96 l 9.54,-4.3 c 15.68,4.76 -3.43,13.38 17.06,16.02 -13.65,-8.69 22.25,0.31 21.14,-12.5 0.23,5.68 4.97,7.65 11.13,8.42 9.01,-7.34 35.47,0.19 51.09,1.12 24.89,-1.09 15.82,-8.75 16.24,-12.81 42.19,12.69 -48.97,13.42 -9.67,25.43 2.46,1.49 5.74,2.65 9.32,3.66 0.48,-1.28 2.22,-2.8 6.63,-4.79 8.45,3.62 6.34,7.53 18.4,6.54 -6.54,4.45 -11.57,-2.2 -16.1,-1.62 -0.38,0.64 -0.61,1.22 -0.74,1.75 6.76,1.2 14.4,1.97 22.41,2.51 -0.41,-0.55 -0.71,-1.1 -1.23,-1.65 20.25,4.21 39.78,2.83 47.51,-9.55 l 8.63,12.41 c 34.77,-3.84 -23.63,-11.57 5.66,-18.88 12.06,-0.98 23.9,-0.37 29.12,4.7 l -10.44,0.25 c 0.66,0.57 1.2,1.1 1.76,1.65 12.45,0.38 28.33,3.9 39.28,4.6 3.37,-0.11 6.16,-0.33 8.46,-0.63 1.65,-4.49 -2.45,-9.73 -6.09,-15.08 8.47,1.1 18.99,1.25 21.81,5.26 0.28,0.12 0.5,0.22 0.76,0.32 -0.02,-2.99 -1.57,-7.99 -6.4,-11.03 -18.81,12.3 -7.12,-12.93 -14.93,0.45 l -4.12,0.31 c -0.38,-0.73 -0.73,-1.45 -1,-2.19 8.05,-2.46 8.09,-6.68 6.1,-10.54 l 7.42,5.89 5.66,-11.49 c 7.06,-1.37 11.62,8.77 15.56,2 10.59,-9.68 -15.2,-15.73 10.61,-19.34 27.61,-2.94 25.74,15.71 44.49,13.46 -1.95,3.38 -6.61,2.94 -12.46,3.37 6.06,5.18 -4.7,9.25 5.51,13.27 5.93,-10.11 25.66,-9.22 40.74,-8.78 -3.88,-5.61 5.85,-10.96 1.16,-14.22 7.62,1.43 14.67,3.25 17.9,7.91 -30.78,7.2 29.63,8.96 5.68,18.86 23.92,-0.23 28.61,-9.46 43.5,-14.63 -0.95,-3.13 -27.47,-6.73 -6.23,-10.82 24.27,11.03 -4.5,14.86 14.33,27.91 l -15.36,3.61 c -2.05,13.05 26.52,3.58 30.43,6.51 9.49,-3.18 -13.15,-3.84 -3.82,-12.59 14.15,-2.72 21.17,5.62 30.23,0.85 -8.7,-8.96 -3.13,-5.4 -13.05,-13.47 33.12,0.64 -1.59,-10.35 23.76,-15.56 8.02,1.8 2.83,9.45 15.8,7.65 -7.66,9.44 -6.73,12.6 -27.66,12.6 7.18,13.96 27.57,-2.93 42.1,5.62 -11.72,0.91 -3.69,2.7 -16.35,0.46 -1.82,11.54 -6.53,13.27 4.92,24.23 -13.58,-3.31 -19.35,-15.83 -38.87,-12.74 -5.47,11.71 23.81,9.43 23.9,24.73 9.61,7.85 33.26,1.71 44.06,-3.79 18.81,9.7 42,10.27 56.35,24.2 8.14,-2.54 23.48,1.16 39.99,3.85 7.79,-1.7 15.72,-2.55 23.25,-2.41 4.3,0.64 8.45,1.38 12.65,2.08 7.42,-4.05 25.92,-3.04 14.86,-8.99 5.11,1.94 21.73,3.77 16.66,9.23 -2.18,-2.26 -4.62,-0.48 -9.23,-0.91 l 2.38,5.04 c 12.08,2.3 23.99,4.73 35.75,7.24 1.41,-0.2 2.8,-0.5 4.15,-1.07 3.96,-6.74 -22.35,-4.7 -14.25,-12.59 11.33,12.84 58.03,18.85 72.97,13.69 10,-1.59 11.28,-12.18 15.46,-13.29 l 16.77,1.12 c 2,-3.39 2.3,-7.45 5.46,-11.72 8.29,-2.27 13.89,1.35 19,3.35 21.96,-6.51 10.35,-15.3 -0.82,-22.5 l -12.4,3.4 c -8.98,-4.93 -21.93,-3.12 -14.25,-12.58 6.26,1.11 6.01,5.14 8.21,7.39 l 7.32,-5.4 c 7.28,4.29 27.47,6.75 25.25,14.17 14.87,-5.17 31.85,1.56 45.07,-4.33 -9.08,4.73 2.36,7.89 -0.37,13.74 l -15.84,2.04 c 12.64,2.25 30.86,8.07 42.85,3.11 -1.41,-4.72 -1.88,-6.29 4.22,-10.8 -8.57,6.33 22.08,8.75 3.52,16.66 -6.78,-2.69 -13.12,-3.81 -21.92,-3.14 -2.29,3.92 -1.57,6.52 0.58,8.58 3.03,0.96 4.37,2.7 7.16,4.3 0.57,0.27 1.12,0.54 1.69,0.83 4.02,1.77 10.85,3.07 25.83,2.36 0.44,2.59 -1.1,3.99 -4.06,4.68 5.23,1.11 10.82,2.3 16.15,3.57 l 19.44,-3.43 c 3,-2.25 6.47,-3.75 11.91,-2.1 l 5.93,-1.05 c -12.43,-13.93 -35.64,-9.58 -42.22,-22.18 27.76,-0.52 24.44,2.86 52.62,7.98 -45.63,10.24 19.83,8.71 -6.28,22.04 7.82,-1.27 11.83,-2.46 15.35,-3.45 -1.68,-3.78 -5.56,-7.13 -14.79,-8.93 20.57,-2.74 17.13,3.36 21.72,7.3 4.49,-0.73 10.75,-1.16 22.87,-1.1 -19.45,-3.11 -0.74,-11.26 -26.48,-11.63 34.72,1.04 32.57,3.29 55.32,4.71 0.81,-0.38 1.5,-0.75 2.36,-1.13 -0.35,0.41 -0.49,0.82 -0.68,1.23 4.05,0.23 8.77,0.44 14.63,0.61 4.84,3.71 0.12,6.4 -5.01,8.7 0.07,0 0.15,0.03 0.23,0.04 19.05,-6.31 -0.1,-15.3 11.64,-25.9 6.55,6.75 19.49,4.93 15.06,10.12 7.52,0.23 3.64,-2.7 9.04,-4.73 4.8,6.08 10.41,9.66 20.83,9.64 -0.9,-3.13 -2.33,-7.85 -12.34,-6.27 11.24,-2.5 15.45,-13.29 10.65,-19.36 l -18.3,3.84 c -8.23,-7.43 17.07,-2.96 16.43,-10.13 -8.04,-1.8 -14.15,2.71 -19.27,0.68 5.21,-7.66 20.94,-0.03 30.19,0.88 14.64,-1.15 9.34,-8.79 9.62,-12.85 24.73,12.61 -28.86,13.52 -5.82,25.45 8.68,8.99 30.86,8.07 46.42,10.08 -13.48,9.92 1.36,14.4 17.4,18 -20.96,-0.01 -5.47,11.69 -30.01,4.75 l -0.57,8.1 c 10.49,-0.01 22.93,-3.38 33.41,-3.42 -2.17,-2.23 0.28,-4.03 -3.14,-5.4 l 31.17,4.03 -3.12,-5.39 c 19.25,-0.68 42.94,-6.55 54.37,-3.42 -9.25,-0.88 -17.36,6.98 -7.66,9.46 5.58,3.59 15.78,7.63 24.54,6.97 4.72,-9.23 37.85,-8.59 16.98,-18.25 26.98,5.15 16.99,6.74 42.78,12.78 l -17.28,-2.67 c -2.26,7.4 12,20.02 -4.62,24.51 11.84,3.03 11.84,9.05 15.9,13.73 2.42,-1.01 3.59,-2.21 2.37,-3.7 5.76,1.62 11.69,2.72 17.74,3.48 -2.45,-4.47 -11.33,-9.34 -20.7,-10.66 7.39,-0.5 14.13,-4.5 21.7,0.74 5.64,-6.07 -13.78,-11.02 -13.02,-13.49 13.41,-0.23 -0.3,4.04 12.34,6.27 22.09,8.78 14.25,-12.37 35.4,-6.77 -4.63,-0.44 -12.9,1.82 -7.36,5.42 28.49,0.2 15.78,7.65 36.43,11.68 11.8,-10.59 6.79,-22.3 25.53,-24.55 l -10.44,0.01 c 7.35,-5.4 15.64,-7.66 23.21,-7.42 38.87,9.84 70.88,26.7 110.98,35.66 l -14.35,-2.92 c -3.95,2.93 6.17,4.24 10.09,6.76 1.36,0.24 2.74,0.47 4.12,0.7 l 6.48,-3.41 c 0.53,1.77 -0.31,3.06 -1.69,4.17 3.77,0.56 7.64,1.07 11.67,1.52 -1.75,-6.65 -0.64,-14.4 -20.81,-16.92 18.94,3.36 3.45,-8.32 5.44,-11.71 10.01,-1.58 4.83,6.07 16.07,3.6 -0.2,-5.64 -24.28,-11.03 -13.52,-15.07 1.14,8.76 11.13,7.18 15.93,13.26 8.31,-2.27 -0.15,-5.64 3.52,-8.34 4.61,0.43 7.27,4.28 11.4,3.15 l -3.08,-5.42 c 23.18,-7.44 6.96,8.33 33.27,6.31 0.67,7.18 -7.36,5.4 -18.29,3.82 -5.07,13.95 25.25,16.96 30.61,29.35 2.96,-1.06 5.81,-2.07 8.55,-2.92 1.05,-0.98 3.11,-1.89 6.91,-2.62 11.78,-10.57 -15.48,-11.7 -20.79,-19.34 l 22.02,-6.52 c -7.19,-13.96 -20.88,-9.66 -24.65,-22.27 16.32,-0.47 14.34,2.92 30.87,8.1 -26.9,10.13 11.6,8.75 -3.86,22.02 12.44,-3.37 8.57,-6.29 26.59,-6.08 -11.41,-3.16 -0.35,-11.27 -15.48,-11.7 24.35,1.34 17.73,4.28 42.07,5.59 7.49,9.9 -24.73,12.39 4.48,19.8 6.33,0.18 5.13,-3.53 1.42,-3.55 20.95,-3.56 -4.41,12.09 8.68,17.27 9.13,1.31 12.45,-2.49 8.7,-4.87 13.65,5.6 6.01,12.01 15.11,14.32 l -4.17,1.13 c 2.18,1.63 -0.29,6.69 0.63,10.97 7.56,0.18 15.15,0.42 22.71,0.76 -0.14,-1.01 -0.36,-1.99 -0.26,-2.83 11.15,3.51 19.77,0.77 27.47,-2.55 -0.79,1.89 0.05,3.84 3.44,3.93 18.98,3.39 11.01,-8.1 18.09,-9.45 27.13,-4.51 -3.55,18 26.65,18.88 l -35.11,2.72 c 1.42,4.73 2.1,11.94 -5.46,11.71 -0.56,-6.32 -10.17,-11.94 -20.45,-12.59 -1.32,0.07 -2.84,0.11 -4.32,0.17 -2.99,8.16 31.27,9.56 11.56,18.28 7.07,-1.34 16.84,1.11 25.58,0.44 -8.68,-8.99 28.03,-1.37 13,-11.47 38.25,2.66 43.89,-3.42 78.91,3.54 -3.11,-5.41 -25.37,-19.81 -43.69,-15.96 l -1.54,4.95 c -22.83,-6.28 17.87,-5.41 13.81,-13.95 28.11,13.93 62.62,-5.68 97.15,-0.29 -6.12,4.48 0.71,7.2 2.13,11.91 -13.88,-1.35 -11.43,-3.16 -21.7,2.49 1.88,6.3 10.2,4.04 14.53,8.55 3.58,6.96 -10.46,-0.02 -15.41,3.6 13.16,3.82 11.91,4.73 19.68,10.57 7.34,-5.4 6.39,-8.56 12.06,-14.64 31.68,-0.9 29.15,10.68 53.02,9.5 -8.74,0.11 3.95,-5.26 -2.57,-5.37 l 4.58,-0.34 c -22.57,-10.35 -61.55,-10.54 -57.51,-26.98 18.51,1.79 31.83,11.23 54.46,11.89 l -0.93,-3.14 c 16.35,-0.46 -0.29,4.03 3.56,6.97 18.22,5.85 23.8,-15.54 36.32,-3.65 l -18.73,2.29 c 14.05,6.95 -4.16,1.13 -0.87,12.16 25.02,8.53 68.45,3.52 103.93,12.05 -10.28,5.65 -13.2,5.86 -26.61,6.11 5.92,14.85 11.34,12.82 4.66,25.43 l -16.33,0.46 -0.39,13.71 c 4.47,0.29 8.9,-0.39 12.88,-1.67 2.15,8.63 24.78,-2.3 25.82,5.92 l -13.88,-1.33 c -6.89,6.98 9.46,6.52 19.19,8.97 -9.35,8.79 -30.21,-0.86 -49.92,-1.74 1.47,-4.96 -18.13,-15.52 1.11,-16.22 -0.19,-5.62 -11.63,-8.77 -19.19,-8.97 3.48,2.58 -10.98,12.27 -1.84,17.41 -10.54,-3.66 -5.03,1.12 -21.91,-1.87 2.64,3.82 -33.14,-0.64 -31.05,11.26 -5.99,-5.14 0.47,-17.53 -21.54,-18.37 5.42,-8.14 29.99,-9.03 13.61,-18.08 l 10.65,5.62 c 15.38,-3.6 -4.1,-8.56 15.96,-11.7 -5.89,0.46 -17.78,-4.28 -20.49,1.59 5.3,-17.33 -29.64,-8.99 -30.49,-21.79 -4.45,5.15 -10.29,5.61 -21.29,4.05 1.46,4.73 -4.67,9.23 3.84,12.6 7.07,-1.34 12.17,0.66 20,-3.18 -4.49,17.26 -28.51,5.1 -46.82,8.52 2.58,-1.35 3.32,-3.01 -1.71,-5.55 -11.19,2.47 -35.84,5.2 -28.85,13.52 l -56.24,-2.88 c -0.3,4.05 8,1.79 11.43,3.16 l -31.41,-0.01 c -2.98,2.18 -1.76,3.52 0.87,4.69 6.51,1.1 13.29,2.12 20.78,2.83 l -1.55,-3.26 c 29.77,1.83 -0.69,3.98 6.17,7.46 32.86,8.4 44.03,-12.17 66.23,1.46 l -34.18,-0.34 c 25.22,8.92 -7.63,0.54 -2.17,12.01 33.04,8.83 84.41,11.8 134.71,18.07 2.44,0.14 3.89,0.33 4.64,0.58 9.45,1.22 18.8,2.57 28,4.11 11.66,-3.38 20.94,-7.06 34.28,-0.09 l -27.59,1.24 c 4.82,0.86 9.58,1.76 14.26,2.74 -8.29,1.84 -13.98,2.8 -19.78,3.2 -3.39,0.93 -6.18,2.65 -4.02,6.53 47.31,9.47 129.49,6.09 196.6,15.95 -19.46,5.26 -24.97,5.36 -50.36,5.1 11.17,15.07 21.43,13.26 8.75,25.61 l -30.91,-0.14 -0.75,13.69 c 8.44,0.46 16.83,-0.05 24.35,-1.19 4.07,8.71 46.91,-1.37 48.83,6.89 l -26.24,-1.85 c -13.04,6.73 17.89,6.87 36.28,9.68 -17.7,8.45 -57.16,-1.98 -94.45,-3.6 2.8,-4.91 -34.25,-16.2 2.15,-16.18 -0.34,-5.62 -21.97,-9.2 -36.28,-9.68 6.54,2.69 -20.67,11.8 -3.68,17.29 -19.9,-4.03 -9.39,0.97 -41.31,-2.64 4.98,3.91 -62.69,-1.89 -58.78,10.1 -11.31,-5.36 0.97,-17.52 -40.69,-19.18 4.59,-3.54 16.36,-5.49 25.27,-7.44 -6.27,-1.03 -12.58,-1.99 -18.87,-2.63 2.93,-4.75 -32.1,-18.04 2.85,-16.05 -0.05,-5.62 -20.65,-10.38 -34.38,-11.64 3.51,1.74 -3.61,4.96 -7.44,8.59 5.23,-0.1 10.65,-0.47 17.12,-2.03 -2.7,5.39 -9.06,7.78 -17.58,8.61 0.82,0.64 1.99,1.28 3.55,1.9 -2.87,-0.77 -5.13,-1.33 -6.92,-1.68 -18.52,0.95 -45.3,-3.82 -67.65,-2.05 0.93,-0.24 1.67,-0.5 2.3,-0.77 -12.38,-0.05 -23.45,0.95 -24.05,5.34 0.94,-0.64 2.99,-1.17 5.54,-1.66 -1.94,0.61 -3.82,1.34 -5.57,2.15 0.01,0.23 -0.12,0.42 -0.05,0.67 -4.36,-2.45 -4.88,-5.83 -6.7,-9.23 -19.56,1.78 -38.3,4.49 -29.33,10.33 l -98.61,-4.63 c 0.09,0.5 0.21,1.03 0.47,1.63 1.48,0.37 3.27,0.58 4.84,0.91 3.23,0.08 6.39,0.19 8.52,0.69 l -5.42,-0.11 c 36.41,6.61 93.1,3.36 140.25,11.64 -14.66,5.55 -18.81,5.73 -37.94,5.83 8.47,14.91 16.18,12.95 6.67,25.49 l -23.29,0.29 -0.53,13.71 c 6.36,0.34 12.69,-0.31 18.34,-1.54 3.09,8.65 35.34,-2.05 36.81,6.18 l -19.77,-1.46 c -9.81,6.9 13.5,6.61 27.36,9.16 -13.31,8.69 -43.07,-1.17 -71.17,-2.26 2.09,-4.95 -25.84,-15.71 1.58,-16.21 -0.28,-5.61 -16.58,-8.88 -27.37,-9.16 4.95,2.61 -15.53,12.1 -2.72,17.35 -14.58,-3.65 -7.61,0.81 -29.28,-1.84 0.08,0.23 0.32,0.44 0.33,0.68 l -3,0.13 c -5.77,1.62 -35.08,0.05 -42.04,6.05 10.28,3.97 41.07,-2.88 42.63,4.34 l -24.53,-1.81 c -12.21,6.75 16.71,6.85 33.91,9.63 -16.57,8.47 -53.44,-1.89 -88.31,-3.45 2.62,-4.92 -32,-16.16 2.04,-16.2 -0.32,-5.61 -20.54,-9.16 -33.92,-9.61 6.12,2.68 -19.33,11.83 -3.47,17.29 -18.58,-4 -8.77,0.99 -38.61,-2.58 4.65,3.91 -58.61,-1.78 -54.97,10.2 -10.58,-5.34 0.93,-17.52 -38.02,-19.11 9.63,-7.96 53.09,-8.01 24.14,-17.61 l 18.83,5.99 c 27.21,-3.08 -7.22,-8.72 28.26,-11.16 -5.46,0.13 -13.81,-1.2 -21.24,-1.68 -2.86,1.56 -3.68,3.43 -0.89,5.77 l -80.18,-3.38 c -0.42,4.05 11.41,1.87 16.3,3.26 l -44.79,-0.29 c -10.51,5.36 15.17,5.73 19.62,11.15 l -32.28,-0.86 4.45,5.42 c -7.91,-3.63 -45.09,-5.87 -54.2,2.64 -35.37,-3.14 -34.51,-20.9 -82.52,-13.74 1.66,8.79 27.06,3.52 38.11,9.42 -9.39,2.89 -37.82,-3.79 -42.76,4.5 -21.72,-3.52 -28.1,-11.03 -34.07,-18.3 l -42.97,-0.84 c -13.08,5.16 18.78,6 24.28,11.49 l -40.07,-1.43 5.5,5.5 c -9.8,-3.77 -55.91,-6.68 -67.28,1.68 -43.86,-3.79 -42.68,-21.53 -102.3,-15.25 2,8.83 33.55,4.02 47.22,10.12 -11.66,2.72 -46.89,-4.47 -53.08,3.72 -27.19,-3.97 -34.95,-11.7 -42.36,-19.15 -1.62,-0.05 -3.17,-0.1 -4.83,-0.14 1.49,-0.45 2.5,-0.9 3.33,-1.36 -3.7,-3.68 -7.64,-7.23 -14.16,-10.14 -21.53,-0.99 -17.99,2.04 -12.48,5.08 0.49,0.08 0.92,0.18 1.46,0.25 l -1.21,-0.12 c 3.36,1.84 7.33,3.67 6.79,4.58 -4.45,0.11 -10.07,-2.89 -15.78,-5.43 l -11.97,-1.13 c 1.67,8.78 -9.14,8.51 12.72,14.67 l -20.47,-3.01 c -22.63,1.92 0.94,7.2 6.47,10.16 l -35.77,0.95 c -12.78,-5 7.37,-7.61 -17.26,-10.4 -33.06,7.28 -75.1,3.72 -112.62,5.61 l 26.49,-7.78 c -22.62,1.93 -17.94,-11.99 -24.85,-18.1 -8.04,0.41 -17.16,0.51 -26.36,0.66 l 0.32,0.61 -6.5,-0.48 c -11.8,0.26 -23.26,0.77 -32.38,2.28 2.47,4.41 38.28,5.82 51.19,6.76 -15.75,0.11 -29.61,-0.04 -42.78,-0.34 4.51,5.98 -3.57,12.53 -17.37,16.78 -41.12,0.49 -32.5,-13.61 -53.47,-19.27 -0.19,0 -0.38,-0.01 -0.57,-0.02 0.09,-0.02 0.14,-0.04 0.24,-0.07 -0.55,-0.13 -1.02,-0.3 -1.59,-0.43 18.21,17.62 -29.61,5.5 -25.55,14.97 -12.53,-0.32 -25.07,-0.98 -37.64,-1.75 l -36.17,0.21 c -3.46,-1.15 -4.91,-2.15 -5.47,-3.04 -25.66,-1.87 -51.56,-3.51 -77.75,-3.96 -25.84,0.02 -52.66,-0.94 -77.87,-0.32 l 18.8,-4.15 c -10.73,-2.54 -18.25,-5.79 -23.41,-8.89 11.46,1.84 12.53,-0.61 10.46,-5.36 -26.38,-1.9 -19.2,9.83 -44.14,1.42 -6.69,9.2 27.78,5.04 25.25,14.06 -23.02,0.34 -37.53,-3.68 -54.22,-8.42 -0.3,0.45 -0.65,0.89 -1.09,1.33 0.31,3.54 14.74,0.62 3.17,4.82 -2.8,-0.39 -5.71,-0.79 -8.59,-1.2 -4.02,2.03 -9.42,3.87 -15.85,5.35 -38.74,-0.23 -41.79,-8.35 -52.37,-14.89 -4.16,-0.58 -8.17,-1.14 -12.04,-1.68 7.29,11.29 -40.44,1.53 -35.96,10.16 -66.77,-2.41 -133.82,-10.43 -202.81,-11.96 0.32,-0.56 1.63,-1.11 3.29,-1.66 -9.84,-0.81 -19.76,-1.67 -29.91,-2.49 -2.48,1.18 -4.26,2.38 -5.26,3.31 -15.99,-1.18 -28.6,-3.22 -38.61,-5.62 -33.72,6.31 -20.67,-6.25 -38.5,-10.66 -4.3,1.17 -8.44,1.89 -16.59,0.38 -0.36,1.55 -1.01,2.91 -2.1,3.92 10.21,1.84 24.99,2.73 23.05,8.14 -19.86,-0.08 -34.57,-2.2 -48.65,-5.17 -6.43,-0.7 -13.28,-1.8 -19.9,-2.85 0.8,3.36 18.09,0.82 3.9,4.75 -11.61,-1.39 -23.85,-2.93 -36.18,-4.53 l -0.12,0.06 c 0.02,-0.02 0.06,-0.04 0.08,-0.06 -13.92,-1.79 -27.87,-3.63 -41.31,-5.41 -4.81,1.25 -9.14,2.64 -12.64,3.95 -28.86,0.61 -70.69,-0.37 -101.74,-7.41 1.18,1.33 7,2.45 13.68,3.23 -14.13,-0.05 -29.77,-1.8 -43.99,-3.7 -5.39,-0.03 -10.7,0.05 -16.16,-0.06 0.23,0.15 0.53,0.22 0.73,0.39 -7.19,0.19 -14.77,-0.44 -22.44,-1.3 2.29,1.37 4.2,2.86 -2.46,3.69 -125.94,3.9 -254.02,-12.49 -379.51,-13.36 -191.55,-0.9 -420.53,-5.06 -625.03,-19.86 -16.83,0 -33.62,0.19 -50.36,0.62 -256.58,6.94 -576.1,13.01 -828.77,-1.42 0,0 -5.422,-3.88 -13.75,-10.26 -4.125,0.12 -8.372,0.29 -12.461,0.42 0,0 -27.786,-13.97 -57.825,-32.79 -49.129,-3 -97.089,-6.34 -142.968,-10.16 0,0 -137.168,-90.58 -115.536,-125.28 11.7,-4.23 -28.515,-12.53 -4.347,-13.77 l 23.652,10.71" style="fill:#171818;fill-opacity:1;fill-rule:nonzero;stroke:none" transform="matrix(0.13333332538604736, 0, 0, -0.13333332538604736, -57.9957389831543, 800)"/></svg>