<?xml version="1.0" encoding="utf-8"?>
<svg xmlns="http://www.w3.org/2000/svg" viewBox="12.1049 328.3683 658.9628 40.9727" width="658.963px" height="40.9727px" preserveAspectRatio="none"><path id="path62" d="m 5268.84,3498.37 3.48,2.7 c -78.51,4.35 -127.9,4.47 -181.68,-10.17 -4.94,8.88 -24.29,7.88 -43.69,6.07 -23.83,8.92 -58.77,19.03 -107.59,30.49 l 2.63,2.65 c -53.81,4.98 -89.47,5.97 -126.01,-4.3 -10.52,1.99 -21.47,4 -33.27,6.07 l 3.26,2.7 c -63.36,3.86 -106.43,4.48 -149.35,-4.77 1.22,1.69 3.24,3.57 8.34,3.82 -11.98,-1.14 -26.03,-2.66 -37.73,-2.94 -4.78,1.26 -10.92,1.46 -17.6,1.19 -3.65,0.91 -6.04,2.37 -6.51,4.63 -42.41,-2.37 -96.58,-1.51 -138.47,-6.16 -13.5,0.54 -26.78,-0.08 -39.6,-3.75 1.64,1.33 2.48,5.8 12.38,6.32 -31.36,-2.87 -74.22,-7.59 -76.76,1.77 -74.94,-4.43 -179.7,-2.81 -227.44,-19.12 l 3.23,2.7 c -27.15,-10.88 -35.41,-2.44 -65.9,-8.4 -1.7,1.19 -3.88,1.77 -3.55,2.29 -8.86,-3.23 -20.22,-4.86 -32.42,-5.7 -9.39,1.61 -19.52,2.66 -32.41,-0.2 l -1.26,6.98 c -37.88,-13.26 -71.83,8.29 -97,-4.23 -39.14,-6.27 -26.51,20.43 -67.19,6.22 l -15.97,9.26 c -17.48,1.31 -12.39,-11.76 -31.8,-7.42 1.11,5.97 -24.54,4.43 -13.25,10.23 -43.94,8.76 -88.86,-14.38 -146.76,0.64 -12.44,-11.75 -41.57,-5.23 -50.83,-14.06 -1.61,5.04 -58.27,0.03 -25.74,11.44 2.8,0.94 7.76,0.84 7.43,-1.14 l 3.84,6.92 c -33.07,12.54 -59.77,-7.95 -92.38,-6.38 9.68,-2.15 22.53,-1.37 13.98,-6.21 l -30.28,0.52 6.24,5.88 -45.15,2.78 6.29,-7.09 c -22.12,3.38 -30.01,15.47 -54.79,4.96 -11.2,-5.82 21.01,-9.37 -2.26,-11.93 -29.56,4.48 -73.86,11.18 -111.56,12.78 3.61,-8.03 -6.52,-7.87 -16.93,-9.67 l -1.29,6.99 c -39.88,-10.31 -14.85,15.19 -54.44,6.88 l -6.86,-9.86 c -35.64,-14.4 -19.48,14.26 -59.04,-5.33 15.71,1.45 7.6,-15.31 -11.8,-12.57 l 4.82,6.83 c -10.7,-1.6 -14.24,-4.48 -21.38,-3.2 6.32,3.75 3.24,9.89 -12.49,8.48 l 10.45,8.63 -26.78,-11.68 c -5.58,0.76 -11.07,1.12 -16.44,0.96 -21.77,1.7 -47.55,-3.31 -55.4,4.38 0,0 -49.51,3.89 -60.71,-6.79 9.84,6.66 -17.45,8.65 -9.8,16.4 -12.71,-7.57 -50.46,-14.27 -65.74,-6.72 l 2.86,0.93 c -56.17,6.93 -95.67,-12.58 -146.11,-3.98 2.42,-8.08 -24.21,-4.2 -17.48,-14.45 -35.98,-7.88 -67.85,4.36 -90.11,1.76 l 1.92,2.26 -1.92,-2.26 c -9.48,-1.11 -17.19,-4.99 -22.74,-14.23 -3.49,0.44 -8.33,0.25 -14.88,-0.72 -0.8,0.11 -1.46,0.28 -2.19,0.42 l 3.13,4.03 -3.13,-4.03 c -10.39,1.99 -15.32,6.78 -23.98,7.73 l 5.62,1.83 c -44.3,-3.67 -57.17,-4.29 -90.12,-4.33 -10.85,-2.33 -15.66,-9.6 -26.16,-13.46 -6.27,0.34 -12.8,0.31 -19.3,0.14 2.88,3.44 -7.03,2.46 -16.37,2.24 7.02,1.1 9.16,3.32 -5.39,6.96 -2,-1.88 -5.12,-3.08 -8.05,-4.1 -0.14,0.47 -0.72,0.82 -0.43,1.46 -18.36,-2.53 -15.12,-4.3 -6.56,-4.91 -0.28,-0.61 0.02,-1.34 1,-2.2 -6.36,0.43 -11.4,1.51 -14.39,3.82 0,0 -18.16,0.89 -36.95,-0.02 -1.23,0.74 -2.06,1.71 -2.38,2.99 -12.96,-0.91 -24.98,-2.26 -36.46,-3.83 -4.33,2.2 -8.05,4.6 -4.33,7.96 -2.08,-1.1 -4.92,-2.13 -8.07,-3.11 -1.28,1.28 -1.42,2.73 0.73,4.52 -8.66,-4.27 -26.73,-8.36 -44.39,-9.98 -7.37,0.35 -14.03,1.42 -18.63,3.69 l 3.07,0.85 c -59.82,8.53 -102.48,-10 -156.13,0.19 1.91,-6.5 -15.68,-4.86 -19.39,-9.22 -7.69,0.22 -15.53,0.76 -23.6,1.8 0.19,-0.5 0.24,-0.96 0.17,-1.38 -10.68,1.84 -24.85,-0.29 -39.19,-3.32 -23.21,3.43 -42.03,6.26 -54.26,-6.27 l -0.32,2.19 c -0.53,-2.47 -4.88,-4.28 -10.38,-5.75 -4.62,0.4 -9.09,0.73 -13.34,0.9 4.58,1.12 9.08,2.32 10.16,4.34 -10.4,-0.55 -17.1,-0.9 -21.98,-1.16 -3.57,1.6 -7,3.05 -11.37,3.64 l 6.03,1.64 c -47.4,-2.19 -61.15,-2.38 -96.35,-1.32 -17.58,-2.97 -20.46,-17.85 -51.91,-13.97 10.22,5.84 -2.65,4.86 -14.42,4.97 7.52,0.86 9.87,3.01 -5.56,7.13 -2.19,-1.82 -5.57,-2.91 -8.72,-3.82 -0.13,0.47 -0.74,0.84 -0.42,1.47 -19.67,-1.92 -16.26,-3.79 -7.14,-4.69 -0.47,-0.91 0.29,-2.07 3.11,-3.74 -20.35,7.84 -56.88,0 -59.27,10.2 -59.12,-1.82 -101.45,-11.95 -150.65,-15.45 -5.5,5.29 6.04,9.83 20.34,11.73 l -34.92,-1.6 c 0.35,7.54 20.08,4.15 30.84,5.56 -41.45,12.57 -85.74,-11.38 -134.36,0.24 l -10.15,-5.87 -2.9,1.02 c 0.13,-3.16 -10.83,-7.35 -18.06,-8.3 -6.84,6.63 0.6,15.13 -23.52,14.95 -19.02,6.51 -54.21,-2.68 -79.21,-5.99 13.46,-1.23 9.08,-4.83 3.27,-7.09 -12.06,-0.11 -18.95,6.51 -28.29,3.77 l -0.85,6.89 c -1.72,-6.46 -32.2,-7.04 -36.29,-10.31 -6.81,6.63 18.75,5.48 21.8,10.4 -48.37,-0.39 -24.18,-0.2 -72.53,-0.58 -25.85,-6.44 4.63,-8.41 -7.77,-16.07 -22.79,-1.53 -45.06,-7.5 -71.17,-1.93 l 8.23,-7.93 c -42.848,-5.71 -68.441,-4.57 -97.211,3.65 -40.351,-7.73 -71.562,-14.89 -95.344,-21.51 -80.613,-9.57 -113.445,-19.98 -119.961,-29.93 -0.945,0.19 -1.875,0.33 -2.82,0.53 -368.555,-73.74 -76.101,-89.53 -76.101,-89.53 31.472,-2.92 59.539,-3.98 86.082,-3.86 -14.239,-10.78 -2.774,-18.59 17.39,-24.14 -53.836,-30.85 93.254,-43.79 93.254,-43.79 140.156,-18.14 212.601,4.72 379.411,10.79 146.65,-3.82 185.6,-18.94 337.57,-12.26 72.5,-0.89 149.85,3 220.69,5.17 33.58,12.08 93.04,0.79 132.78,11.02 l 15.47,-6.64 c 13.69,3.5 29.77,5.92 43.57,2.37 l -0.86,-1.97 c 20.46,5.25 43.58,2.36 53.74,4.98 l -0.84,-1.98 24.88,1.04 -4.26,-2.83 c 35.69,5.66 72.49,6.35 104.94,4.13 l -2.75,8.14 c 69.41,-8.56 94.66,8.57 157.33,-1.74 l -0.84,-1.99 c 78.96,22.2 125.17,-13.54 206.57,7.62 -10.15,-2.64 4.39,-4.16 3.58,-6.15 37.53,2.67 77.63,4.26 78.1,20.29 27.37,0.03 22.32,-4.81 25.93,-10.96 -0.21,7.03 23.54,10.16 44.89,10.81 l -9.8,-2.81 61.2,2.97 -9.01,9.76 c 1.44,0.71 2.63,1.49 3.69,2.33 21.98,-4.43 4.12,-14.75 32.63,-11.53 l -0.35,8.19 c 0.45,0.94 1.32,1.79 2.68,2.57 43.16,-2.32 69.53,-18.08 112.11,-25.6 8.04,-0.13 16.14,-0.12 24.23,-0.13 13.3,-3.51 25.08,-5.06 25.08,-5.06 82.49,-16.41 124.77,7 222.7,14.3 86.18,-2.93 109.18,-17.92 198.39,-10.65 26.04,-0.45 53.06,0.92 79.69,2.57 l 0.16,-0.17 c 1.45,-5.23 10.39,-2.45 20.58,1.44 9.86,0.64 19.63,1.28 29.19,1.82 8.49,5.24 19.92,6.06 31.98,6.17 2.24,-1.14 2.62,-2.37 -2.13,-3.73 16.05,-0.29 18.23,1.25 27.61,4.22 1.81,0.13 3.56,0.41 5.34,0.64 l 18,-6.79 c 71.35,-5.27 131.9,9.79 206.95,7.34 90.23,-14.69 259.82,0.55 357.56,9.09 137.38,18.79 297.29,-28.9 437.92,-8.16 4.57,-1.71 16.42,2.12 16.33,3.5 l 128.73,-1.8 c 0,0 39.01,-0.24 90.12,0.72 51.11,0.9 114.31,3.17 162.72,8.62 23.38,2.64 43.24,6.03 56.7,10.35 28.49,-2.85 56.63,-3.12 83.49,3.91 2.72,-1.68 9.64,2.24 9.57,3.63 l 75.73,-0.81 c 0,0 353.45,-0.22 102.17,91.05 15.42,3.97 27.67,8.17 35.39,12.54 159.1,11.31 314.3,36.71 -20.95,91.23" style="fill:#171818;fill-opacity:1;fill-rule:nonzero;stroke:none" transform="matrix(0.13333332538604736, 0, 0, -0.13333332538604736, -57.9957389831543, 800)"/></svg>